<?xml version="1.0" encoding="UTF-8"?>
<svg xmlns="http://www.w3.org/2000/svg" xmlns:xlink="http://www.w3.org/1999/xlink" width="595pt" height="842pt" viewBox="0 0 595 842" version="1.1">
<defs>
<clipPath id="clip1">
  <path d="M 0 772.261719 L 34 772.261719 L 34 842 L 0 842 Z M 0 772.261719 "/>
</clipPath>
<clipPath id="clip2">
  <path d="M 47 772.261719 L 80 772.261719 L 80 842 L 47 842 Z M 47 772.261719 "/>
</clipPath>
<clipPath id="clip3">
  <path d="M 469 773 L 479.402344 773 L 479.402344 842 L 469 842 Z M 469 773 "/>
</clipPath>
</defs>
<g id="surface1">
<g clip-path="url(#clip1)" clip-rule="nonzero">
<path style=" stroke:none;fill-rule:nonzero;fill:rgb(6.459045%,5.915833%,5.220032%);fill-opacity:1;" d="M 33.945312 824.238281 C 34.019531 828.984375 32.785156 833.039062 30.253906 836.40625 C 28.585938 838.6875 26.234375 840.300781 23.191406 841.238281 C 21.5625 841.746094 19.660156 842 17.488281 842 C 13.46875 842 10.136719 841.003906 7.496094 839.011719 C 5.285156 837.382812 3.539062 835.167969 2.253906 832.359375 C 0.96875 829.554688 0.21875 826.339844 0 822.71875 L 9.777344 822.011719 C 10.210938 825.980469 11.261719 828.855469 12.925781 830.640625 C 14.15625 831.984375 15.570312 832.625 17.164062 832.550781 C 19.40625 832.476562 21.199219 831.371094 22.539062 829.234375 C 23.226562 828.183594 23.574219 826.679688 23.574219 824.722656 C 23.574219 821.894531 22.285156 819.085938 19.714844 816.296875 C 17.6875 814.375 14.648438 811.492188 10.589844 807.652344 C 7.1875 804.351562 4.78125 801.398438 3.367188 798.789062 C 1.847656 795.855469 1.085938 792.664062 1.085938 789.222656 C 1.085938 783.027344 3.167969 778.332031 7.332031 775.140625 C 9.902344 773.222656 13.089844 772.261719 16.890625 772.261719 C 20.546875 772.261719 23.679688 773.074219 26.289062 774.707031 C 28.316406 775.972656 29.953125 777.746094 31.203125 780.027344 C 32.453125 782.308594 33.203125 784.933594 33.457031 787.902344 L 23.628906 789.695312 C 23.335938 786.90625 22.539062 784.734375 21.238281 783.179688 C 20.292969 782.054688 18.9375 781.492188 17.164062 781.492188 C 15.28125 781.492188 13.851562 782.328125 12.871094 783.992188 C 12.074219 785.332031 11.675781 787 11.675781 788.988281 C 11.675781 792.105469 13.015625 795.273438 15.695312 798.496094 C 16.710938 799.726562 18.230469 801.175781 20.257812 802.839844 C 22.648438 804.832031 24.222656 806.226562 24.984375 807.023438 C 27.519531 809.554688 29.472656 812.054688 30.851562 814.515625 C 31.503906 815.675781 32.027344 816.742188 32.425781 817.722656 C 33.402344 820.148438 33.910156 822.320312 33.945312 824.238281 "/>
</g>
<g clip-path="url(#clip2)" clip-rule="nonzero">
<path style=" stroke:none;fill-rule:nonzero;fill:rgb(6.459045%,5.915833%,5.220032%);fill-opacity:1;" d="M 69.039062 788.339844 C 69.039062 786.707031 68.46875 785.324219 67.328125 784.183594 C 66.1875 783.042969 64.800781 782.472656 63.171875 782.472656 C 61.542969 782.472656 60.148438 783.042969 58.988281 784.183594 C 57.832031 785.324219 57.253906 786.707031 57.253906 788.339844 L 57.253906 825.597656 C 57.253906 827.226562 57.832031 828.613281 58.988281 829.753906 C 60.148438 830.894531 61.542969 831.464844 63.171875 831.464844 C 64.800781 831.464844 66.1875 830.894531 67.328125 829.753906 C 68.46875 828.613281 69.039062 827.226562 69.039062 825.597656 Z M 63.445312 772.261719 C 67.96875 772.261719 71.816406 773.855469 74.984375 777.039062 C 78.152344 780.226562 79.738281 784.066406 79.738281 788.554688 L 79.738281 825.707031 C 79.738281 830.234375 78.144531 834.082031 74.960938 837.25 C 71.773438 840.417969 67.933594 842 63.445312 842 C 58.917969 842 55.078125 840.40625 51.929688 837.21875 C 48.78125 834.035156 47.203125 830.195312 47.203125 825.707031 L 47.203125 788.554688 C 47.203125 784.03125 48.796875 780.183594 51.984375 777.011719 C 55.167969 773.84375 58.988281 772.261719 63.445312 772.261719 "/>
</g>
<path style=" stroke:none;fill-rule:nonzero;fill:rgb(6.459045%,5.915833%,5.220032%);fill-opacity:1;" d="M 116.023438 789.53125 C 116.023438 787.757812 115.492188 786.328125 114.421875 785.242188 C 113.355469 784.15625 111.933594 783.613281 110.160156 783.613281 L 103.96875 783.613281 L 103.96875 805.394531 L 110.160156 805.394531 C 111.789062 805.394531 113.175781 804.8125 114.3125 803.65625 C 115.453125 802.496094 116.023438 801.101562 116.023438 799.472656 Z M 109.886719 773.128906 C 114.886719 773.128906 118.867188 774.707031 121.835938 777.855469 C 124.589844 780.859375 125.964844 784.699219 125.964844 789.371094 L 125.964844 799.253906 C 125.964844 803.746094 124.398438 807.585938 121.265625 810.769531 C 118.132812 813.957031 114.34375 815.550781 109.886719 815.550781 L 103.96875 815.550781 L 103.96875 841.1875 L 93.703125 841.1875 L 93.703125 773.128906 L 109.886719 773.128906 "/>
<path style=" stroke:none;fill-rule:nonzero;fill:rgb(6.459045%,5.915833%,5.220032%);fill-opacity:1;" d="M 149.324219 812.34375 L 149.324219 841.1875 L 139.058594 841.1875 L 139.058594 773.128906 L 149.324219 773.128906 L 149.324219 802.023438 L 161.710938 802.023438 L 161.710938 773.128906 L 171.972656 773.128906 L 171.972656 841.1875 L 161.710938 841.1875 L 161.710938 812.34375 L 149.324219 812.34375 "/>
<path style=" stroke:none;fill-rule:nonzero;fill:rgb(6.459045%,5.915833%,5.220032%);fill-opacity:1;" d="M 186.046875 841.1875 L 196.3125 841.1875 L 196.3125 773.128906 L 186.046875 773.128906 Z M 186.046875 841.1875 "/>
<path style=" stroke:none;fill-rule:nonzero;fill:rgb(6.459045%,5.915833%,5.220032%);fill-opacity:1;" d="M 210.386719 841.1875 L 210.386719 773.074219 L 239.605469 773.074219 L 239.605469 783.394531 L 220.648438 783.394531 L 220.648438 801.96875 L 234.5 801.96875 L 234.5 812.289062 L 220.648438 812.289062 L 220.648438 830.863281 L 239.605469 830.863281 L 239.605469 841.1875 L 210.386719 841.1875 "/>
<path style=" stroke:none;fill-rule:nonzero;fill:rgb(6.459045%,5.915833%,5.220032%);fill-opacity:1;" d="M 288.359375 831.03125 L 292.648438 831.03125 C 296.125 831.03125 298.535156 829.234375 299.875 825.652344 C 300.34375 824.421875 300.578125 823.007812 300.578125 821.414062 C 300.578125 817.613281 299.855469 814.84375 298.40625 813.105469 C 297.105469 811.511719 295.183594 810.714844 292.648438 810.714844 L 288.359375 810.714844 Z M 288.359375 800.882812 L 292.648438 800.882812 C 295.835938 800.882812 297.972656 799.328125 299.058594 796.214844 C 299.457031 795.054688 299.65625 793.625 299.65625 791.921875 C 299.65625 789.097656 298.96875 786.960938 297.59375 785.515625 C 296.324219 784.175781 294.679688 783.503906 292.648438 783.503906 L 288.359375 783.503906 Z M 277.277344 841.1875 L 277.277344 773.074219 L 292.648438 773.074219 C 296.703125 773.074219 300.363281 774.144531 303.621094 776.28125 C 306.410156 778.089844 308.402344 780.898438 309.597656 784.699219 C 310.246094 786.726562 310.574219 789.136719 310.574219 791.921875 C 310.574219 796.484375 309.359375 800.144531 306.933594 802.894531 C 305.921875 804.054688 304.726562 804.941406 303.351562 805.554688 C 305.632812 806.425781 307.566406 808.144531 309.160156 810.714844 C 310.210938 812.453125 310.988281 814.699219 311.496094 817.449219 C 311.75 818.863281 311.878906 820.4375 311.878906 822.175781 C 311.878906 826.484375 311.0625 830.140625 309.433594 833.148438 C 308.164062 835.5 306.371094 837.382812 304.058594 838.796875 C 301.449219 840.390625 298.859375 841.1875 296.289062 841.1875 L 277.277344 841.1875 "/>
<path style=" stroke:none;fill-rule:nonzero;fill:rgb(6.459045%,5.915833%,5.220032%);fill-opacity:1;" d="M 341.8125 841.945312 C 337.28125 841.945312 333.445312 840.371094 330.296875 837.21875 C 327.144531 834.070312 325.570312 830.25 325.570312 825.761719 L 325.570312 773.128906 L 335.617188 773.128906 L 335.617188 825.652344 C 335.617188 827.28125 336.195312 828.664062 337.355469 829.804688 C 338.515625 830.949219 339.910156 831.519531 341.539062 831.519531 C 343.167969 831.519531 344.554688 830.949219 345.695312 829.804688 C 346.835938 828.664062 347.402344 827.28125 347.402344 825.652344 L 347.402344 773.128906 L 358.105469 773.128906 L 358.105469 825.761719 C 358.105469 830.324219 356.511719 834.160156 353.324219 837.273438 C 350.140625 840.390625 346.300781 841.945312 341.8125 841.945312 "/>
<path style=" stroke:none;fill-rule:nonzero;fill:rgb(6.459045%,5.915833%,5.220032%);fill-opacity:1;" d="M 382.386719 812.34375 L 382.386719 841.1875 L 372.121094 841.1875 L 372.121094 773.128906 L 382.386719 773.128906 L 382.386719 802.023438 L 394.769531 802.023438 L 394.769531 773.128906 L 405.035156 773.128906 L 405.035156 841.1875 L 394.769531 841.1875 L 394.769531 812.34375 L 382.386719 812.34375 "/>
<path style=" stroke:none;fill-rule:nonzero;fill:rgb(6.459045%,5.915833%,5.220032%);fill-opacity:1;" d="M 437.085938 788.71875 L 433.285156 815.550781 L 440.890625 815.550781 Z M 431.695312 825.542969 L 429.199219 841.1875 L 418.511719 841.1875 L 430.082031 773.128906 L 444.203125 773.128906 L 455.605469 841.1875 L 444.8125 841.1875 L 442.414062 825.542969 L 431.695312 825.542969 "/>
<g clip-path="url(#clip3)" clip-rule="nonzero">
<path style=" stroke:none;fill-rule:nonzero;fill:rgb(6.459045%,5.915833%,5.220032%);fill-opacity:1;" d="M 469.136719 841.1875 L 479.402344 841.1875 L 479.402344 773.128906 L 469.136719 773.128906 Z M 469.136719 841.1875 "/>
</g>
</g>
</svg>
