<?xml version="1.0" encoding="utf-8"?>
<!-- Generator: Adobe Illustrator 16.0.4, SVG Export Plug-In . SVG Version: 6.00 Build 0)  -->
<!DOCTYPE svg PUBLIC "-//W3C//DTD SVG 1.1//EN" "http://www.w3.org/Graphics/SVG/1.1/DTD/svg11.dtd">
<svg version="1.1" id="Layer_1" xmlns="http://www.w3.org/2000/svg" xmlns:xlink="http://www.w3.org/1999/xlink" x="0px" y="0px"
	 width="233px" height="117px" viewBox="0 0 233 117" enable-background="new 0 0 233 117" xml:space="preserve">
<g>
	<g>
		<path fill-rule="evenodd" clip-rule="evenodd" fill="#231F20" d="M76.936,14.438c-0.605-0.314-1.036,0.33-1.637,0.099
			c0.546-0.714,1.369-0.878,2.089-1.168c5.773-2.329,11.299-5.246,17.205-7.253c2.097-0.712,4.199-1.458,6.471-1.4
			c0.497,0.013,1.144-0.125,1.417,0.422c0.289,0.576-0.554,0.5-0.674,0.9c-0.465,1.54-1.774,2.271-2.947,3.178
			c-0.995,0.773-0.924,0.871,0.284,1.433c-3.576,2.872-6.555,6.339-9.525,9.748c-1.525,1.752-3.296,2.851-5.149,3.985
			c-0.901,0.55-1.546,1.352-2.315,2.027c-1.53,1.342-3.407,2.139-5.19,3.059c-1.122,0.582-2.099,1.383-3.153,2.052
			c-2.995,1.895-6.38,2.56-9.656,3.569c-2.345,0.723-4.404,2.16-6.854,2.629c-1.198,0.226-2.374,0.611-3.543,0.979
			c-0.764,0.237-1.254,0.616-0.316,1.315c0.428,0.32,0.234,0.792,0.17,1.18c-0.764,4.375-1.937,8.657-3.103,12.933
			c-0.343,1.263,0.224,2.47-0.253,3.737c-0.646,1.709-0.994,3.537-1.443,5.322c-0.082,0.338-0.492,0.717-0.117,1.035
			c0.323,0.268,0.709-0.049,1.067-0.137c2.089-0.52,4.243-1.015,6.203-1.758c1.691-0.641,3.396-1.498,5.121-2.181
			c7.814-3.089,15.49-6.54,23.479-9.163c2.255-0.74,4.521-1.613,7.011-1.469c-1.666,0.665-2.998,1.891-4.623,2.585
			c-0.984,0.419-1.161,1.187-1.016,2.104c0.114,0.669-0.43,0.732-0.799,0.973c-0.925,0.604-2.321,0.809-1.902,2.506
			c0.092,0.363-0.496,0.619-0.873,0.834c-3.652,2.074-6.883,4.754-10.342,7.104c-2.047,1.393-3.994,3.006-6.355,3.909
			c-0.801,0.305-1.572,0.663-2.232,1.206c-2.344,1.937-5.263,2.699-7.981,3.844c-1.128,0.473-1.771,1.469-2.9,1.927
			c-2.414,0.97-4.973,1.466-7.368,2.46c-0.697,0.291-1.568,0.467-0.92,1.564c0.072,0.119,0.01,0.396-0.084,0.521
			c-1.86,2.364-1.695,5.341-2.457,8.034c-0.362,1.286-0.835,2.557-1.27,3.799c-1.173,3.359-1.207,6.871-1.926,10.275
			c-0.519,2.492-1.029,4.98-1.496,7.479c-0.313,1.67-1.797,2.502-2.704,3.742c-0.308,0.418-1.338,0.172-1.47-0.402
			c-0.178-0.766-0.743-0.8-1.195-1.031c-1.74-0.871-2.28-1.684-2.018-3.754c0.326-2.572,0.834-5.121,1.21-7.689
			c0.578-3.919,1.108-7.846,1.671-11.766c0.033-0.259,0.161-0.506,0.32-0.741c-0.161,2.726-0.733,5.411-0.81,8.132
			c0.122,0.015,0.243,0.027,0.364,0.044c0.418-2.249,0.836-4.495,1.24-6.745c0.497-2.787,0.944-5.585,1.469-8.367
			c0.192-1.014,0.072-1.303-1.103-1.119c-4.519,0.703-8.993,1.605-13.6,1.863c-2.935,0.162-5.897,0.629-8.841,1.038
			c-2.562,0.358-5.064-0.271-7.579-0.595c-0.637-0.082-2.491-3.035-2.393-3.703c0.101-0.717,0.718-1.059,1.283-1.15
			c7.046-1.146,13.591-3.93,20.352-6.028c4.597-1.427,9.249-2.692,13.809-4.247c0.698-0.236,1.354-0.893,1.866-1.043
			c1.438-0.417,0.792-1.516,1.127-2.258c0.211-0.467,0.232-1.028,0.482-1.467c1.12-1.955,1.165-4.252,1.273-6.29
			c0.149-2.706,0.927-5.249,1.177-7.901c0.062-0.654,0.302-1.295,0.706-1.834c0.604-0.811,0.559-1.695,0.261-2.568
			c-0.445-1.295-0.561-2.554,0.011-3.848c0.348-0.785-0.018-1.121-0.781-0.815c-2.814,1.136-5.62,0.51-8.504,0.244
			c-6.811-0.632-13.575-1.964-20.437-1.856c-2.084,0.034-4.113,0.168-5.994-0.774c-1.611-0.808-2.349-2.347-2.733-4.056
			c-0.113-0.527,0.236-0.81,0.663-0.944c0.534-0.17,1.093-0.27,1.647-0.372c2.144-0.4,4.197-1.021,6.185-1.963
			c4.716-2.236,9.784-3.188,14.93-3.699c6.077-0.602,12.04-1.805,17.971-3.227c1.015-0.242,1.26-0.994,1.342-1.771
			c0.368-3.433,1.743-6.554,2.924-9.734c0.311-0.839,0.616-2.11,1.461-2.062c0.792,0.046,0.612,1.385,0.757,2.163
			c0.48,2.606,0.606,5.248,0.58,7.896c-0.018,0.999,0.187,1.266,1.287,1.079c3.698-0.63,7.134-2.178,10.76-3.013
			c1.938-0.447,3.588-1.904,5.504-1.945c1.742-0.039,3.225-0.553,4.775-1.091C76.524,14.881,76.86,14.889,76.936,14.438z"/>
	</g>
	<g>
		<path fill-rule="evenodd" clip-rule="evenodd" fill="#231F20" d="M124.269,79.465c5.934-4.973,11.273-10.516,16.098-16.562
			c4.247-5.334,8.377-10.759,12.496-16.191c2.038-2.688,4.342-5.173,6.518-7.755c0.225-0.269,0.438-0.555,0.619-0.853
			c0.196-0.335,0.762-0.586,0.507-1.019c-0.224-0.382-0.763-0.178-1.167-0.2c-1.84-0.096-3.682-0.004-5.525-0.035
			c-1.146-0.021-2.167-0.428-3.252-0.606c-0.379-0.062-0.74-0.149-1.131-0.062c-0.192,0.044-0.455,0.212-0.57-0.104
			c-0.106-0.286,0.082-0.506,0.302-0.643c0.626-0.391,1.316-0.645,2.03-0.812c3.26-0.771,6.511-1.648,9.848-1.9
			c2.396-0.182,3.918-1.102,5.119-3.213c2.43-4.262,5.101-8.385,7.707-12.543c1.303-2.076,2.698-4.095,4.034-6.152
			c0.612-0.941,1.192-1.86,0.336-3.036c-0.442-0.605,0.024-1.447,0.608-1.955c2.094-1.815,4.703-1.68,7.193-2.03
			c0.466-0.066,0.631,0.048,0.658,0.598c0.092,1.803-0.678,3.255-1.488,4.796c-1.552,2.932-3.541,5.583-5.156,8.471
			c-1.719,3.072-3.385,6.18-5.291,9.148c-0.516,0.801-0.941,1.66-1.413,2.49c-0.118,0.215-0.389,0.429-0.202,0.674
			c0.172,0.226,0.479,0.089,0.727,0.041c2.348-0.434,4.692-0.893,7.045-1.312c7.411-1.322,14.657-3.343,21.971-5.087
			c4.798-1.147,9.677-1.937,14.596-2.425c1.358-0.135,2.711-0.286,4.082-0.11c-1.1,0.19-2.244,0.058-3.307,0.405
			c-2.493,0.814-4.966,1.689-7.437,2.559c-1.5,0.525-2.969,1.141-4.486,1.619c-2.139,0.678-4.054,1.816-6.042,2.803
			c-1.849,0.918-3.784,1.674-5.7,2.459c-4.011,1.646-8.161,2.795-12.413,3.698c-2.188,0.464-4.322,1.28-6.557,1.644
			c-1.916,0.312-3.822,0.66-5.748,0.902c-0.686,0.087-1.014,0.395-1.236,0.982c-0.852,2.266-1.605,4.561-2.32,6.873
			c-1.242,4.018-2.389,8.066-3.283,12.169c-0.683,3.11-1.449,6.198-2.122,9.31c-0.496,2.305-1.374,4.502-1.854,6.817
			c-0.448,2.153-1.262,4.198-1.976,6.276c-0.238,0.686-0.51,1.297-1.218,1.621c-0.263,0.121-0.587,0.316-0.571,0.595
			c0.047,0.745-0.521,0.376-0.805,0.485c-0.51,0.194-0.436-0.312-0.568-0.537c-2.286-3.828-1.802-7.871-0.957-11.963
			c1.676-8.118,4.455-15.883,7.477-23.572c0.117-0.288,0.31-0.559,0.229-1.04c-0.926,0.597-1.615,1.367-2.272,2.124
			c-2.496,2.885-4.98,5.785-7.386,8.746c-1.321,1.627-2.513,3.362-3.686,5.102c-1.689,2.5-3.569,4.863-5.251,7.361
			c-2.049,3.032-4.291,5.919-6.419,8.889c-1.262,1.752-2.642,3.421-4.013,5.088c-1.797,2.18-3.6,4.355-5.704,6.262"/>
		<path fill="#231F20" d="M151.774,45.89c1.409-1.859,2.953-3.634,4.445-5.351c0.672-0.773,1.345-1.547,2.007-2.328
			c-0.717-0.014-1.444-0.008-2.197,0c-0.743,0.007-1.495,0.013-2.24,0c-0.876-0.016-1.666-0.213-2.37-0.385
			c-0.355-0.089-0.711-0.18-1.076-0.238l-0.177-0.029c-0.135-0.023-0.265-0.055-0.403-0.053c-0.141,0.043-0.362,0.113-0.63,0.121
			c-0.702,0.016-1.313-0.412-1.555-1.092c-0.306-0.849,0.027-1.734,0.855-2.256c0.712-0.442,1.513-0.766,2.448-0.984l1.371-0.328
			c2.807-0.68,5.711-1.379,8.684-1.605c1.98-0.148,3.073-0.835,4.038-2.529c1.964-3.443,4.11-6.842,6.185-10.126l1.552-2.464
			c0.803-1.275,1.638-2.529,2.47-3.782c0.53-0.796,1.061-1.589,1.582-2.39c0.661-1.022,0.626-1.142,0.371-1.491
			c-0.808-1.107-0.473-2.665,0.816-3.786c2.004-1.737,4.366-1.976,6.451-2.186c0.484-0.049,0.968-0.098,1.446-0.165
			c0.125-0.018,0.237-0.026,0.339-0.03c0.855-0.021,1.797,0.47,1.869,1.907c0.109,2.166-0.775,3.849-1.632,5.475
			c-0.883,1.668-1.881,3.223-2.85,4.729c-0.793,1.235-1.614,2.512-2.337,3.799l-0.917,1.652c-1.39,2.506-2.825,5.095-4.412,7.566
			c-0.167,0.257-0.323,0.522-0.476,0.79l0.902-0.17c1.447-0.272,2.896-0.546,4.344-0.806c5.266-0.939,10.558-2.26,15.677-3.539
			c2.068-0.518,4.138-1.035,6.214-1.531c4.699-1.122,9.672-1.949,14.78-2.453l0.194-0.02c1.453-0.146,2.947-0.248,4.196-0.088
			l8.96,1.155l-8.904,1.538c-0.49,0.085-0.992,0.116-1.495,0.143c-0.592,0.033-1.151,0.062-1.618,0.215
			c-2.288,0.748-4.561,1.547-6.829,2.344l-0.579,0.204c-0.58,0.204-1.154,0.421-1.727,0.636c-0.929,0.352-1.854,0.701-2.799,0.999
			c-1.501,0.474-2.892,1.196-4.363,1.962c-0.494,0.256-0.991,0.514-1.49,0.764c-1.615,0.801-3.294,1.483-4.92,2.143l-0.868,0.354
			c-3.679,1.512-7.815,2.746-12.641,3.771c-0.905,0.191-1.798,0.446-2.743,0.714c-1.245,0.355-2.534,0.723-3.879,0.942l-1.438,0.237
			c-1.451,0.243-2.897,0.485-4.36,0.671l-0.132,0.109c-0.757,2.02-1.485,4.182-2.297,6.797c-1.444,4.679-2.479,8.51-3.255,12.057
			c-0.324,1.502-0.673,2.996-1.02,4.49c-0.376,1.604-0.747,3.207-1.098,4.818c-0.254,1.174-0.597,2.313-0.934,3.417
			c-0.354,1.16-0.684,2.257-0.916,3.386c-0.366,1.779-0.97,3.471-1.551,5.105c-0.16,0.445-0.316,0.892-0.473,1.338
			c-0.207,0.608-0.59,1.712-1.764,2.332c-0.067,0.292-0.197,0.547-0.398,0.762c-0.242,0.266-0.731,0.566-1.477,0.516
			c-0.137,0.033-0.27,0.053-0.402,0.056c-0.298,0.009-1.299-0.068-1.646-1.353c-2.522-4.321-1.87-8.887-1.057-12.828
			c1.369-6.621,3.429-12.897,5.63-18.803c-1.679,1.956-3.463,4.072-5.188,6.195c-1.299,1.604-2.5,3.352-3.613,5.004
			c-0.853,1.26-1.749,2.486-2.65,3.711c-0.88,1.205-1.767,2.411-2.603,3.648c-1.324,1.964-2.739,3.885-4.115,5.742
			c-0.782,1.057-1.561,2.115-2.324,3.181c-1.236,1.721-2.592,3.368-3.904,4.962l-0.162,0.197c-1.699,2.062-3.623,4.397-5.842,6.406
			c-0.51,0.457-1.034,0.824-1.543,1.18 M139.3,62.053 M125.028,87.741c2.068-1.873,3.847-4.029,5.562-6.115l0.167-0.199
			c1.282-1.558,2.607-3.171,3.791-4.819c0.773-1.075,1.562-2.142,2.352-3.209c1.352-1.835,2.756-3.733,4.045-5.647
			c0.854-1.268,1.759-2.501,2.665-3.734c0.877-1.197,1.756-2.395,2.587-3.626c1.149-1.703,2.39-3.507,3.758-5.197
			c2.52-3.101,5.161-6.179,7.413-8.779c0.753-0.867,1.518-1.702,2.562-2.377l1.731-1.12l0.351,2.033
			c0.137,0.799-0.117,1.362-0.254,1.666c-2.885,7.314-5.744,15.133-7.461,23.453c-0.695,3.385-1.229,6.95,0.398,10.264
			c0.166-0.127,0.363-0.247,0.603-0.356c0.172-0.079,0.287-0.223,0.5-0.83c0.158-0.453,0.317-0.908,0.48-1.362
			c0.575-1.62,1.119-3.15,1.448-4.744c0.256-1.25,0.62-2.457,0.977-3.626c0.334-1.099,0.646-2.137,0.877-3.202
			c0.353-1.625,0.73-3.242,1.105-4.859c0.348-1.482,0.692-2.966,1.019-4.453c0.791-3.625,1.842-7.527,3.312-12.281
			c0.824-2.67,1.57-4.877,2.346-6.949c0.407-1.086,1.195-1.711,2.339-1.856c1.427-0.179,2.844-0.416,4.252-0.653l1.452-0.241
			c1.185-0.193,2.349-0.523,3.574-0.872c0.944-0.27,1.925-0.549,2.919-0.758c4.729-1.008,8.6-2.16,12.179-3.628l0.872-0.355
			c1.579-0.643,3.214-1.305,4.738-2.063c0.48-0.24,0.961-0.488,1.441-0.738c1.512-0.785,3.072-1.596,4.798-2.143
			c0.1-0.031,0.202-0.062,0.302-0.097c-1.021,0.21-2.032,0.437-3.027,0.673c-2.063,0.494-4.122,1.008-6.184,1.522
			c-5.166,1.291-10.502,2.625-15.86,3.579c-1.442,0.258-2.879,0.53-4.315,0.802l-2.725,0.511c-0.649,0.162-1.572,0.07-2.05-0.545
			c-0.29-0.383-0.653-1.154,0.077-2.156c0.171-0.297,0.318-0.57,0.469-0.842c0.322-0.59,0.643-1.176,1.002-1.738
			c1.538-2.398,2.953-4.949,4.323-7.414l0.923-1.662c0.763-1.36,1.603-2.674,2.422-3.942c0.937-1.456,1.905-2.962,2.715-4.5
			c0.616-1.168,1.158-2.195,1.303-3.296c-0.211,0.022-0.417,0.043-0.623,0.064c-1.928,0.196-3.592,0.363-4.941,1.535
			c-0.125,0.108-0.218,0.228-0.265,0.315c1.212,1.862,0.191,3.435-0.427,4.386c-0.527,0.811-1.062,1.613-1.594,2.418
			c-0.823,1.231-1.646,2.466-2.432,3.72l-1.557,2.472c-2.059,3.26-4.188,6.631-6.121,10.02c-1.408,2.479-3.326,3.68-6.202,3.897
			c-2.545,0.192-5.126,0.784-7.634,1.388c0.109,0.011,0.223,0.018,0.328,0.02c0.727,0.014,1.449,0.006,2.172,0
			c1.109-0.011,2.255-0.021,3.405,0.037l0.163-0.013c0.116-0.009,0.234-0.021,0.348-0.022c1.057-0.025,1.561,0.562,1.764,0.912
			c0.32,0.547,0.501,1.408-0.478,2.375c-0.265,0.395-0.515,0.736-0.785,1.057c-0.709,0.84-1.428,1.668-2.148,2.494
			c-1.46,1.684-2.975,3.423-4.327,5.209c-4.203,5.54-8.322,10.949-12.518,16.215c-4.968,6.229-10.451,11.867-16.291,16.76"/>
	</g>
	<g>
		<path fill-rule="evenodd" clip-rule="evenodd" fill="#231F20" d="M145.128,24.872c-2.821,1.142-4.904,3.417-7.786,4.273
			c-1.583,0.468-3.14,1.011-4.834,0.608c-1.561-0.372-2.651-1.474-3.808-2.45c-1.121-0.943-2.158-1.979-3.225-2.984
			c-0.404-0.381-0.848-0.663-1.404-0.759c-0.497-0.083-0.879,0.136-0.961,0.568c-0.307,1.593-1.38,2.735-2.395,3.824
			c-2.463,2.63-4.492,5.633-7.051,8.156c-1.217,1.206-2.356,2.543-3.896,3.433c-0.838,0.487-1.538,1.229-2.265,1.892
			c-2.078,1.913-4.421,3.421-7.008,4.54c-1.184,0.513-2.457,0.57-3.654,0.266c-0.596-0.152-0.472-1.057-0.604-1.642
			c-0.051-0.22,0.217-0.481-0.027-0.71c-0.698-0.66-0.065-0.838,0.385-0.836c0.938,0.007,1.544-0.51,2.142-1.094
			c3.024-2.949,5.459-6.387,8.106-9.65c3.615-4.461,7.495-8.68,12.17-12.08c1.531-1.117,3.175-1.037,5.005-0.646
			c2.373,0.513,4.025,1.966,5.604,3.573c2.978,3.021,6.533,3.58,10.48,2.659c1.487-0.35,2.971-0.716,4.451-1.072
			C144.714,24.704,144.867,24.651,145.128,24.872z"/>
		<path fill="#231F20" d="M98.474,47.786c-0.651,0.016-1.316-0.061-1.967-0.227c-1.37-0.352-1.498-1.73-1.556-2.318
			c-0.012-0.119-0.018-0.24-0.04-0.344c-0.042-0.176-0.047-0.34-0.036-0.482c-0.462-0.677-0.356-1.27-0.231-1.595
			c0.268-0.695,0.95-1.107,1.873-1.13c0.412-0.053,0.715-0.167,1.268-0.707c2.164-2.109,4.079-4.553,5.928-6.916
			c0.684-0.875,1.374-1.753,2.076-2.619c3.021-3.729,7.168-8.5,12.422-12.322c1.038-0.754,2.186-1.136,3.514-1.168
			c0.748-0.018,1.571,0.074,2.581,0.291c2.816,0.608,4.727,2.357,6.293,3.951c1.819,1.846,3.941,2.715,6.495,2.652l0,0
			c0.84-0.021,1.746-0.143,2.703-0.365c0.931-0.219,1.862-0.443,2.795-0.67l1.651-0.399c0.093-0.023,0.261-0.066,0.474-0.071
			c0.47-0.01,0.907,0.154,1.298,0.492l1.698,1.457l-2.076,0.84c-1.15,0.464-2.188,1.156-3.283,1.887
			c-1.398,0.937-2.852,1.904-4.621,2.428l-0.359,0.108c-1.616,0.485-3.457,0.931-5.178,0.521c-1.67-0.398-2.863-1.431-3.917-2.342
			l-0.456-0.393c-0.864-0.73-1.682-1.51-2.473-2.266l-0.807-0.768c-0.099-0.096-0.191-0.168-0.271-0.224
			c-0.511,1.599-1.582,2.749-2.548,3.778c-1.075,1.151-2.089,2.398-3.063,3.602c-1.26,1.553-2.562,3.158-4.037,4.611
			c-0.236,0.235-0.471,0.476-0.705,0.717c-1.017,1.042-2.071,2.12-3.463,2.925c-0.529,0.307-1.03,0.781-1.561,1.284l-0.469,0.434
			c-2.168,1.992-4.654,3.604-7.389,4.786C100.231,47.575,99.364,47.764,98.474,47.786z M97.67,45.016
			c0.787,0.115,1.574,0.016,2.28-0.293c2.461-1.061,4.689-2.505,6.635-4.291l0.434-0.409c0.624-0.589,1.266-1.194,2.071-1.66
			c1.069-0.619,1.948-1.519,2.876-2.471c0.246-0.253,0.492-0.505,0.74-0.753c1.367-1.349,2.569-2.825,3.838-4.389
			c1.008-1.24,2.05-2.523,3.176-3.729c0.944-1.012,1.821-1.951,2.052-3.15c0.216-1.129,1.232-1.87,2.524-1.656
			c0.771,0.135,1.462,0.497,2.114,1.113l0.819,0.778c0.797,0.761,1.551,1.479,2.35,2.155l0.482,0.416
			c0.935,0.808,1.74,1.506,2.764,1.751c1.122,0.263,2.406-0.073,3.763-0.481l0.366-0.109c0.271-0.082,0.543-0.18,0.807-0.291
			c-0.203,0.015-0.403,0.024-0.603,0.029l0,0c-3.302,0.078-6.159-1.087-8.501-3.467c-1.354-1.371-2.846-2.748-4.925-3.197
			c-1.951-0.418-2.938-0.299-3.919,0.416c-4.999,3.637-8.989,8.236-11.914,11.835c-0.689,0.854-1.365,1.72-2.043,2.585
			c-1.906,2.432-3.874,4.947-6.17,7.184c-0.531,0.521-1.159,1.072-2.017,1.33c-0.012,0.101-0.026,0.203-0.052,0.312
			c0.02,0.131,0.033,0.268,0.047,0.408C97.665,44.995,97.665,45.004,97.67,45.016z"/>
	</g>
	<path fill-rule="evenodd" clip-rule="evenodd" fill="#231F20" d="M90.849,97.686c-2.214-1.215-4.003-1.917-5.266-3.418
		c-0.719-0.852-1.407-1.722-2.136-2.563c-0.263-0.306-0.224-0.7-0.278-1.017c-0.217-1.227-0.877-2.301-1.113-3.504
		c-0.112-0.568-0.223-1.25,0.059-1.734c0.492-0.85,0.273-1.726,0.319-2.58c0.041-0.788,0.179-1.512,0.388-2.274
		c0.195-0.69,0.479-1.343,0.68-2.026c0.246-0.827,0.758-1.504,1.236-2.221c0.402-0.607,0.466-1.459,0.61-2.217
		c0.05-0.258,0.03-0.564,0.229-0.713c0.956-0.713,1.218-1.84,1.745-2.809c0.323-0.598,0.647-1.185,1.312-1.475
		c0.212-0.092,0.4-0.284,0.339-0.475c-0.335-0.959,0.231-1.598,0.823-2.137c0.678-0.615,0.874-1.562,1.568-2.114
		c1.147-0.908,1.789-2.198,2.65-3.318c1.158-1.501,2.39-2.879,4.392-3.247c0.805-0.148,0.791-0.954,1.041-1.513
		c0.093-0.204-0.259-0.593,0.025-0.784c0.537-0.36,0.778-1.094,1.475-1.219c0.508-0.092,0.835-0.447,0.959-0.824
		c0.294-0.859,0.982-1.14,1.7-1.445c0.628-0.268,0.978-0.892,1.646-1.166c0.994-0.412,1.877-1.098,3.042-0.975
		c0.627,0.066,1.186-0.266,1.793-0.368c1.167-0.199,2.325-0.58,3.515-0.43c1.292,0.162,2.662-0.279,3.858,0.237
		c0.998,0.432,2.068,0.381,3.058,0.777c0.792,0.316,1.547,0.736,2.355,0.98c0.983,0.303,1.641,1.072,2.51,1.529
		c0.57,0.301,1.088,1.52,0.92,2.143c-0.172,0.635,0.095,1.227,0.106,1.844c0.017,0.648-0.029,1.23-0.446,1.75
		c-0.313,0.393-0.423,0.764-0.359,1.334c0.085,0.762-0.424,1.539-0.943,2.053c-0.471,0.471-0.832,1.013-1.13,1.537
		c-0.376,0.669-0.797,1.326-1.14,2.025c-0.529,1.083-1.349,1.971-2.354,2.617c-0.53,0.337-0.503,0.915-0.836,1.335
		c-0.479,0.608-0.935,1.177-1.553,1.684c-0.915,0.746-1.756,1.587-2.737,2.253c-0.953,0.639-1.922,1.248-2.854,1.906
		c-0.986,0.695-2.071,1.344-3.2,1.547c-1.424,0.256-2.836,0.684-4.379,0.445c-1.334-0.209-2.438-0.771-3.57-1.383
		c-1.016-0.549-2.084-0.334-2.834,0.582c-0.83,1.016-1.761,1.96-2.487,3.045c-0.933,1.391-2.076,2.691-2.643,4.269
		c-0.408,1.122-0.602,2.388-0.066,3.593c0.323,0.729,0.413,1.539,0.923,2.207c0.379,0.496,0.984,0.822,1.102,1.551
		c0.04,0.262,0.492,0.373,0.809,0.352c2.49-0.166,4.901-0.663,7.271-1.473c1.468-0.502,2.972-0.901,4.412-1.494
		c1.664-0.684,3.311-1.389,4.96-2.098c2.555-1.102,4.953-2.492,7.422-3.751c1.892-0.966,3.626-2.231,5.466-3.308
		c2.258-1.322,4.254-2.998,6.274-4.627c0.894-0.721,1.81-1.424,2.667-2.201c0.528-0.48,1.197-0.807,1.552-1.473
		c0.063-0.116,0.188-0.213,0.324-0.121c0.235,0.158,0.122,0.371,0.036,0.557c-0.757,1.664-1.36,3.396-2.328,4.969
		c-1.086,1.768-2.113,3.572-2.939,5.48c-0.124,0.285-0.234,0.59-0.599,0.66c-0.05,0.01-0.142,0.039-0.142,0.055
		c0.088,0.914-0.857,1.178-1.17,1.875c-0.69,1.558-1.352,3.135-2.44,4.503c-0.614,0.767-0.716,1.896-1.452,2.634
		c-0.799,0.795-1.407,1.729-2.58,2.199c-1.287,0.514-2.402,1.439-3.59,2.189c-1.188,0.744-2.305,1.605-3.865,1.455
		c-0.385-0.037-0.797,0.004-1.214-0.041c-0.597-0.062-0.977,0.57-1.56,0.75c-0.413,0.128-0.915,0.348-1.207,0.785
		c-0.123,0.182-0.337,0.255-0.559,0.195c-0.696-0.189-1.352,0.035-2.037,0.109c-1.988,0.21-3.996,0.451-5.986,0.379
		c-2.406-0.088-4.816-0.34-7.219-0.564C93.492,98.817,91.793,98.327,90.849,97.686z M111.348,62.608
		c0.053-0.159,0.301-0.338,0.106-0.469c-0.205-0.139-0.488-0.102-0.743,0.004c-1.692,0.688-2.997,1.934-4.214,3.192
		c-1.243,1.288-2.395,2.696-3.419,4.189c-0.073,0.108-0.196,0.211-0.057,0.325c0.061,0.047,0.21,0.051,0.282,0.01
		c0.689-0.395,1.448-0.648,2.045-1.221c1.081-1.027,2.267-1.953,3.305-3.019C109.593,64.66,110.592,63.737,111.348,62.608z"/>
	<path fill-rule="evenodd" clip-rule="evenodd" fill="#231F20" d="M195.827,46.353c0.156-0.298-0.324-0.535-0.118-0.603
		c0.36-0.119,0.879-0.191,1.163-0.012c0.572,0.363,1.047,0.242,1.612,0.066c1.426-0.451,2.831-0.079,4.237,0.187
		c1.002,0.188,2.036,0.111,3.039,0.378c1.109,0.294,2.108,0.833,3.137,1.297c0.842,0.379,1.528,1.016,2.381,1.4
		c1.288,0.583,1.592,1.689,1.136,3.062c-0.492,1.483-1.181,2.865-1.825,4.278c-0.347,0.771-1.025,1.282-1.434,2.007
		c-0.187,0.328-0.504,0.569-0.455,1.011c0.022,0.214-0.112,0.353-0.327,0.419c-0.099,0.029-0.232,0.083-0.273,0.164
		c-0.761,1.559-2.522,2.182-3.374,3.651c-0.896,1.541-2.53,2.349-3.686,3.646c-0.502,0.568-1.459,0.706-2.079,1.202
		c-1.038,0.826-2.368,1.004-3.452,1.705c-0.577,0.374-1.242,0.564-1.935,0.619c-0.907,0.07-1.771,0.312-2.646,0.55
		c-1.204,0.327-2.453,0.204-3.676,0.286c-0.321,0.024-0.65-0.035-0.975-0.02c-0.7,0.034-1.281,0.484-1.24,1.087
		c0.059,0.901-0.135,1.831,0.25,2.726c0.432,1,0.867,1.311,1.938,1.431c1.835,0.205,3.517-0.396,5.2-0.921
		c2.316-0.723,4.615-1.532,6.808-2.582c1.824-0.873,3.638-1.775,5.401-2.771c1.803-1.018,3.525-2.171,5.404-3.074
		c1.232-0.592,2.387-1.437,3.577-2.156c1.468-0.891,2.854-1.918,4.388-2.705c0.82-0.422,1.52-1.049,2.328-1.518
		c2.201-1.265,4.352-2.623,6.426-4.09c1.268-0.896,2.616-1.726,3.662-2.912c0.248-0.285,0.525-0.474,0.989-0.455
		c-0.276,1.393-0.7,2.693-1.419,3.918c-0.57,0.975-1.198,1.937-1.44,3.074c-0.053,0.254-0.276,0.406-0.483,0.547
		c-0.514,0.352-0.773,0.893-0.861,1.457c-0.162,1.035-0.604,1.848-1.367,2.578c-1.113,1.061-2.068,2.275-3.004,3.494
		c-0.188,0.245-0.387,0.547-0.301,0.836c0.283,0.965-0.265,1.468-0.968,1.91c-0.299,0.189-0.457,0.34-0.441,0.814
		c0.022,0.964-0.725,1.605-1.448,2.133c-0.232,0.173-0.438,0.208-0.416,0.564c0.025,0.555-0.51,0.82-0.769,1.225
		c-0.721,1.125-1.571,2.166-2.379,3.232c-0.132,0.174-0.34,0.289-0.582,0.266c-0.173-0.016-0.319-0.004-0.435,0.152
		c-0.88,1.17-1.914,2.161-3.281,2.749c-0.102,0.044-0.237,0.101-0.271,0.183c-0.484,1.354-1.884,1.324-2.847,1.951
		c-1.033,0.67-2.303,0.715-3.258,1.484c-0.324,0.262-0.778,0.314-1.14,0.396c-1.29,0.288-2.48,0.93-3.783,1.088
		c-1.185,0.141-2.314,0.766-3.514,0.521c-1.394-0.285-2.838,0.434-4.187-0.307c-0.366-0.199-0.809-0.072-1.207-0.104
		c-1.565-0.123-2.989-0.727-4.47-1.156c-1.286-0.373-2.54-0.807-3.753-1.371c-0.6-0.281-1.217-0.535-1.694-1.012
		c-0.388-0.391-0.933-0.145-1.377-0.436c-2.12-1.406-4.12-2.965-5.817-4.854c-1.283-1.424-2.224-3.186-2.179-5.072
		c0.038-1.71-0.356-3.381-0.171-5.077c0.028-0.267,0.158-0.481,0.332-0.649c0.355-0.338,0.672-0.66,0.428-1.21
		c-0.07-0.161,0.049-0.325,0.172-0.44c0.915-0.834,1.277-1.939,1.578-3.094c0.206-0.791,0.747-1.406,1.312-1.969
		c0.676-0.67,1.252-1.375,1.47-2.334c0.206-0.926,1.197-1.117,1.722-1.762c0.708-0.871,1.614-1.563,1.986-2.724
		c0.122-0.397,0.736-0.706,1.189-0.922c1.107-0.528,1.93-1.35,2.627-2.323c0.294-0.409,0.803-0.465,1.156-0.728
		c0.731-0.548,1.468-0.999,2.383-1.126c0.207-0.028,0.223-0.188,0.271-0.355c0.095-0.336,0.318-0.506,0.688-0.417
		c0.241,0.06,0.448-0.007,0.589-0.2c0.247-0.326,0.52-0.342,0.859-0.143c0.207,0.122,0.427,0.105,0.577-0.125
		c0.083-0.127,0.103-0.256,0.015-0.386c-0.133-0.2-0.304-0.177-0.51-0.107c-0.201,0.067-0.484,0.169-0.561-0.101
		c-0.062-0.23,0.209-0.382,0.405-0.461c0.567-0.223,1.132-0.758,1.743-0.031c0.178,0.217,0.486,0.318,0.729,0.064
		c0.247-0.252,0.52-0.227,0.83-0.209c0.41,0.022,0.838,0.055,0.66-0.644C194.693,46.063,195.087,45.989,195.827,46.353z
		 M198.91,54.288c-1.298,0.26-2.417,0.821-3.249,1.883c-0.236,0.301-0.465,0.614-0.808,0.813c-1.253,0.72-2.272,1.691-3.137,2.849
		c-0.591,0.792-1.144,1.688-1.923,2.24c-0.548,0.393-0.622,0.711-0.574,1.32c1.123-0.436,2.086-1.093,2.941-1.82
		c1.163-0.994,2.36-1.953,3.471-3.02c1.07-1.025,2.202-1.98,3.04-3.219C198.876,55.033,199.061,54.73,198.91,54.288z"/>
</g>
</svg>
