<?xml version="1.0" encoding="utf-8"?>
<!-- Generator: Adobe Illustrator 16.0.4, SVG Export Plug-In . SVG Version: 6.00 Build 0)  -->
<!DOCTYPE svg PUBLIC "-//W3C//DTD SVG 1.1//EN" "http://www.w3.org/Graphics/SVG/1.1/DTD/svg11.dtd">
<svg version="1.1" xmlns="http://www.w3.org/2000/svg" xmlns:xlink="http://www.w3.org/1999/xlink" x="0px" y="0px" width="658px"
	 height="234px" viewBox="0 0 658 234" enable-background="new 0 0 658 234" xml:space="preserve">
<g id="Layer_2">
</g>
<g id="Layer_1">
	<path d="M317.926,101.162c-0.251,0-0.525,0.012-0.822,0.027l-1.001,0.084c-2.434,0.195-4.945,0.388-7.439,0.805
		c-1.271,0.205-2.779,0.61-4.023,1.737c1.271-3.748,1.465-7.539,1.663-11.207l0.061-1.134c0.067-1.162-0.306-2.125-0.591-2.737
		c-0.305-0.677-0.615-1.354-0.877-2.062c-0.165-0.454-0.317-0.922-0.469-1.38c-0.194-0.588-0.395-1.198-0.621-1.781
		c-0.736-1.895-2.29-3.121-3.973-3.121c-0.596,0-1.19,0.157-1.741,0.478c-0.361,0.205-0.804,0.393-1.271,0.587
		c-1.193,0.505-2.687,1.128-3.828,2.575l-0.625,0.782c-1.954,2.428-3.974,4.922-5.033,8.191c-2.023,6.326-1.305,11.479,2.203,15.753
		c0.054,0.066,0.08,0.116,0.095,0.121c-0.01,0.032-0.026,0.109-0.079,0.259c-1.609,4.431-3.516,7.645-6.023,10.152
		c-0.294,0.299-0.585,0.624-0.805,0.923c-1.376,1.812-0.925,3.359-0.537,4.125c0.881,1.719,2.585,1.805,3.288,1.843
		c3.688,0.244,7.027-0.825,9.938-3.156c2.23-1.786,4.066-4.014,5.62-6.757c0.16-0.282,0.255-0.354,0.255-0.354
		c0.006-0.006,0.16-0.031,0.452-0.031c-0.009,0.025-0.009,0.053-0.013,0.075c-1.469,8.305-1.667,17.234-0.626,28.128
		c0.251,2.462,0.727,4.803,1.229,7.181c0.635,3.044,1.578,5.604,2.863,7.815c1.457,2.519,3.466,4.056,5.984,4.587
		c0.323,0.056,0.445,0.101,0.416,0.066c0.708,0.838,1.646,1.298,2.646,1.298c0.407,0,0.954-0.079,1.558-0.386
		c0.436,0.251,0.945,0.449,1.57,0.449c1.617,0,2.369-1.257,2.873-2.098c0.708-1.17,0.919-2.424,0.64-3.83
		c-0.456-2.411-0.934-4.992-1.312-7.553c-0.879-5.96-1.021-12.232-1.156-17.755c-0.157-7.328,0.563-13.947,2.19-20.221l0.41-1.535
		c0.441-1.635,0.891-3.323,1.235-5.034c0.258-1.243,0.463-3.042-0.681-4.44C320.771,101.657,319.548,101.162,317.926,101.162z"/>
	<path d="M287.153,162.432c-0.007-0.445-0.084-0.962-0.586-1.117c-0.52-0.158-0.832,0.26-1.103,0.618
		c-1.019,1.341-2.225,2.478-3.72,3.266c-1.642,0.85-2.351,0.667-3.554-0.697c-1.282-1.439-1.632-3.227-1.831-5.028
		c-0.609-5.659-0.562-11.301,0.384-16.941c0.817-4.917,1.71-9.829,1.125-14.859c-0.262-2.263-0.69-4.468-1.642-6.565
		c-0.91-1.967-2.302-3.113-4.522-3.19c-0.984-0.026-1.983-0.093-2.92-0.328c-2.597-0.657-5.178-0.971-7.85-0.453
		c-1.417,0.275-1.857-0.28-1.363-1.661c0.708-1.99,1.468-3.972,2.334-5.902c1.923-4.338,2.192-8.896,1.947-13.537
		c-0.024-0.606-0.07-1.206-0.414-1.739c-0.599-0.951-1.454-1.114-2.135-0.19c-0.584,0.802-1.279,0.909-2.135,0.96
		c-0.75,0.039-1.554,0.085-2.216,0.387c-1.361,0.624-2.738,0.792-4.187,0.508c-1.821-0.356-3.207,0.595-4.576,1.547
		c-0.655,0.452-0.844,1.054-0.261,1.727c0.436,0.495,0.642,1.038,0.294,1.656c-0.422,0.8-0.697,1.663-0.929,2.54
		c-0.076,0.301-0.238,0.585-0.604,0.582c-0.334,0-0.577-0.193-0.707-0.471c-0.292-0.606-0.546-1.22-1.018-2.263
		c-0.434,1.131-0.421,1.849-0.088,2.427c1.57,2.802,1.7,5.893,1.923,8.975c0.058,0.74,0.239,1.509,0.513,2.196
		c0.573,1.451,0.488,2.722-0.348,4.087c-1.111,1.8-2.147,3.642-3.153,5.5l-0.593-1.341c-3.284,0.307-14.333,12.196-17.639,14.906
		c-0.442,0.365-1.036,0.735-1.649,1.13c-0.396,0.258-0.791,0.509-1.187,0.776c-0.67,0.465-1.33,0.923-1.994,1.393
		c-2.063,1.457-4.021,2.823-6.058,3.86c-3.225,1.625-6.56,3.301-10.036,3.933c-0.392,0.079-0.636,0.09-0.77,0.086
		c-0.089-0.116-0.254-0.341-0.454-0.777l-0.168-0.317c-0.271-0.553-0.551-1.11-0.787-1.686c-0.355-0.88-0.806-1.637-1.196-2.257
		c0.337-0.451,0.692-0.967,0.998-1.555c1.099-2.137,1.914-4.289,2.697-6.36c0.388-1.016,0.766-2.024,1.191-3.031
		c2.163-5.232,3.261-10.184,3.352-15.136c0.086-4.412-1.25-8.348-3.952-11.7c-2.432-3.015-5.88-4.557-9.567-4.262
		c-1.898,0.153-3.721,0.553-5.452,1.211c-0.858-2.084-2.744-3.479-5.224-3.873c-2.722-0.417-5.147,0.163-7.179,1.711
		c-1.32,1.014-2.686,2.065-4.043,2.969c-1.796,1.197-3.468,2.544-5.031,4.053c-10.462,3.307-20.458,7.854-30.287,12.842
		c-4.482,2.269-9.017,4.441-14.233,7.008c0.208-2.589,0.247-4.495,0.515-6.368c1.229-8.681,2.33-17.401,3.854-26.033
		c1.415-8.046,3.252-16.026,4.998-24.01c1.763-8.082,3.619-16.147,5.449-24.217c0.257-1.117,0.558-2.276-0.716-2.929
		c-1.401-0.718-2.294,0.187-3.018,1.233c-2.972,4.305-6.231,8.414-8.44,13.248c-4.983,10.976-8.83,22.327-11.844,33.971
		c-3.266,12.638-4.968,25.54-5.664,38.578c-0.09,1.572-0.67,2.398-2.111,2.87c-2.484,0.797-4.985,1.619-7.434,2.558
		c-5.084,1.962-10.116,4.047-15.187,6.013c-7.331,2.846-14.685,5.647-22.038,8.426c-0.585,0.232-1.28,0.171-2.242,0.28
		c0.183-1.787,0.272-3.28,0.498-4.751c1.391-9.279,2.819-18.563,4.23-27.841c1.053-6.882,1.86-13.812,3.215-20.631
		c1.994-9.987,4.403-19.883,6.602-29.829c0.996-4.52,2.346-8.988,2.19-13.697c-0.094-2.194,0.265-4.229,1.913-5.747
		c-0.841-2.426-1.018-5.005-2.989-6.791c-0.137-0.127-0.162-0.372-0.208-0.569c-0.877-3.612-1.676-7.246-2.646-10.836
		c-0.585-2.118-1.2-4.288-2.242-6.196c-1.192-2.175-2.703-2.303-4.829-1.043c-1.204,0.714-2.434,1.432-3.736,1.957
		c-2.001,0.812-3.433,2.31-4.21,4.15c-0.804,1.904-1.254,4.038-1.488,6.109c-0.251,2.283-0.061,4.599-0.1,6.903
		c-0.16,7.932-1.941,15.6-3.748,23.263c-1.815,7.65-3.849,15.272-5.329,22.998c-1.855,9.703-3.39,19.479-4.819,29.266
		c-1.848,12.783-3.435,25.61-5.168,38.412c-0.404,2.998-0.449,3.196-3.458,3.618c-5.99,0.832-12.024,1.426-18.036,2.098
		c-2.019,0.226-3.913,0.146-5.854-0.882c-2.119-1.128-6.14,0.873-6.206,3.135c-0.062,2.761,0.267,5.598,0.953,8.259
		c0.404,1.54,1.835,2.812,2.831,4.183c2.659,3.669,6.485,5.483,10.778,5.971c4.195,0.475,8.455,0.323,12.695,0.47
		c1.157,0.04,2.306,0.137,3.675,0.211c-0.588,4.903-1.244,9.402-1.614,13.917c-0.452,5.367-1.661,10.789,0.482,16.091
		c0.186,0.457,0.202,0.991,0.21,1.5c0.061,4.505,1.334,8.736,2.986,12.86c0.257,0.644,1.016,1.088,1.535,1.619
		c0.583-0.601,1.499-1.115,1.666-1.813c0.482-1.852,0.673-3.774,0.909-5.681c1.646-13.142,3.621-26.188,9.312-38.374
		c0.979-2.118,2.144-3.339,4.473-3.92c8.355-2.059,16.414-4.987,24.025-9.046c8.905-4.736,17.741-9.612,26.611-14.401
		c0.993-0.543,2.056-0.936,3.453-1.558c0.144,4.093,0.111,7.621,0.388,11.125c1.051,12.968,2.178,25.921,3.349,38.884
		c0.084,0.939,0.385,2.307,1.042,2.667c2.422,1.33,2.836,3.587,3.143,5.879c0.408,3.108,2.2,5.528,3.659,8.128
		c0.068,0.099,0.387,0.065,0.877,0.143c0.23-0.65,0.636-1.352,0.703-2.089c0.257-2.604,0.501-5.23,0.556-7.847
		c0.141-6.049,0.161-12.086,0.252-18.141c0.113-7.055,0.326-14.111,0.321-21.167c-0.005-7.358-0.171-14.733-0.351-22.096
		c-0.048-1.931,0.515-3.201,2.313-4.126c3.22-1.678,6.336-3.55,9.467-5.378c3.924-2.291,7.85-4.566,11.701-6.959
		c2.988-1.859,5.726-4.165,8.84-5.777c0.626-0.327,1.25-0.665,1.873-1.004c-1.198,3.226-2.252,6.72-3.188,10.605
		c-1.29,5.328-1.856,10.286-1.711,15.178c0.172,5.882,1.955,10.529,5.444,14.179c3.21,3.368,7.041,5.102,11.373,5.144h0.193
		c4.678,0,8.229-2.1,10.803-3.939c4.533-3.249,8.396-7.064,11.518-10.465c1.535,1.406,2.997,2.626,4.471,3.745
		c5.992,4.568,12.951,5.024,19.815,1.282c3.038-1.666,5.976-3.849,8.963-6.671c1.625-1.521,3.153-3.115,4.631-4.657
		c2.369-2.465,4.609-4.799,7.12-6.787c0.549-0.446,1.092-0.897,1.763-1.456l2.956-3.677c0.705-0.521,0.897-0.985,1.163-1.445
		l0.621-0.772c0.238-0.209,0.554-0.424,1.004-0.649c1.071-0.554,1.288-1.812,1.827-2.871l1.233-1.532V132.5
		c2.026-1.933,5.489-3.81,6.551-5.752c1.237-2.241,1.754-2.456,4.183-1.934c0.293,0.067,0.59,0.133,0.883,0.191
		c1.695,0.41,1.832,0.549,1.64,2.316c-0.289,2.556-0.684,5.091-0.96,7.637c-0.761,6.954-0.783,13.89,1.023,20.715
		c1.987,7.52,6.698,12.522,14.126,14.926c0.797,0.254,1.62,0.48,2.451,0.327c0.932-0.175,1.797,0.05,2.679,0.286
		c2.239,0.577,4.188-0.038,5.823-1.61c0.658-0.628,1.354-1.177,2.151-1.644c1.406-0.854,1.54-1.639,0.386-2.905
		C287.615,164.271,287.177,163.475,287.153,162.432z M196.38,119.953c-0.429,1.863-1.383,3.725-2.386,5.69
		c-0.359,0.684-0.709,1.37-1.051,2.071c-3.385,7.007-8.585,13.347-16.343,19.955c-1.598,1.349-3.217,2.19-4.962,2.572
		c-0.213,0.046-0.371,0.067-0.524,0.071c-0.054-0.115-0.125-0.287-0.199-0.533c-0.705-2.346-0.859-4.761-0.447-7.183
		c0.868-5.116,1.935-10.448,4.452-15.146l7.986-3.915c1.992-0.985,3.258-2.425,4.178-3.494c0.202-0.223,0.393-0.443,0.582-0.649
		c2.503-2.65,4.478-4.192,6.623-5.163c0.958-0.438,1.474-0.482,1.66-0.521c0,0,0.397,0.333,0.778,1.634
		c0.106,0.353,0.148,0.668,0.13,0.992C196.787,117.683,196.637,118.861,196.38,119.953z"/>
	<path d="M352.725,110.393c-0.361-1.234-0.802-2.231-1.18-3.04c-0.498-1.073-1.15-1.761-1.62-2.272
		c-0.141-0.151-0.292-0.296-0.423-0.47c-1.826-2.38-3.798-2.876-5.137-2.876c-1.037,0-2.053,0.292-3.001,0.856
		c-3.977,2.373-4.886,8.126-4.052,12.462c0.586,3.101,0.699,5.695,0.327,7.951c-0.67,4.126-1.074,8.029-1.234,11.938
		c-0.16,3.771-0.102,7.549-0.027,11.396c0.014,1.006,0.053,2.088,0.344,3.274c0.266,1.089,0.332,1.975,0.204,2.713
		c-0.165,0.964-0.091,1.933,0.232,3.053c0.352,1.192,0.679,2.347,0.847,3.453c0.202,1.401,0.478,2.881,1.396,4.302
		c0,0.014,0,0.029,0,0.044c-0.147,1.983,0.356,3.794,0.936,5.491c0.671,1.882,2.139,3.181,3.837,3.444
		c0.914,0.734,1.915,0.808,2.308,0.808c0.404,0,0.82-0.062,1.211-0.186c1.611-0.505,2.675-1.854,2.86-3.597
		c0.105-1.007,0.395-1.944,0.725-3.025c0.139-0.432,0.269-0.869,0.406-1.332c0.077-0.307,0.162-0.609,0.254-0.908
		c0.283-0.977,0.608-2.086,0.78-3.35c0.482-3.769,0.753-7.285,0.843-10.752c0.03-1.402,0.104-2.788,0.164-4.181
		c0.062-1.179,0.119-2.344,0.155-3.523l0.024-0.808c0.064-2.046,0.132-4.176,0.083-6.345c-0.117-4.754-0.186-9.027,0.208-13.135
		c0.144-1.46,0.241-3.033,0.024-4.731C353.957,115.023,353.573,112.66,352.725,110.393z"/>
	<path d="M481.62,68.792c7.047-1.778,13.605-5.031,20.603-6.991c4.418-1.232,8.913-2.396,13.074-4.37
		c3.312-1.569,7.155-1.733,10.153-4.092c1.01-0.778,2.792-0.308,3.162-2.328c0.135-0.664,2.167-0.084,3.484-1.13
		c-1.029-1.227-2.271-1.462-3.514-1.597c-2.051-0.222-4.123-0.279-6.198-0.139c-13.581,0.872-26.964,3.181-40.341,5.621
		c-2.702,0.501-2.749,0.517-2.789-2.15c-0.187-11.965-0.071-23.934,1.079-35.858c0.275-2.981,0.754-5.939,0.592-8.945
		c-0.049-0.937,0.013-1.905-0.972-2.402c-1.045-0.529-2.001-0.169-2.858,0.553c-2.242,1.864-3.932,4.139-5.176,6.793
		c-3.665,7.796-5.484,16.101-6.888,24.515c-0.936,5.683-1.611,11.398-1.997,17.15c-0.105,1.789-0.792,2.608-2.729,2.703
		c-2.979,0.117-5.966,0.408-8.931,0.9c-6.923,1.157-13.819,2.438-20.824,3.118c-8.903,0.869-17.728,2.883-26.774,1.731
		c-1.381-0.168-2.693,0.561-2.751,2.018c-0.077,1.997-1.072,3.685-1.374,5.607c-0.875,5.544,2.716,9.403,7.401,8.945
		c1.268-0.116,2.555-0.205,3.771-0.505c2.815-0.701,5.684-0.913,8.557-0.924c10.019-0.048,20.028-0.56,29.957-1.941
		c3.75-0.508,7.511-1.109,11.256-1.747c1.54-0.267,2.458,0,2.458,1.785c0.012,1.15,0.179,2.286,0.257,3.44
		c0.477,6.304,0.889,12.621,1.438,18.933c1.291,14.769,3.88,29.44,3.266,44.366c-0.107,2.78,1.053,5.299,2.579,7.669
		c1.427,2.21,2.707,4.487,3.018,7.224c0.21,1.809,0.839,3.571,1.334,5.35c0.146,0.579,0.516,1.095,1.213,0.921
		c0.478-0.113,0.739-0.55,0.797-1.025c0.249-2.521,0.604-5.037,0.696-7.565c0.402-10.798,0.725-21.617,1.621-32.395
		c0.716-8.713,1.732-17.402,1.765-26.156c0.014-8.056-0.277-16.108-0.853-24.146C480.083,70.407,479.861,69.241,481.62,68.792z"/>
	<path d="M623.256,68.696c-18.37,1.7-36.738,3.365-55.012,5.831c-3.527,0.472-3.871,0.187-3.903-3.562
		c-0.067-7.667,0.135-15.34,0.565-23.002c0.296-5.188,1.411-10.354-0.163-15.591c-1.343-4.415-3.713-5.188-7.486-3.465
		c-2.606,1.201-5.184,2.458-7.828,3.588c-1.661,0.719-3.409,1.145-5.23,0.49c-2.287-0.835-4.221-0.386-5.756,1.587
		c-0.508,0.66-1.164,1.218-1.839,1.702c-2.22,1.624-2.967,3.54-1.847,6.227c1.693,4.035,2.146,8.276,1.829,12.666
		c-0.416,5.496-0.519,11.014-0.852,16.513c-0.319,5.418-1.075,6.123-6.312,6.749c-4.28,0.519-8.544,1.242-12.828,1.705
		c-4.273,0.475-8.518,1.539-12.859,1.08c-3.009-0.325-5.966,0.05-8.945,0.14c-1.347,0.045-2.589,0.449-3.684,1.272
		c-2.038,1.533-2.825,5.658-1.5,7.867c1.325,2.169,3.342,2.685,6.257,1.423c1.791-0.773,3.64-1.241,5.557-1.384
		c9.913-0.729,19.83-1.413,29.759-2.09c3.5-0.233,4.306,0.402,4.268,3.999c-0.086,9.241,0.805,18.417,1.767,27.582
		c0.466,4.289,1.045,8.574,1.899,12.794c2.087,10.228,5.95,19.939,9.206,29.818c0.708,2.135,1.679,4.122,3.632,5.638
		c1.458,1.115,2.562,2.881,3.003,4.805c0.47,2.042,1.925,2.594,3.735,2.632c2.272,0.043,4.18-0.817,5.782-2.424
		c2.571-2.585,3.282-5.86,3.082-9.269c-0.737-12.922-0.789-25.861-1.899-38.759c-0.969-11.24-0.993-22.5-1.148-33.752
		c-0.034-2.182,0.945-3.361,2.793-4.063c0.781-0.302,1.585-0.585,2.413-0.664c5.829-0.645,11.655-1.487,17.498-1.772
		c8.979-0.449,17.892-1.633,26.822-2.442c8.792-0.8,17.555-2.12,26.257-3.8c4.426-0.849,9.027-1.053,13.461-1.849L623.256,68.696z"
		/>
	<path d="M442.817,141.047c-0.673-0.38-1.42-0.583-2.156-0.583c-1.646,0-2.95,0.835-4.191,2.736
		c-1.059,1.362-2.032,2.557-3.184,3.437c-1.143,0.869-2.051,1.771-2.766,2.751c-1.206,1.648-2.861,3.045-5.114,4.301
		c-0.539,0.284-1.546,0.824-2.252,2.002l-0.106,0.181l-0.149,0.142c-0.236,0.226-0.614,0.484-1.203,0.878l-0.254,0.161
		c-1.174,0.773-2.275,1.595-3.485,2.506c-2.335,1.778-4.801,3.395-7.329,4.796c-3.795,2.104-6.999,3.449-10.072,4.236
		c-1.076,0.282-2.092,0.425-3.028,0.425c-2.953,0-5.069-1.396-6.465-4.266c-0.958-1.963-2.003-6.12-1.854-8.149
		c0.25-3.885,0.944-6.991,1.677-10.273l0.124-0.583c0.441-2.023,0.894-4.115,1.272-6.507c0.632-3.863,2.18-7.423,4.741-10.883
		c0.762-1.022,1.45-1.761,2.17-2.32l0.513-0.401l0.646,0.095c1.446,0.212,2.736,0.314,3.938,0.314c1.232,0,2.357-0.112,3.375-0.339
		l0.357-0.074c0.925-0.171,3.088-0.571,4.405-2.57l0.115-0.173l0.152-0.138c0.779-0.677,1.28-1.55,1.454-2.543
		c0.139-0.764,0.172-2.28-1.226-3.9c-0.367-0.487-1.128-1.491-2.56-1.967l-0.236-0.078l-0.206-0.151
		c-0.097-0.076-0.501-0.407-0.501-0.407c-0.25-0.193-0.508-0.394-0.813-0.598c-1.345-0.927-2.792-1.413-4.182-1.413
		c-0.634,0-1.244,0.102-1.82,0.301l-0.572,0.2l-0.557-0.247c-0.125-0.058-0.25-0.129-0.368-0.204
		c-0.541-0.344-1.052-0.562-1.354-0.691l-0.327-0.145c-1.959-1.026-3.313-1.784-4.222-2.919c-0.149-0.18-0.235-0.314-0.291-0.404
		l-0.22-0.295l-0.022-0.469c-0.016-0.292,0.052-0.633,0.189-0.994c0.088-0.271,0.234-0.659,0.431-0.975
		c1.412-2.303,3.538-3.674,6.553-4.195c0.349-0.047,0.682-0.075,0.984-0.075c1.119,0,2.569,0.289,3.861,2.592
		c0.128,0.235,0.234,0.478,0.342,0.731l0.433,0.963c0.748,1.649,1.954,2.657,3.57,2.999l3.806,0.794l0.641-3.825
		c0.411-2.485,0.196-4.728-0.635-6.674c-0.937-2.215-2.412-4.145-4.264-5.567c-0.415-0.315-0.83-0.62-1.25-0.924l-0.304-0.218
		c-0.288-0.206-0.583-0.414-0.865-0.636c-2.652-2.058-5.667-3.057-9.215-3.057c-0.361,0-0.718,0.01-1.085,0.033
		c-2.653,0.146-4.942,1.01-6.639,1.743c-3.717,1.611-6.741,3.675-9.244,6.3c-5.653,5.958-6.105,13.696-1.153,19.714
		c1.233,1.484,2.593,2.826,4.043,3.978l1.274,1.009l-1.082,1.204c-3.949,4.389-6.769,8.791-8.621,13.457l-0.038,0.091l-0.046,0.082
		c-1.812,3.276-2.981,6.854-3.58,10.946c-0.652,4.416-0.612,9.013-0.521,12.97c0.208,8.635,5.517,16.7,14.943,22.719
		c2.652,1.688,5.663,2.692,8.962,2.985c0.868,0.082,1.786,0.125,2.721,0.125c4.083,0,8.271-0.794,12.793-2.426
		c3.532-1.275,6.816-2.958,9.765-5c4.278-2.938,8.374-5.95,11.417-10.477c0.427-0.646,0.902-1.268,1.379-1.884l0.16-0.213
		c1.291-1.69,2.753-3.608,3.719-6.061l0.092-0.223l0.153-0.187c0.775-0.931,1.384-1.949,1.778-2.953
		c0.223-0.559,0.483-1.091,0.748-1.615l0.097-0.207c0.453-0.933,0.965-1.997,1.323-3.202l0.074-0.255l0.158-0.211
		c0.58-0.79,1.032-1.703,1.392-2.786l0.055-0.165l0.091-0.151c0.474-0.773,1.06-1.987,0.663-3.535
		C444.482,142.492,443.796,141.6,442.817,141.047z"/>
	<path d="M625.69,175.932c-1.34-1.019-2.791-1.874-4.397-2.396c-1.418-0.469-2.957-0.476-4.241,0.234
		c-0.966,0.543-1.961,0.695-2.974,0.959c-1.32,0.344-2.689,0.591-3.674,1.69c-1.31,1.486-2.713,2.889-3.912,4.471
		c-1.502,1.973-2.53,4.164-3.05,6.584c-0.105,0.648-0.158,1.292-0.208,1.933c-0.069,0.906,0.111,1.658,0.938,2.163
		c0.271,0.156,0.42,0.452,0.551,0.727c0.222,0.455,0.569,0.796,0.931,1.142c1.321,1.245,2.996,1.822,4.656,2.329
		c2.609,0.791,5.048,0.374,7.194-1.388c0.359-0.288,0.738-0.529,1.149-0.718c3.934-1.823,6.489-4.967,8.384-8.735
		c0.143-0.267,0.206-0.583,0.26-0.877c0.152-0.893,0.329-1.791,0.414-2.708C627.902,179.221,627.51,177.292,625.69,175.932z"/>
	<path fill="#010101" d="M372.46,49.273c-0.587-0.775-1.531-1.221-2.595-1.221c-0.126,0-0.255,0.003-0.413,0.022
		c-0.266,0.019-0.536,0.074-0.811,0.145c-1.543,0.408-3.132,0.927-5.158,1.694c-2.503,0.959-4.729,2.249-6.783,3.487
		c-4.662,2.789-8.66,5.759-12.213,9.082c-2.002,1.87-3.828,3.811-5.428,5.758c-0.404,0.497-0.775,1.016-1.14,1.537
		c-0.341,0.486-0.664,0.942-0.995,1.331c-1.464,1.688-1.352,3.332-1.009,4.374c0.03,0.106,0.051,0.21,0.074,0.319
		c0.089,0.445,0.208,1.063,0.598,1.739c0.523,0.925,0.842,1.517,0.855,2.133l-0.034,0.332l0.164,0.414
		c0.051,0.174,0.183,0.586,0.491,1c0.073,0.098,0.176,0.418,0.265,0.674l0.144,0.418c0.347,0.967,0.978,1.812,1.86,2.495
		c0.705,0.558,1.494,0.843,2.346,0.843c0.894,0,1.722-0.312,2.442-0.924c0.551-0.456,0.89-0.947,1.137-1.298l0.137-0.197
		c0.351-0.463,0.688-0.772,1.016-0.934c0.722-0.341,1.371-0.816,2.022-1.472l0.351-0.374c1.055-1.095,2.097-2.185,3.132-3.299
		c2.512-2.7,4.318-4.894,5.882-7.144c0.56-0.812,1.256-1.822,1.46-3.219c0.009-0.053,0.073-0.236,0.473-0.687
		c0.681-0.765,1.393-1.505,2.109-2.226l0.839-0.843c1.002-0.999,2.004-2.003,3.106-3.05c0.603-0.568,1.17-1.105,1.749-1.45
		c1.038-0.627,1.63-1.422,2.04-2.061c0.478-0.754,0.598-1.441,0.545-2.017c0.149-0.226,0.299-0.455,0.484-0.71
		c0.353-0.452,0.551-0.886,0.654-1.29C373.331,51.46,373.07,50.121,372.46,49.273z"/>
</g>
</svg>
