<?xml version="1.0" encoding="utf-8"?>
<!-- Generator: Adobe Illustrator 16.0.4, SVG Export Plug-In . SVG Version: 6.00 Build 0)  -->
<!DOCTYPE svg PUBLIC "-//W3C//DTD SVG 1.1//EN" "http://www.w3.org/Graphics/SVG/1.1/DTD/svg11.dtd">
<svg version="1.1" xmlns="http://www.w3.org/2000/svg" xmlns:xlink="http://www.w3.org/1999/xlink" x="0px" y="0px" width="148px"
	 height="17px" viewBox="0 0 148 17" enable-background="new 0 0 148 17" xml:space="preserve">
<g id="Layer_2">
</g>
<g id="Layer_1">
	<g>
		<path fill="#221F1F" d="M4.409,15.105H1.135V1.609h3.274v5.524H8.84V1.609h3.279v13.496H8.84V9.784H4.409V15.105z"/>
		<path fill="#221F1F" d="M21.812,9.461c0,1.014,0.142,1.639,0.465,2.105c0.344,0.465,0.97,0.769,1.658,0.769
			c0.751,0,1.457-0.365,1.764-0.892c0.238-0.444,0.342-1.012,0.342-1.982V1.609h3.277v7.709c0,1.984-0.465,3.481-1.397,4.491
			c-0.911,0.994-2.347,1.559-3.963,1.559c-1.681,0-3.2-0.609-4.167-1.679c-0.871-0.973-1.258-2.267-1.258-4.371V1.609h3.279V9.461z"
			/>
		<path fill="#221F1F" d="M39.01,15.105H35.73V1.609h3.822l3.582,7.265l3.541-7.265h3.844v13.496h-3.275V7.397l-4.109,8.252
			L39.01,7.397V15.105z"/>
		<path fill="#221F1F" d="M59.95,13.165l-0.587,1.94h-3.501l4.449-13.496h4.171l4.429,13.496h-3.601l-0.587-1.94H59.95z
			 M62.338,5.475l-1.578,5.038h3.154L62.338,5.475z"/>
		<path fill="#221F1F" d="M77.512,15.105h-3.279V1.609h3.279l4.916,7.59v-7.59h3.276v13.496h-3.276l-4.916-7.688V15.105z"/>
		<path fill="#221F1F" d="M105.713,15.105h-3.275V1.609h3.275l4.917,7.59v-7.59h3.275v13.496h-3.275l-4.917-7.688V15.105z"/>
		<path fill="#221F1F" d="M126.693,15.105h-3.275V9.157l-4.433-7.548h3.903l2.188,4.147l2.142-4.147h3.849l-4.373,7.548V15.105z"/>
		<path fill="#221F1F" d="M146.703,13.447c-1.618,1.377-3.056,1.922-5.058,1.922c-2.063,0-3.7-0.669-4.936-2.044
			c-1.153-1.274-1.822-3.076-1.822-4.936c0-2.184,0.892-4.229,2.39-5.523c1.19-1.011,2.648-1.517,4.47-1.517
			c1.133,0,2.246,0.242,3.196,0.667c0.688,0.325,1.111,0.626,1.922,1.375l-2.104,2.204c-0.95-0.829-1.86-1.211-2.895-1.211
			c-2.163,0-3.66,1.598-3.66,3.904c0,2.387,1.597,4.047,3.864,4.047c1.151,0,1.981-0.365,2.69-1.156L146.703,13.447z"/>
	</g>
</g>
</svg>
