<?xml version="1.0" standalone="no"?>
<!DOCTYPE svg PUBLIC "-//W3C//DTD SVG 20010904//EN"
 "http://www.w3.org/TR/2001/REC-SVG-20010904/DTD/svg10.dtd">
<svg version="1.0" xmlns="http://www.w3.org/2000/svg"
 width="5378.000000pt" height="1440.000000pt" viewBox="0 0 5378.000000 1440.000000"
 preserveAspectRatio="xMidYMid meet">
<metadata>
Created by potrace 1.13, written by Peter Selinger 2001-2015
</metadata>
<g transform="translate(0.000000,1440.000000) scale(0.100000,-0.100000)"
fill="#000000" stroke="none">
<path d="M48790 9264 c-657 -46 -1147 -282 -1527 -736 -457 -548 -636 -1351
-467 -2106 128 -575 469 -1085 922 -1376 363 -235 844 -345 1369 -316 454 26
790 137 1156 380 134 89 298 216 304 236 2 5 -45 66 -103 135 -163 189 -477
558 -496 582 -16 21 -17 21 -84 -42 -232 -218 -474 -311 -804 -311 -203 0
-380 37 -544 114 -447 209 -706 646 -706 1189 0 78 7 185 15 237 95 626 552
1030 1166 1030 305 0 579 -106 863 -335 39 -30 73 -54 76 -53 4 2 159 162 345
357 l339 354 -45 40 c-414 366 -784 543 -1257 603 -116 14 -423 25 -522 18z"/>
<path d="M3470 6995 l0 -2185 525 0 525 0 2 863 3 862 715 0 715 0 3 -862 2
-863 525 0 525 0 0 2185 0 2185 -525 0 -525 0 -2 -892 -3 -893 -715 0 -715 0
-3 893 -2 892 -525 0 -525 0 0 -2185z"/>
<path d="M9093 7753 c4 -1538 3 -1499 57 -1770 115 -568 472 -965 1036 -1153
224 -74 404 -102 659 -102 472 0 877 137 1182 401 232 200 405 514 486 881 62
281 60 223 64 1763 l4 1407 -531 0 -530 0 0 -1337 c0 -1405 -2 -1491 -45
-1658 -31 -124 -66 -194 -132 -265 -216 -234 -613 -279 -883 -101 -128 85
-196 173 -245 322 -61 183 -58 105 -62 1637 l-4 1402 -530 0 -530 0 4 -1427z"/>
<path d="M14660 6995 l0 -2185 530 0 530 0 1 1243 1 1242 661 -1328 c364 -730
665 -1326 669 -1325 7 3 253 496 1104 2215 115 232 212 422 217 422 4 1 7
-555 7 -1234 l0 -1235 530 0 530 0 0 2185 0 2185 -623 0 -623 0 -570 -1169
c-313 -643 -572 -1167 -575 -1166 -3 2 -264 528 -579 1169 l-575 1166 -617 0
-618 0 0 -2185z"/>
<path d="M22600 9158 c-16 -36 -1430 -4326 -1430 -4338 0 -7 171 -9 567 -8
l566 3 84 275 c46 151 88 292 93 313 l11 37 771 -2 772 -3 17 -55 c9 -30 51
-171 94 -312 l78 -258 584 0 c320 0 583 3 583 6 0 4 -285 876 -634 1938 -349
1062 -671 2042 -716 2179 l-81 247 -675 0 -674 0 -10 -22z m919 -2058 l249
-795 -501 -3 c-275 -1 -502 0 -504 2 -3 2 93 316 212 698 267 854 287 915 291
903 2 -5 116 -368 253 -805z"/>
<path d="M27110 6995 l0 -2185 530 0 530 0 0 1235 c0 679 3 1235 8 1235 6 -1
603 -931 1400 -2182 l184 -288 529 0 529 0 0 2185 0 2185 -530 0 -530 0 -2
-1219 -3 -1218 -790 1218 -790 1219 -532 0 -533 0 0 -2185z"/>
<path d="M36240 6995 l0 -2185 530 0 530 0 2 1237 3 1237 706 -1105 c389 -607
744 -1164 790 -1236 l84 -133 532 0 533 0 0 2185 0 2185 -530 0 -530 0 0
-1216 c0 -755 -4 -1214 -9 -1212 -6 2 -363 548 -794 1213 l-785 1210 -531 3
-531 2 0 -2185z"/>
<path d="M41593 9173 c24 -43 424 -724 874 -1490 l553 -943 0 -965 0 -965 530
0 530 0 0 958 0 957 701 1210 c385 666 705 1218 710 1228 9 16 -23 17 -614 17
l-624 0 -344 -665 c-189 -366 -346 -665 -349 -665 -3 0 -162 300 -355 665
l-349 665 -634 0 c-348 0 -631 -3 -629 -7z"/>
</g>
</svg>
