<?xml version="1.0" encoding="utf-8"?>
<!-- Generator: Adobe Illustrator 16.0.4, SVG Export Plug-In . SVG Version: 6.00 Build 0)  -->
<!DOCTYPE svg PUBLIC "-//W3C//DTD SVG 1.1//EN" "http://www.w3.org/Graphics/SVG/1.1/DTD/svg11.dtd">
<svg version="1.1" xmlns="http://www.w3.org/2000/svg" xmlns:xlink="http://www.w3.org/1999/xlink" x="0px" y="0px" width="45px"
	 height="26px" viewBox="0 0 45 26" enable-background="new 0 0 45 26" xml:space="preserve">
<g id="Layer_2">
</g>
<g id="Layer_1">
	<g>
		<g>
			<path fill-rule="evenodd" clip-rule="evenodd" d="M39.122,7.101c0.92-0.066,2.316-0.066,3.682-0.364
				c0.09-0.02,0.184-0.037,0.275-0.03c0.207,0.011,0.445-0.039,0.58,0.188c0.137,0.229,0.02,0.449-0.068,0.658
				c-0.035,0.08-0.117,0.141-0.174,0.212c-0.729,0.904-1.467,1.801-2.186,2.713c-0.113,0.146-0.244,0.221-0.402,0.277
				c-0.359,0.121-0.646,0.325-0.818,0.68c-0.293,0.593-0.938,0.591-1.434,0.671c-1.221,0.19-2.469,0.348-3.656-0.227
				c-0.014-0.006-0.029-0.012-0.045-0.012c-1.148,0.011-2.145-0.573-3.215-0.862c-0.422-0.115-0.816-0.336-1.221-0.518
				c-0.322-0.142-0.514-0.128-0.752,0.223c-0.32,0.482-0.682,0.983-1.291,1.176c-0.234,0.076-0.371,0.265-0.451,0.487
				c-0.17,0.471-0.512,0.683-0.982,0.857c-1.707,0.636-3.455,0.568-5.191,0.287c-0.812-0.131-1.58-0.515-2.369-0.787
				c-1.389-0.485-2.607-1.31-3.914-1.962c-0.307-0.152-0.461-0.121-0.441,0.265c0.006,0.138,0.066,0.353-0.141,0.384
				c-0.23,0.037-0.203-0.218-0.275-0.355c-0.053-0.098-0.02-0.289-0.197-0.251c-0.125,0.026-0.105,0.186-0.092,0.28
				c0.074,0.398-0.326,0.53-0.439,0.816c-0.344,0.869-1.264,1.235-1.729,1.998c-0.1,0.162-0.193,0.079-0.248-0.073
				c-0.129-0.354-0.318-0.254-0.506-0.051c-0.131,0.146-0.299,0.288-0.359,0.465c-0.143,0.408-0.283,0.314-0.461,0.042
				c-0.047-0.073-0.059-0.196-0.172-0.193c-0.152,0.001-0.121,0.15-0.16,0.242c-0.023,0.055-0.041,0.115-0.051,0.173
				c-0.064,0.405-0.133,0.759-0.646,0.343c-0.123-0.1-0.348-0.145-0.516,0.013C8.78,15.128,8.692,14.929,8.63,14.69
				c-0.035-0.132-0.029-0.304-0.217-0.301c-0.17,0.003-0.137,0.169-0.176,0.278c-0.135,0.368-0.361,0.608-0.789,0.54
				c-0.844-0.132-1.732,0.064-2.537-0.365c-0.127-0.067-0.301-0.057-0.453-0.06c-0.293-0.005-0.539-0.078-0.697-0.354
				c-0.281-0.495-0.893-0.402-1.291-0.709c-0.18-0.139-0.377-0.229-0.494-0.446c-0.1-0.187-0.27-0.313-0.463-0.427
				c-0.213-0.123-0.279-0.378-0.205-0.606c0.055-0.177,0.258-0.101,0.361-0.046c0.689,0.365,1.096-0.094,1.463-0.536
				c1.035-1.235,2.066-2.472,3.148-3.67c0.525-0.583,1.037-1.188,1.488-1.848c0.303-0.439,0.68-0.847,0.977-1.306
				c0.361-0.56,0.793-1.063,1.176-1.6c0.525-0.736,1.289-0.994,2.053-1.289c0.412-0.161,0.9-0.312,1.285-0.281
				c0.627,0.053,1.213-0.386,1.77-0.153c0.602,0.251,1.229-0.134,1.793,0.203c0.078,0.048,0.174-0.005,0.264-0.038
				c0.738-0.277,1.277,0.002,1.58,0.755c0.514,1.292,1.201,2.473,2.111,3.543c0.512,0.6,0.943,1.271,1.545,1.798
				c0.359,0.318,1.141,0.236,1.414-0.163c0.449-0.641,0.666-1.328,0.506-2.125c-0.186-0.938-0.1-1.861,0.264-2.752
				c0.201-0.505,0.666-0.796,1.055-1.111c0.723-0.593,1.609-0.654,2.518-0.567c0.732,0.07,1.482,0.022,2.197,0.169
				c0.865,0.177,1.793,0.122,2.57,0.68c0.273,0.196,0.283,0.413,0.242,0.673c-0.031,0.227-0.043,0.387,0.211,0.529
				c0.256,0.142,0.375,0.423,0.373,0.745c-0.006,0.511,0.146,0.938,0.584,1.271c0.283,0.218,0.492,0.535,0.738,0.805
				C35.987,7.02,37.302,7.126,39.122,7.101z"/>
			<path fill-rule="evenodd" clip-rule="evenodd" d="M14.358,18.898c0.48,0.133,0.984,0.156,1.461,0.138
				c0.525-0.022,1.016,0.104,1.523,0.126c1.256,0.055,2.469,0.405,3.717,0.539c0.84,0.089,1.67,0.198,2.504,0.124
				c1.033-0.09,2.055-0.235,3.068-0.497c0.766-0.192,1.562-0.273,2.328-0.5c1.242-0.375,2.545-0.509,3.754-1.011
				c0.027-0.011,0.057-0.025,0.086-0.028c1.02-0.104,1.984-0.543,3.018-0.534c0.49,0.005,0.873-0.327,1.373-0.294
				c0.701,0.044,0.809,0.18,0.623,0.84c-0.18,0.632-0.678,0.957-1.131,1.34c-0.033,0.029-0.094,0.04-0.109,0.074
				c-0.451,0.886-1.455,1.035-2.143,1.607c-0.102,0.084-0.236,0.15-0.367,0.18c-0.391,0.091-0.646,0.279-0.717,0.713
				c-0.053,0.311-0.232,0.541-0.617,0.414c-0.166-0.051-0.27,0.036-0.328,0.178c-0.152,0.361-0.434,0.536-0.809,0.593
				c-0.342,0.051-0.576,0.373-0.91,0.408c-0.402,0.044-0.676,0.218-0.908,0.544c-0.16,0.226-0.438-0.033-0.654,0.072
				c-0.627,0.307-1.324,0.399-1.982,0.627c-0.18,0.063-0.395,0.035-0.586,0.081c-0.605,0.144-1.244,0.003-1.844,0.301
				c-0.289,0.142-0.705-0.097-1.012-0.078c-0.648,0.039-1.256-0.122-1.885-0.14c-1.125-0.027-2.184-0.375-3.25-0.683
				c-0.424-0.122-0.854-0.231-1.279-0.346c-1.199-0.328-2.291-0.932-3.477-1.29c-0.201-0.061-0.336-0.218-0.475-0.349
				c-0.781-0.751-1.771-1.239-2.496-2.054c-0.145-0.158-0.238-0.318-0.178-0.536c0.07-0.255,0.297-0.169,0.465-0.188
				c0.701-0.071,1.402-0.146,2.105-0.185C13.612,19.063,13.958,18.819,14.358,18.898z"/>
		</g>
	</g>
</g>
</svg>
