<?xml version="1.0" encoding="utf-8"?>
<!-- Generator: Adobe Illustrator 16.0.4, SVG Export Plug-In . SVG Version: 6.00 Build 0)  -->
<!DOCTYPE svg PUBLIC "-//W3C//DTD SVG 1.1//EN" "http://www.w3.org/Graphics/SVG/1.1/DTD/svg11.dtd">
<svg version="1.1" xmlns="http://www.w3.org/2000/svg" xmlns:xlink="http://www.w3.org/1999/xlink" x="0px" y="0px" width="131px"
	 height="70px" viewBox="0 0 131 70" enable-background="new 0 0 131 70" xml:space="preserve">
<g id="Layer_2">
</g>
<g id="Layer_1">
	<g>
		<path fill="#FFFFFF" d="M25.225,25.338c0.739,0.095,1.475,0.28,2.229,0.176c0.866-0.121,1.737-0.258,2.601-0.306
			c1.355-0.076,2.671-0.342,4-0.548c0.345-0.055,0.38,0.031,0.324,0.329c-0.154,0.817-0.285,1.642-0.431,2.461
			c-0.119,0.662-0.242,1.323-0.365,1.984c-0.036-0.006-0.071-0.009-0.107-0.014c0.022-0.8,0.191-1.59,0.238-2.391
			c-0.047,0.069-0.084,0.141-0.095,0.217c-0.165,1.153-0.321,2.308-0.491,3.461c-0.111,0.756-0.26,1.506-0.356,2.263
			c-0.077,0.608,0.082,0.847,0.594,1.104c0.133,0.067,0.3,0.078,0.352,0.303c0.039,0.169,0.342,0.241,0.433,0.119
			c0.266-0.365,0.703-0.61,0.795-1.102c0.137-0.734,0.288-1.467,0.44-2.2c0.211-1.001,0.222-2.034,0.566-3.021
			c0.128-0.365,0.267-0.739,0.374-1.118c0.224-0.793,0.176-1.668,0.723-2.364c0.028-0.035,0.046-0.117,0.025-0.152
			c-0.19-0.322,0.065-0.375,0.271-0.461c0.705-0.291,1.458-0.438,2.167-0.723c0.333-0.135,0.522-0.428,0.854-0.567
			c0.799-0.337,1.659-0.561,2.348-1.131c0.193-0.159,0.421-0.265,0.656-0.354c0.695-0.266,1.267-0.74,1.87-1.15
			c1.017-0.691,1.967-1.479,3.042-2.091c0.11-0.062,0.284-0.137,0.256-0.244c-0.123-0.499,0.287-0.56,0.56-0.737
			c0.108-0.07,0.269-0.09,0.235-0.286c-0.043-0.27,0.008-0.495,0.298-0.619c0.479-0.204,0.87-0.565,1.36-0.76
			c-0.733-0.043-1.398,0.214-2.062,0.432c-2.351,0.771-4.607,1.787-6.906,2.695c-0.508,0.2-1.009,0.453-1.506,0.642
			c-0.576,0.219-1.21,0.364-1.825,0.517c-0.105,0.027-0.219,0.119-0.314,0.041c-0.111-0.094,0.01-0.206,0.035-0.306
			c0.132-0.524,0.234-1.062,0.424-1.565c0.141-0.372-0.026-0.728,0.074-1.099c0.343-1.258,0.688-2.518,0.913-3.805
			c0.02-0.114,0.076-0.253-0.05-0.347c-0.276-0.205-0.131-0.317,0.093-0.387c0.344-0.107,0.69-0.222,1.042-0.288
			c0.721-0.139,1.326-0.562,2.016-0.773c0.964-0.298,1.96-0.492,2.841-1.05c0.31-0.196,0.597-0.433,0.928-0.604
			c0.523-0.271,1.076-0.505,1.526-0.898c0.227-0.2,0.417-0.437,0.681-0.599c0.545-0.333,1.066-0.656,1.515-1.171
			c0.874-1.003,1.749-2.023,2.801-2.868c-0.355-0.165-0.376-0.193-0.083-0.422c0.345-0.267,0.73-0.481,0.867-0.934
			c0.035-0.117,0.283-0.096,0.199-0.266c-0.081-0.16-0.271-0.12-0.417-0.124c-0.667-0.017-1.286,0.203-1.903,0.412
			c-1.737,0.591-3.362,1.448-5.061,2.133c-0.212,0.086-0.454,0.134-0.615,0.345c0.176,0.067,0.303-0.122,0.482-0.029
			c-0.023,0.133-0.121,0.131-0.194,0.155c-0.456,0.158-0.893,0.309-1.405,0.321c-0.564,0.012-1.049,0.44-1.619,0.571
			c-1.066,0.246-2.077,0.701-3.165,0.886c-0.324,0.056-0.384-0.022-0.379-0.316c0.008-0.779-0.029-1.557-0.17-2.322
			c-0.043-0.229,0.01-0.623-0.223-0.636c-0.249-0.016-0.338,0.358-0.43,0.606c-0.347,0.935-0.752,1.852-0.86,2.863
			c-0.024,0.228-0.096,0.448-0.395,0.521C36.1,8.167,34.345,8.52,32.557,8.698c-1.513,0.149-3.004,0.43-4.392,1.088
			c-0.584,0.277-1.188,0.46-1.819,0.577c-0.163,0.03-0.328,0.059-0.485,0.109c-0.126,0.039-0.229,0.123-0.195,0.277
			c0.114,0.502,0.33,0.956,0.805,1.193c0.552,0.276,1.149,0.237,1.763,0.228c2.018-0.031,4.008,0.359,6.011,0.546
			c0.848,0.079,1.674,0.263,2.501-0.072c0.224-0.089,0.333,0.01,0.23,0.24c-0.168,0.381-0.134,0.752-0.003,1.132
			c0.087,0.258,0.101,0.518-0.077,0.756c-0.119,0.158-0.19,0.348-0.208,0.54c-0.073,0.779-0.302,1.527-0.345,2.324
			c-0.033,0.599-0.046,1.275-0.376,1.85c-0.073,0.129-0.08,0.294-0.142,0.432c-0.099,0.218,0.091,0.542-0.332,0.664
			c-0.15,0.045-0.344,0.237-0.549,0.307c-1.342,0.457-2.709,0.83-4.062,1.249c-1.989,0.618-3.914,1.437-5.986,1.774
			c-0.167,0.026-0.348,0.127-0.378,0.338C24.491,24.447,25.037,25.314,25.225,25.338z"/>
		<path fill="#FFFFFF" d="M67.462,11.599c0.07,0.199,0.25,0.325,0.458,0.321c0.078-0.002,0.143-0.022,0.186-0.036
			c0.04,0,0.078,0.009,0.117,0.016l0.052,0.009c0.107,0.018,0.212,0.043,0.316,0.069c0.208,0.051,0.439,0.109,0.697,0.114
			c0.219,0.003,0.441,0.002,0.658,0c0.222-0.002,0.437-0.005,0.647,0c-0.195,0.229-0.393,0.456-0.59,0.685
			c-0.439,0.505-0.894,1.027-1.308,1.574l-1.682,2.862c-0.553,0.718-1.11,1.433-1.674,2.142c-1.419,1.779-2.99,3.409-4.735,4.872
			l0.016,0.09c-0.443,0.275-0.875,0.572-1.337,0.808c-0.727,0.371-1.432,0.779-2.184,1.104c-0.485,0.209-0.97,0.416-1.459,0.617
			c-0.423,0.174-0.865,0.292-1.298,0.439c-0.697,0.238-1.406,0.385-2.139,0.434c-0.093,0.006-0.226-0.027-0.237-0.104
			c-0.035-0.214-0.213-0.31-0.324-0.455c-0.15-0.197-0.177-0.436-0.272-0.649c-0.157-0.354-0.1-0.727,0.02-1.058
			c0.167-0.464,0.503-0.847,0.776-1.255c0.214-0.319,0.489-0.597,0.733-0.896c0.22-0.269,0.534-0.332,0.833-0.17
			c0.333,0.179,0.657,0.345,1.05,0.406c0.453,0.07,0.87-0.056,1.289-0.132c0.331-0.059,0.651-0.25,0.941-0.454
			c0.274-0.193,0.559-0.373,0.839-0.561c0.289-0.196,0.536-0.444,0.805-0.663c0.182-0.149,0.316-0.316,0.457-0.495
			c0.098-0.124,0.09-0.295,0.246-0.393c0.295-0.191,0.536-0.452,0.692-0.771c0.101-0.205,0.224-0.398,0.335-0.596
			c0.088-0.153,0.194-0.312,0.333-0.452c0.152-0.151,0.302-0.38,0.277-0.604c-0.019-0.168,0.013-0.277,0.105-0.393
			c0.123-0.153,0.136-0.323,0.132-0.515c-0.004-0.182-0.083-0.355-0.032-0.543c0.049-0.183-0.102-0.541-0.27-0.63
			c-0.256-0.134-0.449-0.361-0.738-0.449c-0.238-0.071-0.46-0.195-0.693-0.288c-0.292-0.117-0.605-0.103-0.899-0.229
			c-0.353-0.152-0.755-0.021-1.136-0.069c-0.349-0.045-0.69,0.067-1.033,0.126c-0.179,0.03-0.343,0.128-0.528,0.107
			c-0.342-0.036-0.603,0.167-0.895,0.288c-0.197,0.081-0.299,0.265-0.484,0.343c-0.21,0.089-0.414,0.172-0.5,0.425
			c-0.036,0.111-0.132,0.215-0.282,0.242c-0.204,0.037-0.275,0.252-0.434,0.359c-0.083,0.057,0.021,0.17-0.007,0.23
			c-0.074,0.164-0.069,0.4-0.306,0.445c-0.589,0.107-0.951,0.513-1.292,0.954c-0.253,0.33-0.442,0.709-0.78,0.977
			c-0.204,0.162-0.261,0.441-0.462,0.622c-0.173,0.158-0.34,0.346-0.242,0.629c0.019,0.056-0.037,0.112-0.099,0.14
			c-0.195,0.085-0.292,0.257-0.386,0.434c-0.155,0.284-0.232,0.616-0.513,0.826c-0.059,0.043-0.053,0.134-0.068,0.21
			c-0.042,0.223-0.061,0.473-0.179,0.651c-0.141,0.21-0.292,0.409-0.364,0.653c-0.059,0.2-0.143,0.393-0.199,0.596
			c-0.062,0.225-0.102,0.438-0.114,0.67c-0.014,0.251,0.05,0.509-0.094,0.759c-0.083,0.142-0.051,0.343-0.017,0.509
			c0.069,0.354,0.264,0.671,0.327,1.031c0.016,0.094,0.005,0.21,0.082,0.301c0.214,0.246,0.417,0.503,0.628,0.753
			c0.372,0.441,0.898,0.647,1.549,1.006c0.277,0.188,0.777,0.332,1.283,0.379c0.707,0.066,1.416,0.141,2.124,0.166
			c0.585,0.021,1.176-0.05,1.761-0.111c0.201-0.021,0.394-0.088,0.599-0.033c0.065,0.019,0.127-0.003,0.164-0.056
			c0.086-0.13,0.233-0.194,0.355-0.23c0.171-0.054,0.283-0.239,0.458-0.223c0.123,0.015,0.244,0.002,0.358,0.014
			c0.458,0.043,0.787-0.209,1.136-0.429c0.35-0.221,0.678-0.492,1.056-0.645c0.345-0.138,0.524-0.413,0.759-0.646
			c0.064-0.064,0.111-0.14,0.151-0.218c0.129-0.09,0.259-0.185,0.387-0.299c0.653-0.591,1.219-1.278,1.719-1.885l0.048-0.059
			c0.386-0.469,0.785-0.953,1.148-1.459c0.224-0.313,0.454-0.625,0.684-0.936c0.405-0.546,0.821-1.111,1.21-1.688
			c0.246-0.365,0.506-0.72,0.765-1.073c0.266-0.36,0.529-0.722,0.781-1.092c0.327-0.486,0.68-1.001,1.062-1.473
			c0.507-0.625,1.032-1.246,1.526-1.822c-0.647,1.736-1.254,3.584-1.656,5.53c-0.239,1.161-0.431,2.503,0.311,3.774
			c0.102,0.377,0.396,0.4,0.484,0.397c0.039-0.001,0.078-0.006,0.119-0.016c0.219,0.014,0.363-0.074,0.435-0.152
			c0.059-0.063,0.098-0.138,0.117-0.224c0.345-0.182,0.458-0.508,0.519-0.687c0.045-0.132,0.092-0.263,0.139-0.394
			c0.17-0.481,0.347-0.979,0.456-1.502c0.068-0.332,0.165-0.654,0.269-0.996c0.099-0.323,0.2-0.659,0.274-1.005
			c0.103-0.474,0.212-0.945,0.323-1.417c0.103-0.439,0.205-0.879,0.3-1.32c0.229-1.044,0.533-2.171,0.958-3.547
			c0.239-0.77,0.453-1.405,0.675-1.999l0.038-0.033c0.431-0.054,0.857-0.125,1.283-0.196l0.423-0.07
			c0.396-0.064,0.775-0.172,1.142-0.276c0.278-0.08,0.541-0.154,0.807-0.211c1.419-0.302,2.636-0.664,3.718-1.109l0.255-0.104
			c0.479-0.193,0.972-0.395,1.447-0.63c0.147-0.073,0.294-0.149,0.439-0.224c0.434-0.226,0.843-0.438,1.284-0.578
			c0.277-0.088,0.55-0.191,0.823-0.293c0.168-0.064,0.337-0.129,0.508-0.188l0.17-0.061c0.667-0.234,1.336-0.469,2.009-0.689
			c0.137-0.045,0.302-0.053,0.476-0.062c0.147-0.009,0.295-0.018,0.44-0.043l2.619-0.452l-2.636-0.34
			C88.91,6.607,88.47,6.637,88.044,6.68l-0.057,0.005c-1.503,0.149-2.966,0.392-4.348,0.723c-0.61,0.145-1.219,0.298-1.828,0.449
			c-1.505,0.377-3.062,0.766-4.611,1.042c-0.425,0.075-0.852,0.156-1.278,0.236l-0.266,0.05c0.046-0.078,0.091-0.156,0.14-0.232
			c0.467-0.728,0.889-1.488,1.297-2.224l0.271-0.487c0.212-0.379,0.454-0.755,0.687-1.117c0.285-0.442,0.579-0.901,0.838-1.391
			c0.252-0.479,0.513-0.974,0.48-1.611c-0.021-0.423-0.298-0.567-0.55-0.561c-0.031,0.001-0.064,0.003-0.1,0.009
			c-0.141,0.02-0.282,0.033-0.425,0.048c-0.613,0.062-1.308,0.133-1.898,0.644c-0.379,0.329-0.478,0.788-0.24,1.113
			c0.075,0.103,0.085,0.139-0.109,0.438c-0.154,0.235-0.31,0.469-0.466,0.702c-0.244,0.37-0.49,0.738-0.726,1.113l-0.458,0.725
			c-0.609,0.967-1.241,1.966-1.819,2.979c-0.284,0.499-0.604,0.7-1.188,0.743c-0.874,0.066-1.728,0.273-2.554,0.473l-0.403,0.097
			c-0.275,0.064-0.51,0.159-0.72,0.29C67.471,11.088,67.373,11.35,67.462,11.599z M54.373,21.302
			c0.301-0.438,0.64-0.853,1.006-1.231c0.357-0.37,0.742-0.736,1.239-0.94c0.075-0.03,0.158-0.041,0.219,0
			c0.058,0.038-0.016,0.091-0.032,0.139c-0.222,0.331-0.516,0.604-0.792,0.886c-0.305,0.313-0.654,0.585-0.972,0.888
			c-0.175,0.169-0.399,0.243-0.602,0.359c-0.021,0.012-0.065,0.011-0.083-0.004C54.315,21.365,54.351,21.335,54.373,21.302z
			 M61.256,26.999c0.021-0.027,0.041-0.055,0.061-0.082l-0.221,0.376C61.14,27.187,61.187,27.084,61.256,26.999z"/>
		<path fill="#FFFFFF" d="M52.442,13.115c-0.271,0.007-0.472,0.129-0.55,0.332c-0.037,0.097-0.068,0.271,0.068,0.47
			c-0.003,0.042-0.002,0.09,0.01,0.143c0.007,0.03,0.009,0.065,0.012,0.101c0.017,0.173,0.055,0.578,0.458,0.682
			c0.192,0.049,0.387,0.071,0.579,0.067c0.262-0.008,0.517-0.062,0.754-0.165c0.804-0.348,1.535-0.823,2.173-1.408l0.137-0.128
			c0.156-0.147,0.304-0.287,0.459-0.377c0.409-0.237,0.719-0.555,1.019-0.861c0.069-0.07,0.138-0.142,0.208-0.211
			c0.434-0.427,0.817-0.898,1.188-1.356c0.287-0.354,0.585-0.72,0.901-1.059c0.283-0.304,0.599-0.642,0.749-1.112
			c0.023,0.017,0.051,0.038,0.08,0.066l0.238,0.227c0.232,0.222,0.473,0.45,0.727,0.666l0.134,0.115
			c0.31,0.268,0.661,0.571,1.152,0.689c0.506,0.12,1.048-0.012,1.523-0.153l0.105-0.032c0.521-0.155,0.948-0.438,1.36-0.714
			c0.322-0.215,0.627-0.419,0.966-0.556l0.61-0.248l-0.5-0.428c-0.115-0.1-0.244-0.148-0.382-0.145
			c-0.062,0.002-0.111,0.014-0.139,0.021l-0.486,0.117c-0.274,0.066-0.547,0.133-0.822,0.197c-0.281,0.064-0.548,0.101-0.795,0.107
			c-0.751,0.018-1.375-0.237-1.911-0.78c-0.46-0.469-1.022-0.984-1.851-1.162c-0.297-0.064-0.539-0.092-0.759-0.086
			c-0.391,0.01-0.729,0.122-1.033,0.344c-1.546,1.125-2.766,2.528-3.655,3.625c-0.207,0.254-0.409,0.513-0.61,0.771
			c-0.544,0.694-1.107,1.413-1.744,2.034C52.653,13.066,52.564,13.1,52.442,13.115z"/>
		<path fill="#FFFFFF" d="M90.483,20.055c0.225-0.215,0.354-0.454,0.402-0.759c0.026-0.166,0.102-0.325,0.253-0.429
			c0.061-0.041,0.126-0.086,0.142-0.161c0.071-0.335,0.256-0.617,0.424-0.904c0.211-0.359,0.336-0.742,0.417-1.152
			c-0.136-0.005-0.217,0.05-0.291,0.134c-0.307,0.35-0.705,0.593-1.077,0.857c-0.609,0.431-1.243,0.831-1.89,1.203
			c-0.238,0.137-0.444,0.322-0.685,0.446c-0.452,0.231-0.859,0.534-1.291,0.795c-0.35,0.212-0.69,0.461-1.052,0.635
			c-0.553,0.265-1.059,0.604-1.59,0.905c-0.518,0.291-1.052,0.558-1.588,0.814c-0.645,0.309-1.321,0.547-2.003,0.76
			c-0.495,0.154-0.99,0.33-1.53,0.271c-0.314-0.036-0.443-0.127-0.569-0.421c-0.115-0.263-0.056-0.537-0.074-0.802
			c-0.011-0.178,0.159-0.31,0.365-0.319c0.096-0.005,0.192,0.013,0.287,0.005c0.359-0.023,0.727,0.012,1.082-0.084
			c0.256-0.069,0.511-0.141,0.777-0.161c0.204-0.016,0.399-0.072,0.569-0.182c0.319-0.207,0.71-0.259,1.016-0.503
			c0.183-0.146,0.463-0.186,0.612-0.353c0.339-0.382,0.82-0.62,1.083-1.073c0.251-0.433,0.77-0.615,0.993-1.074
			c0.012-0.023,0.052-0.039,0.081-0.049c0.063-0.02,0.104-0.06,0.096-0.122c-0.015-0.13,0.079-0.201,0.134-0.298
			c0.121-0.213,0.32-0.364,0.422-0.59c0.189-0.415,0.391-0.823,0.536-1.259c0.134-0.403,0.045-0.729-0.333-0.901
			c-0.251-0.113-0.454-0.3-0.701-0.412c-0.302-0.136-0.596-0.294-0.922-0.38c-0.295-0.08-0.599-0.057-0.894-0.112
			c-0.414-0.078-0.827-0.188-1.247-0.055c-0.167,0.052-0.306,0.087-0.474-0.02c-0.083-0.053-0.236-0.031-0.343,0.004
			c-0.06,0.02,0.082,0.089,0.035,0.177c-0.217-0.107-0.334-0.085-0.302,0.044c0.051,0.204-0.074,0.195-0.194,0.188
			c-0.091-0.005-0.172-0.013-0.245,0.062c-0.071,0.075-0.161,0.045-0.214-0.019c-0.18-0.215-0.346-0.057-0.513,0.009
			c-0.058,0.023-0.137,0.068-0.119,0.136c0.022,0.079,0.106,0.049,0.166,0.029c0.061-0.02,0.11-0.027,0.149,0.031
			c0.025,0.039,0.02,0.076-0.004,0.113c-0.044,0.068-0.109,0.074-0.169,0.037c-0.1-0.058-0.181-0.054-0.253,0.042
			c-0.041,0.057-0.103,0.076-0.173,0.059c-0.108-0.025-0.174,0.024-0.202,0.123c-0.014,0.049-0.02,0.097-0.08,0.105
			c-0.269,0.037-0.485,0.17-0.701,0.33c-0.104,0.077-0.253,0.094-0.339,0.215c-0.206,0.285-0.447,0.528-0.773,0.683
			c-0.133,0.063-0.313,0.154-0.35,0.271c-0.109,0.342-0.375,0.545-0.584,0.801c-0.153,0.189-0.445,0.246-0.507,0.519
			c-0.063,0.282-0.233,0.489-0.432,0.687c-0.167,0.165-0.325,0.347-0.386,0.579c-0.088,0.339-0.195,0.664-0.464,0.91
			c-0.036,0.033-0.072,0.082-0.05,0.129c0.072,0.162-0.022,0.257-0.126,0.356c-0.051,0.049-0.088,0.112-0.097,0.191
			c-0.054,0.499,0.062,0.99,0.05,1.493c-0.013,0.555,0.263,1.073,0.641,1.492c0.499,0.556,1.087,1.014,1.711,1.427
			c0.13,0.086,0.292,0.015,0.405,0.129c0.14,0.14,0.322,0.215,0.498,0.298c0.358,0.166,0.726,0.293,1.104,0.403
			c0.436,0.126,0.854,0.304,1.315,0.34c0.117,0.009,0.247-0.028,0.355,0.03c0.396,0.218,0.822,0.007,1.231,0.091
			c0.353,0.071,0.687-0.113,1.034-0.153c0.383-0.047,0.734-0.236,1.113-0.321c0.106-0.023,0.24-0.039,0.336-0.116
			c0.28-0.226,0.654-0.239,0.958-0.437c0.283-0.185,0.695-0.175,0.837-0.574c0.01-0.023,0.05-0.04,0.08-0.053
			c0.402-0.173,0.706-0.465,0.965-0.81c0.035-0.045,0.078-0.05,0.128-0.044c0.071,0.006,0.132-0.027,0.171-0.078
			c0.237-0.314,0.487-0.62,0.699-0.951c0.077-0.119,0.233-0.197,0.226-0.36c-0.006-0.105,0.054-0.115,0.122-0.166
			c0.213-0.155,0.433-0.344,0.426-0.627c-0.004-0.14,0.042-0.185,0.13-0.24c0.207-0.13,0.368-0.277,0.285-0.562
			c-0.025-0.084,0.034-0.173,0.089-0.244C89.875,20.724,90.155,20.367,90.483,20.055z M79.88,19.11
			c0.229-0.162,0.392-0.425,0.565-0.658c0.254-0.34,0.554-0.626,0.923-0.837c0.101-0.06,0.168-0.151,0.238-0.24
			c0.246-0.312,0.574-0.478,0.956-0.554c0.044,0.131-0.01,0.219-0.071,0.308c-0.246,0.364-0.579,0.646-0.894,0.947
			c-0.327,0.313-0.679,0.597-1.021,0.888c-0.251,0.214-0.535,0.407-0.865,0.536C79.697,19.321,79.719,19.226,79.88,19.11z"/>
		<path fill="#FFFFFF" d="M63.333,43.25c-0.049,0-0.103,0.002-0.161,0.004l-0.196,0.018c-0.476,0.038-0.968,0.075-1.456,0.157
			c-0.249,0.04-0.544,0.119-0.788,0.34c0.249-0.733,0.287-1.476,0.326-2.194l0.011-0.222c0.014-0.227-0.059-0.416-0.116-0.536
			c-0.059-0.132-0.12-0.265-0.171-0.403c-0.033-0.089-0.062-0.18-0.092-0.27c-0.038-0.115-0.077-0.234-0.122-0.349
			c-0.144-0.371-0.448-0.611-0.778-0.611c-0.116,0-0.233,0.031-0.341,0.094c-0.071,0.04-0.157,0.077-0.249,0.115
			c-0.233,0.098-0.525,0.221-0.749,0.504L58.33,40.05c-0.383,0.475-0.778,0.963-0.985,1.603c-0.396,1.238-0.255,2.247,0.432,3.084
			c0.01,0.014,0.015,0.023,0.018,0.024c-0.002,0.005-0.005,0.021-0.016,0.05c-0.314,0.867-0.688,1.497-1.179,1.987
			c-0.058,0.059-0.115,0.123-0.158,0.181c-0.269,0.355-0.181,0.657-0.105,0.808c0.173,0.337,0.506,0.353,0.644,0.36
			c0.722,0.048,1.375-0.16,1.945-0.617c0.437-0.35,0.796-0.786,1.1-1.323c0.031-0.055,0.05-0.069,0.05-0.069
			c0.001-0.001,0.032-0.006,0.089-0.006c-0.002,0.005-0.002,0.01-0.003,0.015c-0.288,1.626-0.326,3.374-0.122,5.506
			c0.049,0.482,0.142,0.94,0.241,1.405c0.124,0.596,0.309,1.097,0.56,1.531c0.286,0.492,0.679,0.793,1.172,0.897
			c0.063,0.011,0.087,0.02,0.081,0.013c0.139,0.163,0.322,0.254,0.518,0.254c0.08,0,0.187-0.016,0.305-0.075
			c0.085,0.049,0.185,0.088,0.307,0.088c0.317,0,0.464-0.247,0.562-0.411c0.139-0.229,0.18-0.475,0.126-0.75
			c-0.09-0.472-0.184-0.977-0.257-1.479c-0.172-1.166-0.2-2.394-0.226-3.475c-0.031-1.434,0.11-2.729,0.428-3.958l0.081-0.3
			c0.086-0.321,0.174-0.651,0.242-0.986c0.05-0.243,0.09-0.596-0.134-0.868C63.89,43.347,63.65,43.25,63.333,43.25z"/>
		<path fill="#FFFFFF" d="M57.309,55.244c-0.001-0.088-0.017-0.188-0.114-0.22c-0.102-0.03-0.163,0.051-0.217,0.122
			c-0.199,0.262-0.435,0.484-0.728,0.639c-0.322,0.166-0.46,0.131-0.696-0.137c-0.251-0.281-0.319-0.632-0.358-0.983
			c-0.12-1.108-0.11-2.213,0.075-3.317c0.16-0.962,0.335-1.924,0.22-2.908c-0.051-0.442-0.135-0.874-0.321-1.285
			c-0.178-0.385-0.451-0.608-0.885-0.624c-0.192-0.006-0.388-0.019-0.572-0.064c-0.508-0.129-1.014-0.19-1.537-0.089
			c-0.277,0.055-0.363-0.055-0.267-0.325c0.138-0.389,0.287-0.777,0.457-1.155c0.376-0.849,0.429-1.741,0.381-2.649
			c-0.004-0.118-0.014-0.235-0.081-0.341c-0.117-0.187-0.284-0.218-0.417-0.037c-0.115,0.157-0.25,0.178-0.418,0.188
			c-0.146,0.008-0.304,0.017-0.434,0.076c-0.267,0.122-0.536,0.154-0.82,0.1c-0.356-0.07-0.627,0.116-0.895,0.303
			c-0.128,0.088-0.166,0.207-0.051,0.338c0.085,0.097,0.125,0.204,0.057,0.324c-0.083,0.156-0.136,0.325-0.182,0.497
			c-0.015,0.059-0.046,0.115-0.118,0.114c-0.065,0-0.113-0.038-0.138-0.093c-0.057-0.118-0.107-0.238-0.2-0.442
			c-0.084,0.222-0.082,0.362-0.017,0.475c0.307,0.548,0.333,1.153,0.376,1.757c0.012,0.145,0.047,0.296,0.101,0.43
			c0.112,0.285,0.095,0.533-0.068,0.8c-0.217,0.354-0.42,0.713-0.617,1.077l-0.117-0.263c-0.642,0.061-2.805,2.387-3.452,2.918
			c-0.086,0.071-0.203,0.145-0.323,0.222c-0.078,0.05-0.155,0.1-0.232,0.152c-0.131,0.09-0.261,0.18-0.391,0.272
			c-0.404,0.284-0.787,0.552-1.186,0.755c-0.631,0.318-1.284,0.646-1.965,0.771c-0.076,0.015-0.124,0.017-0.15,0.016
			c-0.018-0.022-0.05-0.066-0.089-0.152l-0.033-0.062c-0.053-0.108-0.107-0.218-0.154-0.33c-0.069-0.172-0.157-0.32-0.234-0.441
			c0.066-0.088,0.136-0.189,0.195-0.305c0.215-0.419,0.375-0.839,0.528-1.244c0.076-0.199,0.15-0.397,0.233-0.594
			c0.423-1.024,0.638-1.994,0.656-2.963c0.017-0.863-0.245-1.635-0.773-2.29c-0.476-0.59-1.151-0.893-1.873-0.835
			c-0.371,0.03-0.728,0.109-1.067,0.237c-0.168-0.408-0.537-0.681-1.023-0.758c-0.532-0.081-1.007,0.031-1.405,0.335
			c-0.258,0.199-0.525,0.404-0.792,0.581c-0.352,0.234-0.679,0.498-0.985,0.794c-2.048,0.646-4.004,1.537-5.928,2.514
			c-0.877,0.444-1.765,0.869-2.786,1.371c0.041-0.506,0.048-0.879,0.101-1.246c0.241-1.699,0.456-3.406,0.755-5.096
			c0.276-1.575,0.636-3.137,0.978-4.7c0.345-1.581,0.708-3.161,1.067-4.74c0.05-0.219,0.109-0.446-0.14-0.573
			c-0.274-0.141-0.449,0.036-0.591,0.241c-0.582,0.843-1.22,1.647-1.652,2.594c-0.975,2.148-1.729,4.37-2.318,6.649
			c-0.639,2.474-0.973,4.999-1.109,7.551c-0.018,0.309-0.132,0.47-0.413,0.562c-0.486,0.157-0.976,0.317-1.455,0.502
			c-0.995,0.384-1.98,0.792-2.973,1.177c-1.435,0.557-2.874,1.105-4.314,1.649c-0.114,0.046-0.25,0.033-0.438,0.054
			c0.036-0.349,0.053-0.641,0.097-0.929c0.273-1.816,0.552-3.634,0.829-5.451c0.206-1.347,0.364-2.703,0.629-4.038
			c0.39-1.954,0.862-3.892,1.292-5.838c0.195-0.886,0.459-1.761,0.429-2.681c-0.019-0.43,0.051-0.829,0.375-1.126
			c-0.165-0.475-0.2-0.98-0.585-1.329c-0.027-0.024-0.032-0.073-0.041-0.112c-0.171-0.706-0.328-1.417-0.517-2.12
			c-0.115-0.414-0.235-0.84-0.439-1.214c-0.233-0.425-0.529-0.449-0.945-0.203c-0.236,0.14-0.477,0.279-0.732,0.383
			c-0.391,0.159-0.672,0.452-0.824,0.812c-0.157,0.372-0.245,0.791-0.292,1.195c-0.049,0.447-0.011,0.901-0.02,1.353
			c-0.031,1.552-0.379,3.054-0.733,4.553c-0.354,1.497-0.753,2.99-1.043,4.502c-0.363,1.899-0.664,3.812-0.943,5.728
			c-0.361,2.503-0.672,5.014-1.012,7.521c-0.079,0.587-0.087,0.625-0.676,0.708c-1.173,0.163-2.354,0.279-3.531,0.41
			c-0.396,0.045-0.766,0.028-1.146-0.173c-0.415-0.221-1.202,0.171-1.215,0.613c-0.012,0.542,0.052,1.096,0.187,1.618
			c0.08,0.301,0.36,0.55,0.554,0.818c0.521,0.717,1.27,1.072,2.11,1.168c0.82,0.093,1.654,0.063,2.485,0.092
			c0.226,0.009,0.451,0.027,0.719,0.041c-0.115,0.961-0.244,1.842-0.316,2.725c-0.089,1.051-0.325,2.111,0.094,3.15
			c0.037,0.089,0.04,0.193,0.042,0.293c0.012,0.882,0.261,1.71,0.584,2.518c0.05,0.126,0.199,0.213,0.3,0.316
			c0.114-0.117,0.293-0.219,0.326-0.354c0.095-0.363,0.132-0.739,0.178-1.112c0.322-2.572,0.709-5.126,1.823-7.511
			c0.191-0.416,0.419-0.655,0.875-0.768c1.635-0.403,3.212-0.977,4.703-1.771c1.743-0.927,3.473-1.881,5.209-2.818
			c0.194-0.106,0.402-0.184,0.675-0.306c0.028,0.802,0.022,1.493,0.076,2.178c0.206,2.539,0.427,5.074,0.656,7.611
			c0.017,0.184,0.075,0.452,0.204,0.521c0.474,0.262,0.555,0.702,0.615,1.151c0.08,0.609,0.431,1.082,0.716,1.592
			c0.013,0.019,0.076,0.012,0.172,0.027c0.045-0.128,0.125-0.265,0.138-0.409c0.05-0.51,0.098-1.023,0.108-1.536
			c0.028-1.184,0.032-2.365,0.05-3.55c0.022-1.382,0.063-2.763,0.062-4.145c0-1.439-0.033-2.884-0.069-4.325
			c-0.009-0.377,0.101-0.626,0.453-0.808c0.63-0.328,1.24-0.694,1.853-1.052c0.768-0.449,1.537-0.895,2.291-1.362
			c0.585-0.364,1.121-0.815,1.73-1.131c0.123-0.063,0.245-0.13,0.367-0.196c-0.234,0.632-0.441,1.315-0.624,2.075
			c-0.253,1.043-0.364,2.014-0.335,2.971c0.034,1.152,0.383,2.062,1.066,2.776c0.628,0.659,1.378,0.998,2.226,1.007h0.038
			c0.916,0,1.61-0.411,2.114-0.772c0.888-0.636,1.644-1.381,2.254-2.048c0.301,0.275,0.587,0.515,0.875,0.734
			c1.173,0.894,2.535,0.982,3.879,0.25c0.595-0.326,1.169-0.754,1.754-1.306c0.318-0.298,0.618-0.61,0.907-0.912
			c0.463-0.481,0.902-0.939,1.393-1.328c0.107-0.087,0.214-0.176,0.345-0.285l0.579-0.72c0.138-0.103,0.176-0.192,0.228-0.282
			l0.121-0.151c0.047-0.041,0.108-0.084,0.197-0.127c0.209-0.109,0.252-0.354,0.357-0.562l0.241-0.3l0,0
			c0.396-0.378,1.075-0.746,1.282-1.126c0.243-0.438,0.344-0.48,0.819-0.379c0.058,0.014,0.116,0.026,0.173,0.037
			c0.332,0.081,0.358,0.107,0.321,0.453c-0.057,0.502-0.134,0.997-0.188,1.496c-0.149,1.361-0.152,2.719,0.201,4.055
			c0.389,1.472,1.311,2.45,2.766,2.921c0.156,0.05,0.317,0.095,0.479,0.064c0.183-0.035,0.352,0.01,0.525,0.057
			c0.438,0.112,0.819-0.008,1.14-0.315c0.129-0.123,0.265-0.23,0.421-0.322c0.275-0.167,0.301-0.321,0.075-0.568
			C57.399,55.603,57.313,55.447,57.309,55.244z M39.541,46.927c-0.083,0.365-0.271,0.729-0.467,1.114
			c-0.071,0.134-0.139,0.269-0.206,0.406c-0.663,1.371-1.681,2.611-3.199,3.905c-0.312,0.264-0.629,0.43-0.971,0.503
			c-0.042,0.01-0.072,0.015-0.103,0.015c-0.01-0.021-0.024-0.057-0.039-0.104c-0.138-0.459-0.168-0.932-0.087-1.405
			c0.17-1.001,0.378-2.046,0.872-2.966l1.563-0.767c0.39-0.192,0.638-0.474,0.818-0.684c0.039-0.043,0.077-0.087,0.114-0.127
			c0.49-0.519,0.876-0.821,1.296-1.01c0.188-0.086,0.289-0.095,0.325-0.103c0,0,0.078,0.065,0.153,0.319
			c0.021,0.069,0.029,0.131,0.025,0.195C39.621,46.484,39.591,46.714,39.541,46.927z"/>
		<path fill="#FFFFFF" d="M70.145,45.057c-0.071-0.242-0.157-0.438-0.231-0.595c-0.097-0.211-0.225-0.345-0.317-0.446
			c-0.027-0.029-0.057-0.058-0.083-0.091c-0.358-0.467-0.744-0.563-1.006-0.563c-0.203,0-0.401,0.057-0.587,0.168
			c-0.778,0.464-0.956,1.59-0.793,2.439c0.115,0.606,0.137,1.115,0.064,1.557c-0.131,0.808-0.21,1.571-0.242,2.336
			c-0.031,0.739-0.02,1.479-0.005,2.231c0.002,0.196,0.01,0.408,0.067,0.641c0.052,0.213,0.065,0.387,0.04,0.531
			c-0.033,0.188-0.018,0.378,0.045,0.597c0.069,0.233,0.133,0.46,0.166,0.676c0.04,0.274,0.094,0.564,0.273,0.843
			c0,0.002,0,0.006,0,0.009c-0.029,0.388,0.07,0.742,0.183,1.075c0.131,0.367,0.418,0.622,0.75,0.674
			c0.18,0.144,0.375,0.157,0.453,0.157c0.079,0,0.16-0.012,0.237-0.035c0.315-0.1,0.523-0.363,0.56-0.705
			c0.021-0.196,0.077-0.38,0.142-0.591c0.027-0.085,0.053-0.171,0.079-0.261c0.016-0.062,0.032-0.12,0.05-0.179
			c0.055-0.191,0.119-0.408,0.153-0.655c0.094-0.738,0.147-1.427,0.165-2.104c0.006-0.275,0.021-0.546,0.032-0.818
			c0.012-0.23,0.023-0.459,0.03-0.689l0.005-0.159c0.013-0.399,0.025-0.817,0.016-1.241c-0.023-0.932-0.036-1.768,0.041-2.571
			c0.028-0.286,0.047-0.594,0.005-0.927C70.386,45.963,70.31,45.5,70.145,45.057z"/>
		<path fill="#FFFFFF" d="M95.375,36.914c1.379-0.349,2.663-0.984,4.033-1.368c0.865-0.241,1.745-0.47,2.559-0.855
			c0.648-0.308,1.4-0.34,1.987-0.802c0.198-0.151,0.546-0.06,0.619-0.455c0.026-0.131,0.424-0.017,0.682-0.222
			c-0.201-0.239-0.444-0.286-0.688-0.312c-0.402-0.043-0.807-0.054-1.214-0.027c-2.658,0.171-5.277,0.623-7.896,1.101
			c-0.529,0.098-0.538,0.102-0.546-0.421c-0.037-2.343-0.014-4.685,0.211-7.019c0.054-0.584,0.148-1.162,0.116-1.751
			c-0.01-0.184,0.002-0.373-0.19-0.47c-0.205-0.104-0.392-0.034-0.56,0.107c-0.438,0.365-0.77,0.81-1.013,1.329
			c-0.717,1.526-1.073,3.152-1.348,4.8c-0.184,1.111-0.315,2.23-0.391,3.356c-0.021,0.35-0.155,0.511-0.534,0.529
			c-0.583,0.023-1.168,0.079-1.749,0.176c-1.355,0.227-2.705,0.478-4.076,0.61c-1.743,0.171-3.471,0.564-5.241,0.339
			c-0.27-0.032-0.527,0.11-0.539,0.396c-0.015,0.391-0.21,0.721-0.269,1.097c-0.171,1.087,0.532,1.841,1.448,1.752
			c0.249-0.023,0.5-0.04,0.738-0.1c0.551-0.137,1.113-0.178,1.675-0.18c1.961-0.01,3.92-0.11,5.863-0.381
			c0.734-0.099,1.47-0.217,2.204-0.342c0.302-0.053,0.481,0,0.481,0.35c0.002,0.225,0.035,0.446,0.05,0.673
			c0.094,1.234,0.174,2.471,0.282,3.707c0.252,2.89,0.759,5.762,0.639,8.685c-0.021,0.543,0.206,1.036,0.505,1.501
			c0.279,0.433,0.53,0.878,0.591,1.413c0.041,0.354,0.164,0.7,0.261,1.048c0.029,0.113,0.101,0.214,0.238,0.181
			c0.093-0.023,0.145-0.108,0.156-0.201c0.049-0.494,0.118-0.986,0.137-1.48c0.078-2.114,0.142-4.232,0.317-6.342
			c0.14-1.706,0.338-3.406,0.345-5.12c0.002-1.576-0.055-3.152-0.167-4.726C95.074,37.23,95.031,37.001,95.375,36.914z"/>
		<path fill="#FFFFFF" d="M123.099,36.895c-3.596,0.333-7.191,0.659-10.768,1.141c-0.69,0.094-0.758,0.037-0.764-0.697
			c-0.013-1.501,0.026-3.002,0.111-4.502c0.058-1.016,0.276-2.026-0.032-3.052c-0.263-0.864-0.727-1.015-1.465-0.678
			c-0.51,0.234-1.015,0.48-1.532,0.702c-0.325,0.14-0.667,0.224-1.023,0.096c-0.448-0.163-0.827-0.075-1.127,0.311
			c-0.099,0.129-0.228,0.238-0.36,0.333c-0.435,0.318-0.581,0.693-0.361,1.22c0.332,0.789,0.42,1.619,0.357,2.479
			c-0.082,1.076-0.101,2.156-0.167,3.232c-0.062,1.06-0.211,1.198-1.236,1.32c-0.837,0.102-1.672,0.244-2.51,0.334
			c-0.837,0.093-1.668,0.301-2.517,0.211c-0.589-0.062-1.168,0.01-1.751,0.028c-0.264,0.009-0.506,0.088-0.721,0.249
			c-0.398,0.3-0.553,1.107-0.293,1.539c0.259,0.425,0.654,0.526,1.225,0.278c0.35-0.151,0.712-0.242,1.087-0.271
			c1.94-0.143,3.882-0.276,5.826-0.409c0.685-0.045,0.842,0.08,0.835,0.783c-0.017,1.809,0.157,3.605,0.346,5.399
			c0.091,0.839,0.204,1.678,0.372,2.504c0.409,2.003,1.165,3.903,1.802,5.837c0.138,0.418,0.329,0.807,0.71,1.104
			c0.285,0.218,0.501,0.563,0.588,0.94c0.092,0.399,0.377,0.507,0.731,0.515c0.444,0.009,0.818-0.159,1.131-0.474
			c0.503-0.507,0.643-1.146,0.604-1.814c-0.144-2.529-0.154-5.062-0.372-7.588c-0.189-2.199-0.194-4.403-0.225-6.605
			c-0.007-0.428,0.185-0.659,0.546-0.796c0.153-0.059,0.311-0.114,0.473-0.13c1.141-0.127,2.282-0.291,3.425-0.348
			c1.757-0.087,3.502-0.319,5.25-0.478c1.722-0.157,3.437-0.415,5.14-0.744c0.866-0.166,1.767-0.205,2.635-0.361L123.099,36.895z"/>
		<path fill="#FFFFFF" d="M87.78,51.057c-0.132-0.075-0.278-0.114-0.422-0.114c-0.322,0-0.577,0.163-0.82,0.535
			c-0.208,0.268-0.398,0.501-0.624,0.673c-0.224,0.171-0.401,0.347-0.541,0.539c-0.236,0.322-0.561,0.596-1.001,0.842
			c-0.105,0.055-0.303,0.161-0.441,0.392l-0.021,0.035l-0.029,0.028c-0.046,0.045-0.12,0.095-0.235,0.172l-0.05,0.031
			c-0.23,0.151-0.445,0.312-0.682,0.491c-0.457,0.349-0.94,0.664-1.435,0.938c-0.743,0.412-1.37,0.675-1.971,0.829
			c-0.211,0.055-0.41,0.083-0.593,0.083c-0.578,0-0.992-0.273-1.265-0.835c-0.188-0.384-0.393-1.198-0.363-1.595
			c0.049-0.761,0.185-1.368,0.329-2.011l0.024-0.114c0.086-0.396,0.174-0.806,0.249-1.274c0.123-0.755,0.426-1.452,0.928-2.129
			c0.149-0.201,0.284-0.345,0.425-0.455l0.1-0.079l0.126,0.02c0.283,0.041,0.536,0.061,0.771,0.061c0.241,0,0.461-0.021,0.66-0.066
			l0.07-0.014c0.181-0.033,0.604-0.112,0.862-0.503l0.023-0.034l0.03-0.027c0.152-0.132,0.251-0.303,0.285-0.498
			c0.027-0.149,0.034-0.446-0.24-0.763c-0.072-0.096-0.221-0.292-0.501-0.386l-0.046-0.016l-0.041-0.029
			c-0.019-0.014-0.098-0.079-0.098-0.079c-0.049-0.038-0.1-0.077-0.159-0.117c-0.264-0.182-0.547-0.276-0.818-0.276
			c-0.125,0-0.244,0.02-0.357,0.059l-0.112,0.039l-0.109-0.048c-0.024-0.012-0.049-0.025-0.072-0.04
			c-0.106-0.067-0.206-0.109-0.265-0.136l-0.064-0.028c-0.384-0.2-0.648-0.349-0.826-0.57c-0.029-0.036-0.046-0.062-0.057-0.08
			l-0.043-0.058l-0.004-0.092c-0.003-0.057,0.01-0.124,0.037-0.194c0.017-0.053,0.045-0.129,0.084-0.19
			c0.276-0.451,0.693-0.72,1.283-0.822c0.069-0.009,0.134-0.014,0.192-0.014c0.219,0,0.503,0.057,0.756,0.508
			c0.025,0.045,0.045,0.093,0.067,0.142l0.084,0.189c0.146,0.323,0.383,0.52,0.699,0.587l0.745,0.155l0.125-0.749
			c0.081-0.485,0.038-0.925-0.125-1.307c-0.183-0.434-0.472-0.811-0.835-1.089c-0.081-0.062-0.162-0.122-0.245-0.182l-0.059-0.042
			c-0.057-0.04-0.114-0.082-0.169-0.124c-0.519-0.403-1.109-0.6-1.804-0.6c-0.071,0-0.141,0.003-0.213,0.007
			c-0.519,0.028-0.967,0.198-1.299,0.342c-0.728,0.315-1.32,0.72-1.81,1.232c-1.106,1.166-1.195,2.682-0.226,3.859
			c0.242,0.291,0.508,0.553,0.792,0.779l0.25,0.196l-0.211,0.236c-0.773,0.858-1.325,1.721-1.688,2.634L74.78,49.93l-0.009,0.016
			c-0.355,0.642-0.584,1.342-0.701,2.143c-0.127,0.864-0.12,1.764-0.102,2.539c0.041,1.69,1.08,3.269,2.925,4.446
			c0.519,0.331,1.108,0.527,1.754,0.584c0.17,0.017,0.35,0.025,0.533,0.025c0.799,0,1.619-0.155,2.504-0.476
			c0.691-0.25,1.334-0.578,1.912-0.978c0.837-0.575,1.639-1.166,2.235-2.052c0.083-0.126,0.177-0.248,0.27-0.368l0.032-0.042
			c0.252-0.331,0.539-0.706,0.728-1.187l0.018-0.044l0.03-0.035c0.152-0.183,0.271-0.382,0.348-0.579
			c0.044-0.109,0.094-0.213,0.146-0.315l0.019-0.041c0.089-0.183,0.189-0.391,0.259-0.627l0.015-0.05l0.031-0.041
			c0.113-0.155,0.202-0.333,0.272-0.546l0.011-0.031l0.018-0.03c0.093-0.151,0.208-0.389,0.13-0.692
			C88.105,51.34,87.971,51.166,87.78,51.057z"/>
		<path fill="#FFFFFF" d="M123.576,57.886c-0.262-0.2-0.546-0.367-0.861-0.47c-0.278-0.092-0.579-0.094-0.83,0.046
			c-0.189,0.106-0.384,0.137-0.583,0.188c-0.258,0.067-0.526,0.115-0.719,0.331c-0.256,0.291-0.531,0.566-0.766,0.875
			c-0.294,0.387-0.496,0.815-0.597,1.289c-0.021,0.127-0.031,0.253-0.041,0.378c-0.014,0.178,0.021,0.325,0.184,0.423
			c0.053,0.032,0.082,0.09,0.107,0.143c0.043,0.089,0.111,0.156,0.183,0.224c0.258,0.244,0.586,0.356,0.911,0.457
			c0.511,0.154,0.988,0.073,1.408-0.272c0.071-0.056,0.145-0.104,0.225-0.141c0.77-0.356,1.27-0.972,1.641-1.71
			c0.028-0.052,0.041-0.114,0.051-0.172c0.03-0.174,0.064-0.35,0.081-0.529C124.009,58.53,123.932,58.151,123.576,57.886z"/>
		<g>
			<path fill="#FFFFFF" d="M72.349,34.295c-0.28,0.136-0.552,0.293-0.811,0.449c-0.845,0.506-1.566,1.042-2.205,1.639
				c-0.358,0.335-0.684,0.681-0.968,1.027c-0.064,0.078-0.121,0.16-0.177,0.24c-0.076,0.107-0.154,0.219-0.249,0.331
				c0.01,0.043,0.02,0.084,0.027,0.123c0.005,0.021,0.007,0.045,0.015,0.064c0.11,0.194,0.247,0.435,0.28,0.741
				c0.099-0.084,0.204-0.152,0.317-0.207c0.018-0.008,0.043-0.024,0.083-0.065l0.065-0.066c0.202-0.211,0.403-0.422,0.602-0.635
				c0.456-0.49,0.782-0.886,1.055-1.278c0.063-0.093,0.121-0.176,0.129-0.229c0.04-0.279,0.197-0.488,0.329-0.639
				c0.149-0.165,0.299-0.322,0.452-0.479l0.168-0.166c0.202-0.202,0.405-0.404,0.615-0.603
				C72.164,34.46,72.252,34.375,72.349,34.295z"/>
			<path fill="#FFFFFF" d="M73.499,32.854c-0.024,0-0.049,0.001-0.081,0.004c-0.052,0.004-0.104,0.016-0.159,0.028
				c-0.302,0.08-0.613,0.182-1.01,0.331c-0.49,0.188-0.925,0.44-1.327,0.684c-0.913,0.546-1.695,1.127-2.391,1.778
				c-0.392,0.365-0.749,0.745-1.062,1.127c-0.079,0.097-0.151,0.198-0.223,0.3c-0.067,0.096-0.13,0.185-0.195,0.261
				c-0.287,0.331-0.265,0.652-0.198,0.856c0.006,0.021,0.01,0.042,0.015,0.062c0.018,0.087,0.041,0.209,0.117,0.34
				c0.103,0.182,0.165,0.298,0.167,0.419l-0.006,0.064l0.032,0.081c0.01,0.034,0.035,0.114,0.096,0.195
				c0.014,0.019,0.035,0.082,0.052,0.132l0.028,0.083c0.067,0.188,0.191,0.354,0.364,0.488c0.138,0.108,0.292,0.165,0.459,0.165
				c0.175,0,0.337-0.062,0.478-0.182c0.107-0.089,0.174-0.185,0.222-0.255l0.027-0.038c0.069-0.091,0.135-0.15,0.199-0.183
				c0.142-0.067,0.269-0.159,0.396-0.288l0.068-0.073c0.207-0.215,0.41-0.428,0.613-0.646c0.492-0.527,0.845-0.957,1.151-1.397
				c0.11-0.159,0.247-0.356,0.286-0.631c0.001-0.01,0.014-0.045,0.093-0.134c0.133-0.149,0.272-0.294,0.413-0.436l0.165-0.165
				c0.196-0.195,0.392-0.392,0.608-0.597c0.118-0.111,0.229-0.217,0.342-0.284c0.203-0.122,0.319-0.278,0.399-0.403
				c0.093-0.147,0.117-0.282,0.106-0.395c0.029-0.044,0.059-0.089,0.095-0.139c0.069-0.09,0.108-0.174,0.128-0.252
				c0.21-0.235,0.159-0.497,0.04-0.664C73.893,32.942,73.708,32.854,73.499,32.854z M71.293,35.311
				c-0.153,0.157-0.303,0.314-0.452,0.479c-0.132,0.15-0.289,0.359-0.329,0.639c-0.008,0.054-0.065,0.137-0.129,0.229
				c-0.273,0.393-0.599,0.788-1.055,1.278c-0.199,0.213-0.4,0.424-0.602,0.635l-0.065,0.066c-0.04,0.041-0.065,0.058-0.083,0.065
				c-0.114,0.055-0.218,0.123-0.317,0.207c-0.033-0.307-0.17-0.547-0.28-0.741c-0.008-0.02-0.01-0.043-0.015-0.064
				c-0.007-0.039-0.017-0.08-0.027-0.123c0.095-0.112,0.172-0.224,0.249-0.331c0.056-0.08,0.113-0.162,0.177-0.24
				c0.285-0.347,0.61-0.692,0.968-1.027c0.638-0.597,1.36-1.133,2.205-1.639c0.259-0.156,0.531-0.313,0.811-0.449
				c-0.097,0.08-0.186,0.165-0.272,0.247c-0.21,0.198-0.413,0.4-0.615,0.603L71.293,35.311z"/>
		</g>
	</g>
</g>
</svg>
