<?xml version="1.0" encoding="utf-8"?>
<!-- Generator: Adobe Illustrator 22.0.1, SVG Export Plug-In . SVG Version: 6.00 Build 0)  -->
<svg version="1.1" id="Layer_1" xmlns="http://www.w3.org/2000/svg" xmlns:xlink="http://www.w3.org/1999/xlink" x="0px" y="0px"
	 viewBox="0 0 663 352" style="enable-background:new 0 0 663 352;" xml:space="preserve">
<style type="text/css">
	.st0{fill:#010101;}
</style>
<g id="Layer_2_1_">
</g>
<g id="Layer_1_1_">
	<g>
		<path d="M123.5,126.1c3.8,0.5,7.6,1.4,11.5,0.9c4.5-0.6,9-1.3,13.4-1.6c7-0.4,13.8-1.8,20.7-2.8c1.8-0.3,2,0.2,1.7,1.7
			c-0.8,4.2-1.5,8.5-2.2,12.7c-0.6,3.4-1.2,6.8-1.9,10.2c-0.2,0-0.4,0-0.6-0.1c0.1-4.1,1-8.2,1.2-12.4c-0.2,0.4-0.4,0.7-0.5,1.1
			c-0.9,6-1.7,11.9-2.5,17.9c-0.6,3.9-1.3,7.8-1.8,11.7c-0.4,3.1,0.4,4.4,3.1,5.7c0.7,0.4,1.5,0.4,1.8,1.6c0.2,0.9,1.8,1.2,2.2,0.6
			c1.4-1.9,3.6-3.1,4.1-5.7c0.7-3.8,1.5-7.6,2.3-11.4c1.1-5.2,1.1-10.5,2.9-15.6c0.7-1.9,1.4-3.8,1.9-5.8c1.2-4.1,0.9-8.6,3.7-12.2
			c0.1-0.2,0.2-0.6,0.1-0.8c-1-1.7,0.3-1.9,1.4-2.4c3.6-1.5,7.5-2.3,11.2-3.7c1.7-0.7,2.7-2.2,4.4-2.9c4.1-1.7,8.6-2.9,12.1-5.8
			c1-0.8,2.2-1.4,3.4-1.8c3.6-1.4,6.5-3.8,9.7-5.9c5.3-3.6,10.2-7.6,15.7-10.8c0.6-0.3,1.5-0.7,1.3-1.3c-0.6-2.6,1.5-2.9,2.9-3.8
			c0.6-0.4,1.4-0.5,1.2-1.5c-0.2-1.4,0-2.6,1.5-3.2c2.5-1.1,4.5-2.9,7-3.9c-3.8-0.2-7.2,1.1-10.6,2.2c-12.1,4-23.8,9.2-35.7,13.9
			c-2.6,1-5.2,2.3-7.8,3.3c-3,1.1-6.2,1.9-9.4,2.7c-0.5,0.1-1.1,0.6-1.6,0.2c-0.6-0.5,0.1-1.1,0.2-1.6c0.7-2.7,1.2-5.5,2.2-8.1
			c0.7-1.9-0.1-3.8,0.4-5.7c1.8-6.5,3.6-13,4.7-19.6c0.1-0.6,0.4-1.3-0.3-1.8c-1.4-1.1-0.7-1.6,0.5-2c1.8-0.6,3.6-1.1,5.4-1.5
			c3.7-0.7,6.8-2.9,10.4-4c5-1.5,10.1-2.5,14.7-5.4c1.6-1,3.1-2.2,4.8-3.1c2.7-1.4,5.6-2.6,7.9-4.6c1.2-1,2.1-2.2,3.5-3.1
			c2.8-1.7,5.5-3.4,7.8-6.1c4.5-5.2,9-10.4,14.5-14.8c-1.8-0.9-1.9-1-0.4-2.2c1.8-1.4,3.8-2.5,4.5-4.8c0.2-0.6,1.5-0.5,1-1.4
			c-0.4-0.8-1.4-0.6-2.2-0.6c-3.4-0.1-6.6,1-9.8,2.1c-9,3-17.4,7.5-26.1,11c-1.1,0.4-2.3,0.7-3.2,1.8c0.9,0.4,1.6-0.6,2.5-0.2
			c-0.1,0.7-0.6,0.7-1,0.8c-2.4,0.8-4.6,1.6-7.3,1.7c-2.9,0.1-5.4,2.3-8.4,3c-5.5,1.3-10.7,3.6-16.3,4.6c-1.7,0.3-2-0.1-2-1.6
			c0-4-0.1-8-0.9-12c-0.2-1.2,0.1-3.2-1.1-3.3c-1.3-0.1-1.7,1.9-2.2,3.1c-1.8,4.8-3.9,9.6-4.4,14.8c-0.1,1.2-0.5,2.3-2,2.7
			c-9,2.2-18.1,4-27.3,4.9c-7.8,0.8-15.5,2.2-22.7,5.6c-3,1.4-6.1,2.4-9.4,3c-0.8,0.2-1.7,0.3-2.5,0.6c-0.7,0.2-1.2,0.6-1,1.4
			c0.6,2.6,1.7,4.9,4.2,6.2c2.9,1.4,5.9,1.2,9.1,1.2c10.4-0.2,20.7,1.9,31,2.8c4.4,0.4,8.6,1.4,12.9-0.4c1.2-0.5,1.7,0,1.2,1.2
			c-0.9,2-0.7,3.9,0,5.8c0.5,1.3,0.5,2.7-0.4,3.9c-0.6,0.8-1,1.8-1.1,2.8c-0.4,4-1.6,7.9-1.8,12c-0.2,3.1-0.2,6.6-1.9,9.6
			c-0.4,0.7-0.4,1.5-0.7,2.2c-0.5,1.1,0.5,2.8-1.7,3.4c-0.8,0.2-1.8,1.2-2.8,1.6c-6.9,2.4-14,4.3-21,6.5
			c-10.3,3.2-20.2,7.4-30.9,9.2c-0.9,0.1-1.8,0.7-1.9,1.7C119.7,121.5,122.6,126,123.5,126.1z"/>
		<path d="M341.6,55.2c0.4,1,1.3,1.7,2.4,1.7c0.4,0,0.7-0.1,1-0.2c0.2,0,0.4,0,0.6,0.1l0.3,0c0.6,0.1,1.1,0.2,1.6,0.4
			c1.1,0.3,2.3,0.6,3.6,0.6c1.1,0,2.3,0,3.4,0c1.1,0,2.3,0,3.3,0c-1,1.2-2,2.4-3,3.5c-2.3,2.6-4.6,5.3-6.8,8.1l-8.7,14.8
			c-2.9,3.7-5.7,7.4-8.6,11.1c-7.3,9.2-15.4,17.6-24.5,25.2l0.1,0.5c-2.3,1.4-4.5,2.9-6.9,4.2c-3.8,1.9-7.4,4-11.3,5.7
			c-2.5,1.1-5,2.1-7.5,3.2c-2.2,0.9-4.5,1.5-6.7,2.3c-3.6,1.2-7.3,2-11,2.2c-0.5,0-1.2-0.1-1.2-0.5c-0.2-1.1-1.1-1.6-1.7-2.4
			c-0.8-1-0.9-2.2-1.4-3.4c-0.8-1.8-0.5-3.8,0.1-5.5c0.9-2.4,2.6-4.4,4-6.5c1.1-1.6,2.5-3.1,3.8-4.6c1.1-1.4,2.8-1.7,4.3-0.9
			c1.7,0.9,3.4,1.8,5.4,2.1c2.3,0.4,4.5-0.3,6.7-0.7c1.7-0.3,3.4-1.3,4.9-2.4c1.4-1,2.9-1.9,4.3-2.9c1.5-1,2.8-2.3,4.2-3.4
			c0.9-0.8,1.6-1.6,2.4-2.6c0.5-0.6,0.5-1.5,1.3-2c1.5-1,2.8-2.3,3.6-4c0.5-1.1,1.2-2.1,1.7-3.1c0.5-0.8,1-1.6,1.7-2.3
			c0.8-0.8,1.6-2,1.4-3.1c-0.1-0.9,0.1-1.4,0.5-2c0.6-0.8,0.7-1.7,0.7-2.7c0-0.9-0.4-1.8-0.2-2.8c0.3-0.9-0.5-2.8-1.4-3.3
			c-1.3-0.7-2.3-1.9-3.8-2.3c-1.2-0.4-2.4-1-3.6-1.5c-1.5-0.6-3.1-0.5-4.6-1.2c-1.8-0.8-3.9-0.1-5.9-0.4c-1.8-0.2-3.6,0.3-5.3,0.7
			c-0.9,0.2-1.8,0.7-2.7,0.6c-1.8-0.2-3.1,0.9-4.6,1.5c-1,0.4-1.5,1.4-2.5,1.8c-1.1,0.5-2.1,0.9-2.6,2.2c-0.2,0.6-0.7,1.1-1.5,1.2
			c-1.1,0.2-1.4,1.3-2.2,1.9c-0.4,0.3,0.1,0.9,0,1.2c-0.4,0.9-0.4,2.1-1.6,2.3c-3,0.6-4.9,2.7-6.7,4.9c-1.3,1.7-2.3,3.7-4,5
			c-1.1,0.8-1.4,2.3-2.4,3.2c-0.9,0.8-1.8,1.8-1.2,3.2c0.1,0.3-0.2,0.6-0.5,0.7c-1,0.4-1.5,1.3-2,2.2c-0.8,1.5-1.2,3.2-2.6,4.3
			c-0.3,0.2-0.3,0.7-0.4,1.1c-0.2,1.1-0.3,2.4-0.9,3.4c-0.7,1.1-1.5,2.1-1.9,3.4c-0.3,1-0.7,2-1,3.1c-0.3,1.2-0.5,2.3-0.6,3.5
			c-0.1,1.3,0.3,2.6-0.5,3.9c-0.4,0.7-0.3,1.8-0.1,2.6c0.4,1.8,1.4,3.5,1.7,5.3c0.1,0.5,0,1.1,0.4,1.5c1.1,1.3,2.2,2.6,3.2,3.9
			c1.9,2.3,4.6,3.3,8,5.2c1.4,1,4,1.7,6.6,2c3.6,0.3,7.3,0.7,11,0.9c3,0.1,6.1-0.3,9.1-0.6c1-0.1,2-0.5,3.1-0.2
			c0.3,0.1,0.7,0,0.8-0.3c0.4-0.7,1.2-1,1.8-1.2c0.9-0.3,1.5-1.2,2.4-1.1c0.6,0.1,1.3,0,1.8,0.1c2.4,0.2,4.1-1.1,5.9-2.2
			c1.8-1.1,3.5-2.5,5.5-3.3c1.8-0.7,2.7-2.1,3.9-3.3c0.3-0.3,0.6-0.7,0.8-1.1c0.7-0.5,1.3-1,2-1.5c3.4-3.1,6.3-6.6,8.9-9.7l0.2-0.3
			c2-2.4,4.1-4.9,5.9-7.5c1.2-1.6,2.3-3.2,3.5-4.8c2.1-2.8,4.2-5.7,6.3-8.7c1.3-1.9,2.6-3.7,4-5.5c1.4-1.9,2.7-3.7,4-5.6
			c1.7-2.5,3.5-5.2,5.5-7.6c2.6-3.2,5.3-6.4,7.9-9.4c-3.3,9-6.5,18.5-8.6,28.6c-1.2,6-2.2,12.9,1.6,19.5c0.5,1.9,2,2.1,2.5,2.1
			c0.2,0,0.4,0,0.6-0.1c1.1,0.1,1.9-0.4,2.2-0.8c0.3-0.3,0.5-0.7,0.6-1.2c1.8-0.9,2.4-2.6,2.7-3.5c0.2-0.7,0.5-1.4,0.7-2
			c0.9-2.5,1.8-5.1,2.4-7.8c0.4-1.7,0.9-3.4,1.4-5.1c0.5-1.7,1-3.4,1.4-5.2c0.5-2.4,1.1-4.9,1.7-7.3c0.5-2.3,1.1-4.5,1.6-6.8
			c1.2-5.4,2.8-11.2,4.9-18.3c1.2-4,2.3-7.3,3.5-10.3l0.2-0.2c2.2-0.3,4.4-0.6,6.6-1l2.2-0.4c2-0.3,4-0.9,5.9-1.4
			c1.4-0.4,2.8-0.8,4.2-1.1c7.3-1.6,13.6-3.4,19.2-5.7l1.3-0.5c2.5-1,5-2,7.5-3.3c0.8-0.4,1.5-0.8,2.3-1.2c2.2-1.2,4.3-2.3,6.6-3
			c1.4-0.5,2.8-1,4.3-1.5c0.9-0.3,1.7-0.7,2.6-1l0.9-0.3c3.4-1.2,6.9-2.4,10.4-3.6c0.7-0.2,1.6-0.3,2.5-0.3c0.8,0,1.5-0.1,2.3-0.2
			l13.5-2.3l-13.6-1.8c-1.9-0.2-4.2-0.1-6.4,0.1l-0.3,0c-7.8,0.8-15.3,2-22.5,3.7c-3.2,0.8-6.3,1.5-9.4,2.3
			c-7.8,1.9-15.8,4-23.8,5.4c-2.2,0.4-4.4,0.8-6.6,1.2l-1.4,0.3c0.2-0.4,0.5-0.8,0.7-1.2c2.4-3.8,4.6-7.7,6.7-11.5l1.4-2.5
			c1.1-2,2.3-3.9,3.5-5.8c1.5-2.3,3-4.7,4.3-7.2c1.3-2.5,2.6-5,2.5-8.3c-0.1-2.2-1.5-2.9-2.8-2.9c-0.2,0-0.3,0-0.5,0
			c-0.7,0.1-1.5,0.2-2.2,0.2c-3.2,0.3-6.8,0.7-9.8,3.3c-2,1.7-2.5,4.1-1.2,5.8c0.4,0.5,0.4,0.7-0.6,2.3c-0.8,1.2-1.6,2.4-2.4,3.6
			c-1.3,1.9-2.5,3.8-3.7,5.7l-2.4,3.7c-3.1,5-6.4,10.2-9.4,15.4c-1.5,2.6-3.1,3.6-6.1,3.8c-4.5,0.3-8.9,1.4-13.2,2.4l-2.1,0.5
			c-1.4,0.3-2.6,0.8-3.7,1.5C341.7,52.5,341.2,53.9,341.6,55.2z M274,105.3c1.6-2.3,3.3-4.4,5.2-6.4c1.8-1.9,3.8-3.8,6.4-4.9
			c0.4-0.2,0.8-0.2,1.1,0c0.3,0.2-0.1,0.5-0.2,0.7c-1.1,1.7-2.7,3.1-4.1,4.6c-1.6,1.6-3.4,3-5,4.6c-0.9,0.9-2.1,1.3-3.1,1.9
			c-0.1,0.1-0.3,0.1-0.4,0C273.7,105.6,273.9,105.4,274,105.3z M309.6,134.7c0.1-0.1,0.2-0.3,0.3-0.4l-1.1,1.9
			C309,135.7,309.2,135.1,309.6,134.7z"/>
		<path d="M264.1,63c-1.4,0-2.4,0.7-2.8,1.7c-0.2,0.5-0.4,1.4,0.4,2.4c0,0.2,0,0.5,0.1,0.7c0,0.2,0,0.3,0.1,0.5
			c0.1,0.9,0.3,3,2.4,3.5c1,0.3,2,0.4,3,0.3c1.4,0,2.7-0.3,3.9-0.9c4.1-1.8,7.9-4.2,11.2-7.3l0.7-0.7c0.8-0.8,1.6-1.5,2.4-1.9
			c2.1-1.2,3.7-2.9,5.3-4.4c0.4-0.4,0.7-0.7,1.1-1.1c2.2-2.2,4.2-4.6,6.1-7c1.5-1.8,3-3.7,4.7-5.5c1.5-1.6,3.1-3.3,3.9-5.7
			c0.1,0.1,0.3,0.2,0.4,0.3l1.2,1.2c1.2,1.1,2.4,2.3,3.8,3.4l0.7,0.6c1.6,1.4,3.4,3,5.9,3.6c2.6,0.6,5.4-0.1,7.9-0.8l0.5-0.2
			c2.7-0.8,4.9-2.3,7-3.7c1.7-1.1,3.2-2.2,5-2.9l3.1-1.3l-2.6-2.2c-0.6-0.5-1.3-0.8-2-0.7c-0.3,0-0.6,0.1-0.7,0.1l-2.5,0.6
			c-1.4,0.3-2.8,0.7-4.2,1c-1.5,0.3-2.8,0.5-4.1,0.6c-3.9,0.1-7.1-1.2-9.9-4c-2.4-2.4-5.3-5.1-9.6-6c-1.5-0.3-2.8-0.5-3.9-0.4
			c-2,0-3.8,0.6-5.3,1.8c-8,5.8-14.3,13.1-18.9,18.7c-1.1,1.3-2.1,2.6-3.2,4c-2.8,3.6-5.7,7.3-9,10.5
			C265.2,62.7,264.7,62.9,264.1,63z"/>
		<path d="M460.5,98.8c1.2-1.1,1.8-2.3,2.1-3.9c0.1-0.9,0.5-1.7,1.3-2.2c0.3-0.2,0.7-0.4,0.7-0.8c0.4-1.7,1.3-3.2,2.2-4.7
			c1.1-1.9,1.7-3.8,2.2-5.9c-0.7,0-1.1,0.3-1.5,0.7c-1.6,1.8-3.6,3.1-5.6,4.4c-3.1,2.2-6.4,4.3-9.8,6.2c-1.2,0.7-2.3,1.7-3.5,2.3
			c-2.3,1.2-4.4,2.8-6.7,4.1c-1.8,1.1-3.6,2.4-5.4,3.3c-2.9,1.4-5.5,3.1-8.2,4.7c-2.7,1.5-5.4,2.9-8.2,4.2
			c-3.3,1.6-6.8,2.8-10.3,3.9c-2.6,0.8-5.1,1.7-7.9,1.4c-1.6-0.2-2.3-0.7-2.9-2.2c-0.6-1.4-0.3-2.8-0.4-4.1
			c-0.1-0.9,0.8-1.6,1.9-1.7c0.5,0,1,0.1,1.5,0c1.9-0.1,3.8,0.1,5.6-0.4c1.3-0.4,2.6-0.7,4-0.8c1.1-0.1,2.1-0.4,2.9-0.9
			c1.6-1.1,3.7-1.3,5.2-2.6c0.9-0.8,2.4-1,3.2-1.8c1.8-2,4.2-3.2,5.6-5.5c1.3-2.2,4-3.2,5.1-5.5c0.1-0.1,0.3-0.2,0.4-0.2
			c0.3-0.1,0.5-0.3,0.5-0.6c-0.1-0.7,0.4-1,0.7-1.5c0.6-1.1,1.7-1.9,2.2-3c1-2.1,2-4.2,2.8-6.5c0.7-2.1,0.2-3.8-1.7-4.7
			c-1.3-0.6-2.3-1.6-3.6-2.1c-1.6-0.7-3.1-1.5-4.8-2c-1.5-0.4-3.1-0.3-4.6-0.6c-2.1-0.4-4.3-1-6.4-0.3c-0.9,0.3-1.6,0.5-2.4-0.1
			c-0.4-0.3-1.2-0.2-1.8,0c-0.3,0.1,0.4,0.5,0.2,0.9c-1.1-0.6-1.7-0.4-1.6,0.2c0.3,1.1-0.4,1-1,1c-0.5,0-0.9-0.1-1.3,0.3
			c-0.4,0.4-0.8,0.2-1.1-0.1c-0.9-1.1-1.8-0.3-2.6,0c-0.3,0.1-0.7,0.4-0.6,0.7c0.1,0.4,0.5,0.3,0.9,0.2c0.3-0.1,0.6-0.1,0.8,0.2
			c0.1,0.2,0.1,0.4,0,0.6c-0.2,0.4-0.6,0.4-0.9,0.2c-0.5-0.3-0.9-0.3-1.3,0.2c-0.2,0.3-0.5,0.4-0.9,0.3c-0.6-0.1-0.9,0.1-1,0.6
			c-0.1,0.3-0.1,0.5-0.4,0.5c-1.4,0.2-2.5,0.9-3.6,1.7c-0.5,0.4-1.3,0.5-1.8,1.1c-1.1,1.5-2.3,2.7-4,3.5c-0.7,0.3-1.6,0.8-1.8,1.4
			c-0.6,1.8-1.9,2.8-3,4.1c-0.8,1-2.3,1.3-2.6,2.7c-0.3,1.5-1.2,2.5-2.2,3.5c-0.9,0.9-1.7,1.8-2,3c-0.5,1.8-1,3.4-2.4,4.7
			c-0.2,0.2-0.4,0.4-0.3,0.7c0.4,0.8-0.1,1.3-0.6,1.8c-0.3,0.3-0.5,0.6-0.5,1c-0.3,2.6,0.3,5.1,0.3,7.7c-0.1,2.9,1.4,5.5,3.3,7.7
			c2.6,2.9,5.6,5.2,8.8,7.4c0.7,0.4,1.5,0.1,2.1,0.7c0.7,0.7,1.7,1.1,2.6,1.5c1.8,0.9,3.7,1.5,5.7,2.1c2.2,0.7,4.4,1.6,6.8,1.8
			c0.6,0,1.3-0.1,1.8,0.2c2,1.1,4.2,0,6.4,0.5c1.8,0.4,3.5-0.6,5.3-0.8c2-0.2,3.8-1.2,5.7-1.7c0.6-0.1,1.2-0.2,1.7-0.6
			c1.4-1.2,3.4-1.2,4.9-2.3c1.5-1,3.6-0.9,4.3-3c0-0.1,0.3-0.2,0.4-0.3c2.1-0.9,3.6-2.4,5-4.2c0.2-0.2,0.4-0.3,0.7-0.2
			c0.4,0,0.7-0.1,0.9-0.4c1.2-1.6,2.5-3.2,3.6-4.9c0.4-0.6,1.2-1,1.2-1.9c0-0.5,0.3-0.6,0.6-0.9c1.1-0.8,2.2-1.8,2.2-3.2
			c0-0.7,0.2-0.9,0.7-1.2c1.1-0.7,1.9-1.4,1.5-2.9c-0.1-0.4,0.2-0.9,0.5-1.3C457.4,102.3,458.8,100.4,460.5,98.8z M405.8,93.9
			c1.2-0.8,2-2.2,2.9-3.4c1.3-1.8,2.9-3.2,4.8-4.3c0.5-0.3,0.9-0.8,1.2-1.2c1.3-1.6,3-2.5,4.9-2.9c0.2,0.7-0.1,1.1-0.4,1.6
			c-1.3,1.9-3,3.3-4.6,4.9c-1.7,1.6-3.5,3.1-5.3,4.6c-1.3,1.1-2.8,2.1-4.5,2.8C404.8,95,404.9,94.5,405.8,93.9z"/>
		<path d="M320.3,218.6c-0.3,0-0.5,0-0.8,0l-1,0.1c-2.5,0.2-5,0.4-7.5,0.8c-1.3,0.2-2.8,0.6-4.1,1.8c1.3-3.8,1.5-7.6,1.7-11.3
			l0.1-1.1c0.1-1.2-0.3-2.1-0.6-2.8c-0.3-0.7-0.6-1.4-0.9-2.1c-0.2-0.5-0.3-0.9-0.5-1.4c-0.2-0.6-0.4-1.2-0.6-1.8
			c-0.7-1.9-2.3-3.2-4-3.2c-0.6,0-1.2,0.2-1.8,0.5c-0.4,0.2-0.8,0.4-1.3,0.6c-1.2,0.5-2.7,1.1-3.9,2.6l-0.6,0.8c-2,2.5-4,5-5.1,8.3
			c-2,6.4-1.3,11.6,2.2,15.9c0.1,0.1,0.1,0.1,0.1,0.1c0,0,0,0.1-0.1,0.3c-1.6,4.5-3.6,7.7-6.1,10.3c-0.3,0.3-0.6,0.6-0.8,0.9
			c-1.4,1.8-0.9,3.4-0.5,4.2c0.9,1.7,2.6,1.8,3.3,1.9c3.7,0.2,7.1-0.8,10-3.2c2.3-1.8,4.1-4.1,5.7-6.8c0.2-0.3,0.3-0.4,0.3-0.4
			c0,0,0.2,0,0.5,0c0,0,0,0.1,0,0.1c-1.5,8.4-1.7,17.4-0.6,28.4c0.3,2.5,0.7,4.9,1.2,7.3c0.6,3.1,1.6,5.7,2.9,7.9
			c1.5,2.5,3.5,4.1,6,4.6c0.3,0.1,0.5,0.1,0.4,0.1c0.7,0.8,1.7,1.3,2.7,1.3c0.4,0,1-0.1,1.6-0.4c0.4,0.3,1,0.5,1.6,0.5
			c1.6,0,2.4-1.3,2.9-2.1c0.7-1.2,0.9-2.5,0.6-3.9c-0.5-2.4-0.9-5-1.3-7.6c-0.9-6-1-12.4-1.2-17.9c-0.2-7.4,0.6-14.1,2.2-20.4
			l0.4-1.6c0.4-1.7,0.9-3.4,1.2-5.1c0.3-1.3,0.5-3.1-0.7-4.5C323.2,219.1,321.9,218.6,320.3,218.6z"/>
		<path d="M289.2,280.5c0-0.5-0.1-1-0.6-1.1c-0.5-0.2-0.8,0.3-1.1,0.6c-1,1.4-2.2,2.5-3.8,3.3c-1.7,0.9-2.4,0.7-3.6-0.7
			c-1.3-1.5-1.6-3.3-1.9-5.1c-0.6-5.7-0.6-11.4,0.4-17.1c0.8-5,1.7-9.9,1.1-15c-0.3-2.3-0.7-4.5-1.7-6.6c-0.9-2-2.3-3.1-4.6-3.2
			c-1,0-2-0.1-3-0.3c-2.6-0.7-5.2-1-7.9-0.5c-1.4,0.3-1.9-0.3-1.4-1.7c0.7-2,1.5-4,2.4-6c1.9-4.4,2.2-9,2-13.7
			c0-0.6-0.1-1.2-0.4-1.8c-0.6-1-1.5-1.1-2.2-0.2c-0.6,0.8-1.3,0.9-2.2,1c-0.8,0-1.6,0.1-2.2,0.4c-1.4,0.6-2.8,0.8-4.2,0.5
			c-1.8-0.4-3.2,0.6-4.6,1.6c-0.7,0.5-0.9,1.1-0.3,1.7c0.4,0.5,0.6,1,0.3,1.7c-0.4,0.8-0.7,1.7-0.9,2.6c-0.1,0.3-0.2,0.6-0.6,0.6
			c-0.3,0-0.6-0.2-0.7-0.5c-0.3-0.6-0.6-1.2-1-2.3c-0.4,1.1-0.4,1.9-0.1,2.5c1.6,2.8,1.7,6,1.9,9.1c0.1,0.7,0.2,1.5,0.5,2.2
			c0.6,1.5,0.5,2.8-0.4,4.1c-1.1,1.8-2.2,3.7-3.2,5.6l-0.6-1.4c-3.3,0.3-14.5,12.3-17.8,15.1c-0.4,0.4-1,0.7-1.7,1.1
			c-0.4,0.3-0.8,0.5-1.2,0.8c-0.7,0.5-1.3,0.9-2,1.4c-2.1,1.5-4.1,2.9-6.1,3.9c-3.3,1.6-6.6,3.3-10.1,4c-0.4,0.1-0.6,0.1-0.8,0.1
			c-0.1-0.1-0.3-0.3-0.5-0.8l-0.2-0.3c-0.3-0.6-0.6-1.1-0.8-1.7c-0.4-0.9-0.8-1.7-1.2-2.3c0.3-0.5,0.7-1,1-1.6
			c1.1-2.2,1.9-4.3,2.7-6.4c0.4-1,0.8-2,1.2-3.1c2.2-5.3,3.3-10.3,3.4-15.3c0.1-4.5-1.3-8.4-4-11.8c-2.5-3-5.9-4.6-9.7-4.3
			c-1.9,0.2-3.8,0.6-5.5,1.2c-0.9-2.1-2.8-3.5-5.3-3.9c-2.8-0.4-5.2,0.2-7.3,1.7c-1.3,1-2.7,2.1-4.1,3c-1.8,1.2-3.5,2.6-5.1,4.1
			c-10.6,3.3-20.7,7.9-30.6,13c-4.5,2.3-9.1,4.5-14.4,7.1c0.2-2.6,0.2-4.5,0.5-6.4c1.2-8.8,2.4-17.6,3.9-26.3
			c1.4-8.1,3.3-16.2,5.1-24.3c1.8-8.2,3.7-16.3,5.5-24.5c0.3-1.1,0.6-2.3-0.7-3c-1.4-0.7-2.3,0.2-3.1,1.2c-3,4.4-6.3,8.5-8.5,13.4
			c-5,11.1-8.9,22.6-12,34.3c-3.3,12.8-5,25.8-5.7,39c-0.1,1.6-0.7,2.4-2.1,2.9c-2.5,0.8-5,1.6-7.5,2.6c-5.1,2-10.2,4.1-15.4,6.1
			c-7.4,2.9-14.8,5.7-22.3,8.5c-0.6,0.2-1.3,0.2-2.3,0.3c0.2-1.8,0.3-3.3,0.5-4.8c1.4-9.4,2.8-18.8,4.3-28.1c1.1-7,1.9-14,3.2-20.9
			c2-10.1,4.5-20.1,6.7-30.2c1-4.6,2.4-9.1,2.2-13.8c-0.1-2.2,0.3-4.3,1.9-5.8c-0.9-2.5-1-5.1-3-6.9c-0.1-0.1-0.2-0.4-0.2-0.6
			c-0.9-3.7-1.7-7.3-2.7-11c-0.6-2.1-1.2-4.3-2.3-6.3c-1.2-2.2-2.7-2.3-4.9-1.1c-1.2,0.7-2.5,1.4-3.8,2c-2,0.8-3.5,2.3-4.3,4.2
			c-0.8,1.9-1.3,4.1-1.5,6.2c-0.3,2.3-0.1,4.6-0.1,7c-0.2,8-2,15.8-3.8,23.5c-1.8,7.7-3.9,15.4-5.4,23.2c-1.9,9.8-3.4,19.7-4.9,29.6
			c-1.9,12.9-3.5,25.9-5.2,38.8c-0.4,3-0.5,3.2-3.5,3.7c-6.1,0.8-12.2,1.4-18.2,2.1c-2,0.2-4,0.1-5.9-0.9c-2.1-1.1-6.2,0.9-6.3,3.2
			c-0.1,2.8,0.3,5.7,1,8.3c0.4,1.6,1.9,2.8,2.9,4.2c2.7,3.7,6.6,5.5,10.9,6c4.2,0.5,8.5,0.3,12.8,0.5c1.2,0,2.3,0.1,3.7,0.2
			c-0.6,5-1.3,9.5-1.6,14.1c-0.5,5.4-1.7,10.9,0.5,16.3c0.2,0.5,0.2,1,0.2,1.5c0.1,4.6,1.3,8.8,3,13c0.3,0.6,1,1.1,1.6,1.6
			c0.6-0.6,1.5-1.1,1.7-1.8c0.5-1.9,0.7-3.8,0.9-5.7c1.7-13.3,3.7-26.5,9.4-38.8c1-2.1,2.2-3.4,4.5-4c8.4-2.1,16.6-5,24.3-9.1
			c9-4.8,17.9-9.7,26.9-14.6c1-0.5,2.1-0.9,3.5-1.6c0.1,4.1,0.1,7.7,0.4,11.2c1.1,13.1,2.2,26.2,3.4,39.3c0.1,1,0.4,2.3,1.1,2.7
			c2.4,1.3,2.9,3.6,3.2,5.9c0.4,3.1,2.2,5.6,3.7,8.2c0.1,0.1,0.4,0.1,0.9,0.1c0.2-0.7,0.6-1.4,0.7-2.1c0.3-2.6,0.5-5.3,0.6-7.9
			c0.1-6.1,0.2-12.2,0.3-18.3c0.1-7.1,0.3-14.3,0.3-21.4c0-7.4-0.2-14.9-0.4-22.3c0-2,0.5-3.2,2.3-4.2c3.3-1.7,6.4-3.6,9.6-5.4
			c4-2.3,7.9-4.6,11.8-7c3-1.9,5.8-4.2,8.9-5.8c0.6-0.3,1.3-0.7,1.9-1c-1.2,3.3-2.3,6.8-3.2,10.7c-1.3,5.4-1.9,10.4-1.7,15.3
			c0.2,5.9,2,10.6,5.5,14.3c3.2,3.4,7.1,5.2,11.5,5.2h0.2c4.7,0,8.3-2.1,10.9-4c4.6-3.3,8.5-7.1,11.6-10.6c1.6,1.4,3,2.7,4.5,3.8
			c6.1,4.6,13.1,5.1,20,1.3c3.1-1.7,6-3.9,9.1-6.7c1.6-1.5,3.2-3.1,4.7-4.7c2.4-2.5,4.7-4.9,7.2-6.9c0.6-0.5,1.1-0.9,1.8-1.5l3-3.7
			c0.7-0.5,0.9-1,1.2-1.5l0.6-0.8c0.2-0.2,0.6-0.4,1-0.7c1.1-0.6,1.3-1.8,1.8-2.9l1.2-1.5v0c2-2,5.5-3.9,6.6-5.8
			c1.3-2.3,1.8-2.5,4.2-2c0.3,0.1,0.6,0.1,0.9,0.2c1.7,0.4,1.9,0.6,1.7,2.3c-0.3,2.6-0.7,5.1-1,7.7c-0.8,7-0.8,14,1,20.9
			c2,7.6,6.8,12.7,14.3,15.1c0.8,0.3,1.6,0.5,2.5,0.3c0.9-0.2,1.8,0.1,2.7,0.3c2.3,0.6,4.2,0,5.9-1.6c0.7-0.6,1.4-1.2,2.2-1.7
			c1.4-0.9,1.6-1.7,0.4-2.9C289.7,282.4,289.2,281.6,289.2,280.5z M197.4,237.6c-0.4,1.9-1.4,3.8-2.4,5.8c-0.4,0.7-0.7,1.4-1.1,2.1
			c-3.4,7.1-8.7,13.5-16.5,20.2c-1.6,1.4-3.3,2.2-5,2.6c-0.2,0-0.4,0.1-0.5,0.1c-0.1-0.1-0.1-0.3-0.2-0.5c-0.7-2.4-0.9-4.8-0.5-7.3
			c0.9-5.2,2-10.6,4.5-15.3l8.1-4c2-1,3.3-2.5,4.2-3.5c0.2-0.2,0.4-0.4,0.6-0.7c2.5-2.7,4.5-4.2,6.7-5.2c1-0.4,1.5-0.5,1.7-0.5
			c0,0,0.4,0.3,0.8,1.7c0.1,0.4,0.1,0.7,0.1,1C197.9,235.3,197.7,236.5,197.4,237.6z"/>
		<path d="M355.5,227.9c-0.4-1.2-0.8-2.3-1.2-3.1c-0.5-1.1-1.2-1.8-1.6-2.3c-0.1-0.2-0.3-0.3-0.4-0.5c-1.8-2.4-3.8-2.9-5.2-2.9
			c-1,0-2.1,0.3-3,0.9c-4,2.4-4.9,8.2-4.1,12.6c0.6,3.1,0.7,5.8,0.3,8c-0.7,4.2-1.1,8.1-1.2,12.1c-0.2,3.8-0.1,7.6,0,11.5
			c0,1,0.1,2.1,0.3,3.3c0.3,1.1,0.3,2,0.2,2.7c-0.2,1-0.1,2,0.2,3.1c0.4,1.2,0.7,2.4,0.9,3.5c0.2,1.4,0.5,2.9,1.4,4.3c0,0,0,0,0,0
			c-0.1,2,0.4,3.8,0.9,5.5c0.7,1.9,2.2,3.2,3.9,3.5c0.9,0.7,1.9,0.8,2.3,0.8c0.4,0,0.8-0.1,1.2-0.2c1.6-0.5,2.7-1.9,2.9-3.6
			c0.1-1,0.4-2,0.7-3.1c0.1-0.4,0.3-0.9,0.4-1.3c0.1-0.3,0.2-0.6,0.3-0.9c0.3-1,0.6-2.1,0.8-3.4c0.5-3.8,0.8-7.4,0.9-10.9
			c0-1.4,0.1-2.8,0.2-4.2c0.1-1.2,0.1-2.4,0.2-3.6l0-0.8c0.1-2.1,0.1-4.2,0.1-6.4c-0.1-4.8-0.2-9.1,0.2-13.3c0.1-1.5,0.2-3.1,0-4.8
			C356.7,232.6,356.3,230.2,355.5,227.9z"/>
		<path d="M485.8,185.9c7.1-1.8,13.8-5.1,20.8-7.1c4.5-1.2,9-2.4,13.2-4.4c3.3-1.6,7.2-1.8,10.3-4.1c1-0.8,2.8-0.3,3.2-2.4
			c0.1-0.7,2.2-0.1,3.5-1.1c-1-1.2-2.3-1.5-3.6-1.6c-2.1-0.2-4.2-0.3-6.3-0.1c-13.7,0.9-27.3,3.2-40.8,5.7c-2.7,0.5-2.8,0.5-2.8-2.2
			c-0.2-12.1-0.1-24.2,1.1-36.2c0.3-3,0.8-6,0.6-9c0-0.9,0-1.9-1-2.4c-1.1-0.5-2-0.2-2.9,0.6c-2.3,1.9-4,4.2-5.2,6.9
			c-3.7,7.9-5.5,16.3-7,24.8c-0.9,5.7-1.6,11.5-2,17.3c-0.1,1.8-0.8,2.6-2.8,2.7c-3,0.1-6,0.4-9,0.9c-7,1.2-14,2.5-21,3.2
			c-9,0.9-17.9,2.9-27.1,1.8c-1.4-0.2-2.7,0.6-2.8,2c-0.1,2-1.1,3.7-1.4,5.7c-0.9,5.6,2.7,9.5,7.5,9c1.3-0.1,2.6-0.2,3.8-0.5
			c2.8-0.7,5.7-0.9,8.6-0.9c10.1,0,20.2-0.6,30.3-2c3.8-0.5,7.6-1.1,11.4-1.8c1.6-0.3,2.5,0,2.5,1.8c0,1.2,0.2,2.3,0.3,3.5
			c0.5,6.4,0.9,12.8,1.5,19.1c1.3,14.9,3.9,29.8,3.3,44.8c-0.1,2.8,1.1,5.4,2.6,7.8c1.4,2.2,2.7,4.5,3.1,7.3
			c0.2,1.8,0.8,3.6,1.3,5.4c0.1,0.6,0.5,1.1,1.2,0.9c0.5-0.1,0.7-0.6,0.8-1c0.3-2.5,0.6-5.1,0.7-7.6c0.4-10.9,0.7-21.9,1.6-32.7
			c0.7-8.8,1.8-17.6,1.8-26.4c0-8.1-0.3-16.3-0.9-24.4C484.2,187.5,484,186.3,485.8,185.9z"/>
		<path d="M628.9,185.8c-18.6,1.7-37.1,3.4-55.6,5.9c-3.6,0.5-3.9,0.2-3.9-3.6c-0.1-7.8,0.1-15.5,0.6-23.3
			c0.3-5.2,1.4-10.5-0.2-15.8c-1.4-4.5-3.8-5.2-7.6-3.5c-2.6,1.2-5.2,2.5-7.9,3.6c-1.7,0.7-3.4,1.2-5.3,0.5
			c-2.3-0.8-4.3-0.4-5.8,1.6c-0.5,0.7-1.2,1.2-1.9,1.7c-2.2,1.6-3,3.6-1.9,6.3c1.7,4.1,2.2,8.4,1.8,12.8c-0.4,5.6-0.5,11.1-0.9,16.7
			c-0.3,5.5-1.1,6.2-6.4,6.8c-4.3,0.5-8.6,1.3-13,1.7c-4.3,0.5-8.6,1.6-13,1.1c-3-0.3-6,0.1-9,0.1c-1.4,0-2.6,0.5-3.7,1.3
			c-2.1,1.6-2.9,5.7-1.5,8c1.3,2.2,3.4,2.7,6.3,1.4c1.8-0.8,3.7-1.3,5.6-1.4c10-0.7,20-1.4,30.1-2.1c3.5-0.2,4.4,0.4,4.3,4
			c-0.1,9.3,0.8,18.6,1.8,27.9c0.5,4.3,1.1,8.7,1.9,12.9c2.1,10.3,6,20.2,9.3,30.1c0.7,2.2,1.7,4.2,3.7,5.7c1.5,1.1,2.6,2.9,3,4.9
			c0.5,2.1,1.9,2.6,3.8,2.7c2.3,0,4.2-0.8,5.8-2.4c2.6-2.6,3.3-5.9,3.1-9.4c-0.7-13.1-0.8-26.1-1.9-39.2c-1-11.4-1-22.7-1.2-34.1
			c0-2.2,1-3.4,2.8-4.1c0.8-0.3,1.6-0.6,2.4-0.7c5.9-0.7,11.8-1.5,17.7-1.8c9.1-0.5,18.1-1.6,27.1-2.5c8.9-0.8,17.7-2.1,26.5-3.8
			c4.5-0.9,9.1-1.1,13.6-1.9L628.9,185.8z"/>
		<path d="M446.5,258.9c-0.7-0.4-1.4-0.6-2.2-0.6c-1.7,0-3,0.8-4.2,2.8c-1.1,1.4-2.1,2.6-3.2,3.5c-1.2,0.9-2.1,1.8-2.8,2.8
			c-1.2,1.7-2.9,3.1-5.2,4.3c-0.5,0.3-1.6,0.8-2.3,2l-0.1,0.2l-0.1,0.1c-0.2,0.2-0.6,0.5-1.2,0.9l-0.3,0.2c-1.2,0.8-2.3,1.6-3.5,2.5
			c-2.4,1.8-4.9,3.4-7.4,4.8c-3.8,2.1-7.1,3.5-10.2,4.3c-1.1,0.3-2.1,0.4-3.1,0.4c-3,0-5.1-1.4-6.5-4.3c-1-2-2-6.2-1.9-8.2
			c0.3-3.9,1-7.1,1.7-10.4l0.1-0.6c0.4-2,0.9-4.2,1.3-6.6c0.6-3.9,2.2-7.5,4.8-11c0.8-1,1.5-1.8,2.2-2.3l0.5-0.4l0.7,0.1
			c1.5,0.2,2.8,0.3,4,0.3c1.2,0,2.4-0.1,3.4-0.3l0.4-0.1c0.9-0.2,3.1-0.6,4.5-2.6l0.1-0.2l0.2-0.1c0.8-0.7,1.3-1.6,1.5-2.6
			c0.1-0.8,0.2-2.3-1.2-3.9c-0.4-0.5-1.1-1.5-2.6-2l-0.2-0.1l-0.2-0.2c-0.1-0.1-0.5-0.4-0.5-0.4c-0.3-0.2-0.5-0.4-0.8-0.6
			c-1.4-0.9-2.8-1.4-4.2-1.4c-0.6,0-1.3,0.1-1.8,0.3l-0.6,0.2l-0.6-0.2c-0.1-0.1-0.3-0.1-0.4-0.2c-0.5-0.3-1.1-0.6-1.4-0.7l-0.3-0.1
			c-2-1-3.4-1.8-4.3-2.9c-0.1-0.2-0.2-0.3-0.3-0.4l-0.2-0.3l0-0.5c0-0.3,0.1-0.6,0.2-1c0.1-0.3,0.2-0.7,0.4-1
			c1.4-2.3,3.6-3.7,6.6-4.2c0.4,0,0.7-0.1,1-0.1c1.1,0,2.6,0.3,3.9,2.6c0.1,0.2,0.2,0.5,0.3,0.7l0.4,1c0.8,1.7,2,2.7,3.6,3l3.8,0.8
			l0.6-3.9c0.4-2.5,0.2-4.8-0.6-6.7c-0.9-2.2-2.4-4.2-4.3-5.6c-0.4-0.3-0.8-0.6-1.3-0.9l-0.3-0.2c-0.3-0.2-0.6-0.4-0.9-0.6
			c-2.7-2.1-5.7-3.1-9.3-3.1c-0.4,0-0.7,0-1.1,0c-2.7,0.1-5,1-6.7,1.8c-3.8,1.6-6.8,3.7-9.3,6.4c-5.7,6-6.2,13.8-1.2,19.9
			c1.2,1.5,2.6,2.9,4.1,4l1.3,1l-1.1,1.2c-4,4.4-6.8,8.9-8.7,13.6l0,0.1l0,0.1c-1.8,3.3-3,6.9-3.6,11.1c-0.7,4.5-0.6,9.1-0.5,13.1
			c0.2,8.7,5.6,16.9,15.1,23c2.7,1.7,5.7,2.7,9.1,3c0.9,0.1,1.8,0.1,2.8,0.1c4.1,0,8.4-0.8,12.9-2.5c3.6-1.3,6.9-3,9.9-5.1
			c4.3-3,8.5-6,11.5-10.6c0.4-0.7,0.9-1.3,1.4-1.9l0.2-0.2c1.3-1.7,2.8-3.6,3.8-6.1l0.1-0.2l0.2-0.2c0.8-0.9,1.4-2,1.8-3
			c0.2-0.6,0.5-1.1,0.8-1.6l0.1-0.2c0.5-0.9,1-2,1.3-3.2l0.1-0.3l0.2-0.2c0.6-0.8,1-1.7,1.4-2.8l0.1-0.2l0.1-0.2
			c0.5-0.8,1.1-2,0.7-3.6C448.2,260.4,447.5,259.5,446.5,258.9z"/>
		<path d="M631.4,294.2c-1.4-1-2.8-1.9-4.4-2.4c-1.4-0.5-3-0.5-4.3,0.2c-1,0.5-2,0.7-3,1c-1.3,0.3-2.7,0.6-3.7,1.7
			c-1.3,1.5-2.7,2.9-4,4.5c-1.5,2-2.6,4.2-3.1,6.7c-0.1,0.7-0.2,1.3-0.2,2c-0.1,0.9,0.1,1.7,0.9,2.2c0.3,0.2,0.4,0.5,0.6,0.7
			c0.2,0.5,0.6,0.8,0.9,1.2c1.3,1.3,3,1.8,4.7,2.4c2.6,0.8,5.1,0.4,7.3-1.4c0.4-0.3,0.7-0.5,1.2-0.7c4-1.8,6.6-5,8.5-8.8
			c0.1-0.3,0.2-0.6,0.3-0.9c0.2-0.9,0.3-1.8,0.4-2.7C633.6,297.5,633.2,295.6,631.4,294.2z"/>
		<g>
			<path class="st0" d="M372.8,164.9c-0.1,0-0.3,0-0.4,0c-0.3,0-0.5,0.1-0.8,0.1c-1.6,0.4-3.2,0.9-5.2,1.7c-2.5,1-4.8,2.3-6.9,3.5
				c-4.7,2.8-8.8,5.8-12.3,9.2c-2,1.9-3.9,3.9-5.5,5.8c-0.4,0.5-0.8,1-1.2,1.6c-0.3,0.5-0.7,1-1,1.3c-1.5,1.7-1.4,3.4-1,4.4
				c0,0.1,0.1,0.2,0.1,0.3c0.1,0.5,0.2,1.1,0.6,1.8c0.5,0.9,0.9,1.5,0.9,2.2l0,0.3l0.2,0.4c0.1,0.2,0.2,0.6,0.5,1
				c0.1,0.1,0.2,0.4,0.3,0.7l0.1,0.4c0.4,1,1,1.8,1.9,2.5c0.7,0.6,1.5,0.9,2.4,0.9c0.9,0,1.7-0.3,2.5-0.9c0.6-0.5,0.9-1,1.1-1.3
				l0.1-0.2c0.4-0.5,0.7-0.8,1-0.9c0.7-0.3,1.4-0.8,2-1.5l0.4-0.4c1.1-1.1,2.1-2.2,3.2-3.3c2.5-2.7,4.4-4.9,5.9-7.2
				c0.6-0.8,1.3-1.8,1.5-3.3c0-0.1,0.1-0.2,0.5-0.7c0.7-0.8,1.4-1.5,2.1-2.2l0.8-0.9c1-1,2-2,3.1-3.1c0.6-0.6,1.2-1.1,1.8-1.5
				c1-0.6,1.6-1.4,2.1-2.1c0.5-0.8,0.6-1.5,0.6-2c0.1-0.2,0.3-0.5,0.5-0.7c0.4-0.5,0.6-0.9,0.7-1.3c1.1-1.2,0.8-2.6,0.2-3.4
				C374.8,165.4,373.9,164.9,372.8,164.9z"/>
		</g>
	</g>
</g>
</svg>
