<?xml version="1.0" encoding="utf-8"?>
<!-- Generator: Adobe Illustrator 16.0.4, SVG Export Plug-In . SVG Version: 6.00 Build 0)  -->
<!DOCTYPE svg PUBLIC "-//W3C//DTD SVG 1.1//EN" "http://www.w3.org/Graphics/SVG/1.1/DTD/svg11.dtd">
<svg version="1.1" xmlns="http://www.w3.org/2000/svg" xmlns:xlink="http://www.w3.org/1999/xlink" x="0px" y="0px" width="663px"
	 height="352px" viewBox="0 0 663 352" enable-background="new 0 0 663 352" xml:space="preserve">
<g id="Layer_2">
</g>
<g id="Layer_1">
	<g>
		<path d="M123.518,126.112c3.817,0.489,7.618,1.445,11.512,0.902c4.473-0.621,8.971-1.329,13.429-1.575
			c6.998-0.393,13.794-1.763,20.659-2.832c1.782-0.279,1.965,0.162,1.673,1.7c-0.796,4.227-1.476,8.477-2.23,12.711
			c-0.611,3.42-1.248,6.831-1.884,10.247c-0.185-0.027-0.367-0.048-0.554-0.068c0.114-4.133,0.987-8.212,1.229-12.352
			c-0.241,0.358-0.434,0.73-0.488,1.125c-0.85,5.958-1.659,11.92-2.535,17.873c-0.572,3.903-1.344,7.774-1.84,11.68
			c-0.399,3.146,0.422,4.376,3.065,5.704c0.687,0.35,1.548,0.403,1.815,1.566c0.198,0.872,1.767,1.245,2.234,0.609
			c1.378-1.884,3.63-3.148,4.106-5.685c0.708-3.794,1.485-7.573,2.272-11.358c1.09-5.172,1.144-10.506,2.923-15.608
			c0.663-1.886,1.38-3.816,1.933-5.771c1.154-4.093,0.906-8.612,3.73-12.204c0.144-0.189,0.237-0.61,0.128-0.789
			c-0.983-1.669,0.337-1.937,1.397-2.378c3.639-1.509,7.525-2.263,11.189-3.736c1.721-0.696,2.696-2.209,4.407-2.928
			c4.13-1.739,8.565-2.897,12.125-5.839c0.999-0.824,2.175-1.367,3.392-1.829c3.587-1.374,6.543-3.826,9.651-5.941
			c5.255-3.568,10.161-7.64,15.711-10.792c0.571-0.323,1.466-0.712,1.325-1.266c-0.638-2.578,1.483-2.89,2.893-3.806
			c0.557-0.364,1.385-0.463,1.214-1.476c-0.224-1.394,0.044-2.559,1.539-3.198c2.472-1.055,4.493-2.917,7.024-3.929
			c-3.784-0.216-7.223,1.109-10.65,2.233c-12.137,3.982-23.793,9.227-35.663,13.919c-2.62,1.036-5.21,2.34-7.778,3.312
			c-2.976,1.13-6.25,1.881-9.424,2.669c-0.545,0.137-1.129,0.615-1.62,0.21c-0.57-0.484,0.052-1.063,0.179-1.575
			c0.684-2.712,1.209-5.488,2.189-8.083c0.728-1.927-0.137-3.76,0.385-5.679c1.77-6.494,3.553-12.999,4.713-19.644
			c0.101-0.59,0.391-1.307-0.258-1.794c-1.425-1.059-0.679-1.635,0.481-1.996c1.774-0.559,3.561-1.144,5.38-1.489
			c3.725-0.711,6.849-2.894,10.41-3.991c4.979-1.535,10.121-2.544,14.67-5.422c1.601-1.017,3.084-2.232,4.793-3.118
			c2.702-1.398,5.557-2.607,7.879-4.642c1.17-1.028,2.149-2.249,3.518-3.083c2.816-1.724,5.508-3.393,7.824-6.051
			c4.51-5.18,9.033-10.446,14.467-14.808c-1.832-0.853-1.941-1.003-0.43-2.179c1.782-1.377,3.771-2.485,4.477-4.825
			c0.18-0.605,1.461-0.492,1.024-1.367c-0.419-0.83-1.397-0.623-2.155-0.643c-3.446-0.088-6.642,1.047-9.83,2.13
			c-8.97,3.048-17.362,7.477-26.131,11.016c-1.096,0.441-2.346,0.689-3.174,1.775c0.91,0.351,1.564-0.629,2.487-0.152
			c-0.117,0.688-0.623,0.675-1.003,0.804c-2.354,0.816-4.607,1.597-7.254,1.657c-2.911,0.062-5.416,2.274-8.36,2.953
			c-5.509,1.268-10.727,3.622-16.343,4.577c-1.672,0.283-1.981-0.121-1.957-1.639c0.041-4.022-0.148-8.035-0.879-11.995
			c-0.222-1.18,0.051-3.213-1.15-3.284c-1.285-0.074-1.748,1.857-2.221,3.134c-1.791,4.829-3.883,9.57-4.441,14.784
			c-0.123,1.18-0.494,2.322-2.038,2.691c-9.007,2.16-18.065,3.986-27.298,4.901c-7.813,0.777-15.512,2.22-22.676,5.62
			c-3.02,1.429-6.141,2.373-9.396,2.978c-0.84,0.156-1.688,0.307-2.502,0.566c-0.65,0.203-1.18,0.635-1.007,1.435
			c0.585,2.595,1.704,4.932,4.155,6.16c2.854,1.431,5.936,1.228,9.104,1.176c10.42-0.165,20.696,1.86,31.041,2.82
			c4.379,0.405,8.644,1.354,12.92-0.372c1.156-0.463,1.715,0.048,1.186,1.239c-0.869,1.966-0.693,3.879-0.016,5.845
			c0.451,1.326,0.521,2.671-0.398,3.901c-0.614,0.82-0.979,1.792-1.071,2.788c-0.381,4.025-1.561,7.89-1.784,12.001
			c-0.168,3.094-0.236,6.585-1.938,9.555c-0.38,0.665-0.413,1.517-0.733,2.227c-0.511,1.126,0.473,2.794-1.712,3.43
			c-0.775,0.229-1.774,1.225-2.834,1.583c-6.93,2.362-13.992,4.287-20.976,6.452c-10.271,3.188-20.21,7.415-30.913,9.157
			c-0.859,0.139-1.8,0.658-1.949,1.748C119.733,121.501,122.55,125.986,123.518,126.112z"/>
		<path d="M341.631,55.16c0.365,1.031,1.294,1.684,2.364,1.658c0.404-0.01,0.738-0.116,0.96-0.181
			c0.206-0.005,0.403,0.043,0.607,0.076l0.269,0.047c0.556,0.09,1.097,0.225,1.635,0.36c1.07,0.263,2.27,0.562,3.601,0.585
			c1.13,0.018,2.275,0.01,3.399,0c1.148-0.012,2.253-0.022,3.343,0c-1.008,1.185-2.027,2.361-3.049,3.536
			c-2.267,2.608-4.613,5.305-6.752,8.128l-8.684,14.784c-2.856,3.705-5.731,7.397-8.646,11.058
			c-7.327,9.188-15.439,17.604-24.453,25.159l0.084,0.466c-2.288,1.422-4.518,2.949-6.906,4.171
			c-3.75,1.912-7.395,4.023-11.273,5.696c-2.504,1.078-5.007,2.148-7.535,3.188c-2.188,0.9-4.469,1.507-6.703,2.269
			c-3.599,1.229-7.261,1.986-11.045,2.237c-0.48,0.03-1.168-0.137-1.228-0.534c-0.177-1.105-1.099-1.603-1.672-2.354
			c-0.774-1.016-0.911-2.25-1.404-3.354c-0.81-1.83-0.516-3.755,0.103-5.459c0.861-2.395,2.599-4.37,4.012-6.483
			c1.104-1.646,2.521-3.083,3.781-4.625c1.137-1.39,2.761-1.718,4.306-0.883c1.718,0.929,3.396,1.783,5.421,2.101
			c2.342,0.363,4.49-0.289,6.653-0.677c1.712-0.308,3.362-1.293,4.86-2.352c1.416-0.999,2.888-1.923,4.334-2.895
			c1.492-1.01,2.768-2.29,4.158-3.422c0.938-0.768,1.633-1.634,2.359-2.555c0.506-0.64,0.463-1.52,1.27-2.03
			c1.527-0.982,2.771-2.332,3.576-3.976c0.52-1.062,1.158-2.059,1.73-3.078c0.452-0.794,1-1.619,1.715-2.335
			c0.79-0.776,1.562-1.959,1.435-3.117c-0.097-0.867,0.069-1.43,0.546-2.024c0.631-0.791,0.701-1.675,0.678-2.66
			c-0.02-0.938-0.426-1.837-0.164-2.8c0.256-0.945-0.528-2.799-1.396-3.254c-1.321-0.696-2.317-1.865-3.811-2.322
			c-1.229-0.373-2.377-1.01-3.578-1.49c-1.504-0.604-3.128-0.526-4.646-1.182c-1.817-0.783-3.898-0.112-5.862-0.358
			c-1.806-0.229-3.564,0.35-5.336,0.651c-0.922,0.155-1.77,0.661-2.726,0.557c-1.769-0.185-3.111,0.858-4.62,1.483
			c-1.016,0.417-1.545,1.366-2.499,1.772c-1.09,0.461-2.137,0.889-2.582,2.195c-0.189,0.572-0.686,1.11-1.459,1.248
			c-1.055,0.191-1.422,1.306-2.239,1.853c-0.431,0.291,0.104,0.883-0.038,1.191c-0.381,0.851-0.356,2.074-1.578,2.3
			c-3.041,0.557-4.912,2.652-6.671,4.932c-1.312,1.699-2.284,3.658-4.028,5.041c-1.053,0.836-1.351,2.276-2.384,3.208
			c-0.897,0.821-1.757,1.789-1.249,3.25c0.096,0.289-0.193,0.581-0.515,0.721c-1.009,0.44-1.504,1.329-1.993,2.238
			c-0.801,1.474-1.197,3.183-2.649,4.267c-0.304,0.225-0.275,0.691-0.351,1.084c-0.219,1.149-0.316,2.442-0.928,3.366
			c-0.726,1.088-1.506,2.115-1.875,3.374c-0.307,1.037-0.739,2.029-1.031,3.077c-0.32,1.16-0.527,2.26-0.59,3.457
			c-0.071,1.298,0.258,2.63-0.488,3.918c-0.426,0.734-0.262,1.771-0.088,2.632c0.357,1.829,1.361,3.459,1.69,5.325
			c0.083,0.481,0.024,1.08,0.424,1.546c1.104,1.276,2.151,2.6,3.241,3.894c1.92,2.278,4.638,3.344,8.002,5.192
			c1.434,0.971,4.016,1.716,6.625,1.959c3.649,0.342,7.309,0.726,10.965,0.857c3.023,0.109,6.071-0.257,9.094-0.577
			c1.039-0.109,2.036-0.453,3.095-0.167c0.337,0.094,0.659-0.02,0.847-0.295c0.445-0.665,1.205-0.997,1.832-1.19
			c0.889-0.274,1.464-1.234,2.369-1.142c0.633,0.071,1.261,0.005,1.846,0.062c2.369,0.228,4.066-1.078,5.87-2.211
			c1.806-1.137,3.501-2.542,5.454-3.325c1.781-0.715,2.705-2.133,3.918-3.339c0.332-0.332,0.574-0.719,0.781-1.125
			c0.665-0.467,1.34-0.952,1.998-1.546c3.371-3.052,6.293-6.599,8.874-9.733l0.246-0.3c1.994-2.42,4.054-4.922,5.932-7.536
			c1.158-1.617,2.345-3.227,3.53-4.83c2.092-2.821,4.24-5.739,6.252-8.721c1.27-1.883,2.615-3.713,3.951-5.542
			c1.372-1.861,2.732-3.726,4.028-5.638c1.69-2.511,3.515-5.165,5.488-7.601c2.621-3.226,5.329-6.439,7.882-9.411
			c-3.345,8.97-6.476,18.506-8.555,28.561c-1.233,5.989-2.224,12.921,1.606,19.487c0.526,1.948,2.047,2.065,2.5,2.054
			c0.201-0.003,0.403-0.033,0.61-0.085c1.131,0.077,1.875-0.38,2.246-0.782c0.304-0.328,0.502-0.714,0.604-1.156
			c1.782-0.942,2.361-2.621,2.679-3.544c0.236-0.677,0.477-1.355,0.718-2.032c0.883-2.485,1.796-5.053,2.355-7.756
			c0.353-1.715,0.852-3.38,1.391-5.143c0.514-1.675,1.032-3.408,1.418-5.192c0.53-2.443,1.097-4.88,1.666-7.317
			c0.529-2.269,1.059-4.539,1.551-6.821c1.181-5.387,2.752-11.205,4.943-18.315c1.234-3.972,2.341-7.254,3.49-10.322l0.195-0.167
			c2.225-0.28,4.423-0.647,6.628-1.018l2.183-0.361c2.043-0.336,4.003-0.892,5.896-1.431c1.435-0.409,2.79-0.794,4.166-1.086
			c7.33-1.558,13.612-3.434,19.2-5.728l1.317-0.537c2.471-1.003,5.021-2.039,7.472-3.255c0.76-0.381,1.517-0.77,2.269-1.16
			c2.235-1.163,4.348-2.26,6.624-2.979c1.437-0.454,2.843-0.985,4.253-1.518c0.87-0.327,1.74-0.658,2.622-0.965l0.88-0.311
			c3.447-1.211,6.899-2.423,10.374-3.561c0.709-0.233,1.56-0.276,2.459-0.327c0.762-0.04,1.524-0.086,2.271-0.217l13.525-2.335
			l-13.61-1.755c-1.899-0.243-4.169-0.089-6.374,0.135l-0.294,0.027c-7.761,0.768-15.313,2.022-22.454,3.729
			c-3.151,0.752-6.292,1.538-9.438,2.323c-7.774,1.945-15.813,3.951-23.812,5.378c-2.198,0.393-4.401,0.808-6.6,1.223l-1.37,0.257
			c0.233-0.405,0.468-0.808,0.724-1.199c2.409-3.755,4.589-7.688,6.7-11.49l1.396-2.514c1.095-1.956,2.345-3.894,3.549-5.77
			c1.472-2.287,2.989-4.651,4.328-7.182c1.3-2.472,2.646-5.026,2.479-8.317c-0.112-2.182-1.538-2.93-2.84-2.898
			c-0.156,0.006-0.326,0.02-0.515,0.045c-0.727,0.105-1.459,0.179-2.195,0.25c-3.17,0.32-6.757,0.683-9.801,3.32
			c-1.957,1.706-2.468,4.071-1.239,5.752c0.385,0.53,0.438,0.714-0.564,2.265c-0.793,1.216-1.598,2.42-2.407,3.63
			c-1.261,1.903-2.528,3.807-3.747,5.746l-2.359,3.74c-3.15,4.99-6.411,10.154-9.394,15.384c-1.467,2.574-3.122,3.614-6.136,3.841
			c-4.513,0.344-8.925,1.407-13.188,2.438l-2.082,0.5c-1.42,0.332-2.636,0.822-3.717,1.495
			C341.675,52.525,341.169,53.871,341.631,55.16z M274.036,105.271c1.556-2.268,3.306-4.407,5.194-6.362
			c1.847-1.914,3.832-3.808,6.4-4.853c0.387-0.157,0.817-0.215,1.129-0.003c0.298,0.198-0.084,0.47-0.162,0.711
			c-1.147,1.713-2.664,3.117-4.094,4.576c-1.577,1.619-3.375,3.023-5.018,4.586c-0.908,0.869-2.062,1.253-3.106,1.854
			c-0.109,0.062-0.338,0.056-0.43-0.017C273.738,105.591,273.925,105.436,274.036,105.271z M309.58,134.681
			c0.109-0.138,0.21-0.281,0.314-0.422l-1.141,1.942C308.98,135.657,309.224,135.128,309.58,134.681z"/>
		<path d="M264.068,62.99c-1.401,0.035-2.439,0.661-2.844,1.714c-0.191,0.496-0.352,1.396,0.35,2.424
			c-0.015,0.218-0.008,0.465,0.055,0.734c0.037,0.158,0.045,0.34,0.062,0.521c0.087,0.894,0.284,2.989,2.363,3.521
			c0.99,0.253,1.997,0.37,2.99,0.345c1.351-0.034,2.667-0.318,3.894-0.852c4.15-1.798,7.928-4.246,11.221-7.271l0.712-0.662
			c0.806-0.762,1.567-1.483,2.371-1.947c2.112-1.223,3.713-2.861,5.259-4.445c0.356-0.365,0.713-0.731,1.071-1.09
			c2.24-2.205,4.22-4.643,6.135-7.002c1.479-1.829,3.019-3.72,4.652-5.471c1.464-1.562,3.095-3.31,3.869-5.74
			c0.121,0.085,0.263,0.197,0.411,0.339l1.227,1.168c1.201,1.148,2.445,2.333,3.756,3.44l0.694,0.598
			c1.599,1.381,3.411,2.953,5.946,3.557c2.616,0.622,5.412-0.056,7.868-0.792l0.545-0.164c2.69-0.798,4.893-2.263,7.02-3.688
			c1.664-1.111,3.239-2.16,4.99-2.868l3.149-1.276l-2.577-2.212c-0.594-0.514-1.259-0.764-1.975-0.746
			c-0.322,0.007-0.576,0.073-0.718,0.107l-2.51,0.606c-1.415,0.344-2.827,0.685-4.244,1.018c-1.452,0.338-2.831,0.525-4.108,0.556
			c-3.875,0.093-7.098-1.226-9.864-4.032c-2.379-2.419-5.279-5.077-9.56-6c-1.533-0.328-2.784-0.468-3.919-0.44
			c-2.018,0.047-3.761,0.626-5.335,1.77c-7.983,5.811-14.282,13.058-18.872,18.721c-1.068,1.313-2.115,2.649-3.154,3.979
			c-2.809,3.587-5.716,7.298-9.002,10.503C265.155,62.735,264.695,62.908,264.068,62.99z"/>
		<path d="M460.51,98.826c1.16-1.109,1.83-2.343,2.077-3.919c0.135-0.854,0.524-1.676,1.308-2.213
			c0.315-0.213,0.653-0.441,0.734-0.831c0.367-1.726,1.322-3.187,2.188-4.667c1.093-1.859,1.738-3.836,2.153-5.95
			c-0.703-0.029-1.121,0.257-1.5,0.689c-1.585,1.803-3.639,3.061-5.565,4.426c-3.145,2.227-6.416,4.29-9.756,6.211
			c-1.231,0.709-2.291,1.665-3.539,2.305c-2.331,1.197-4.438,2.758-6.665,4.107c-1.808,1.094-3.563,2.376-5.433,3.277
			c-2.856,1.372-5.47,3.123-8.212,4.673c-2.677,1.509-5.432,2.88-8.202,4.208c-3.327,1.593-6.822,2.823-10.343,3.922
			c-2.556,0.796-5.11,1.708-7.898,1.397c-1.624-0.183-2.289-0.653-2.942-2.173c-0.59-1.359-0.289-2.771-0.381-4.14
			c-0.06-0.917,0.82-1.6,1.884-1.654c0.494-0.021,0.993,0.07,1.482,0.034c1.855-0.128,3.755,0.06,5.583-0.436
			c1.327-0.36,2.64-0.729,4.016-0.836c1.052-0.081,2.062-0.371,2.94-0.939c1.648-1.065,3.668-1.335,5.244-2.591
			c0.943-0.75,2.395-0.962,3.158-1.825c1.754-1.971,4.234-3.2,5.596-5.539c1.296-2.231,3.974-3.177,5.127-5.547
			c0.062-0.122,0.267-0.202,0.417-0.25c0.327-0.1,0.531-0.311,0.496-0.633c-0.076-0.672,0.407-1.037,0.691-1.538
			c0.623-1.098,1.651-1.878,2.181-3.047c0.975-2.145,2.02-4.246,2.769-6.496c0.694-2.087,0.232-3.769-1.723-4.654
			c-1.296-0.585-2.344-1.552-3.62-2.128c-1.561-0.703-3.079-1.523-4.761-1.968c-1.525-0.406-3.095-0.29-4.616-0.576
			c-2.139-0.404-4.273-0.97-6.438-0.283c-0.86,0.267-1.582,0.453-2.449-0.101c-0.431-0.272-1.218-0.163-1.77,0.018
			c-0.308,0.104,0.419,0.463,0.183,0.916c-1.124-0.555-1.724-0.44-1.56,0.222c0.265,1.06-0.38,1.012-1.002,0.978
			c-0.472-0.026-0.889-0.068-1.265,0.317c-0.367,0.384-0.831,0.23-1.106-0.1c-0.928-1.104-1.784-0.291-2.646,0.047
			c-0.301,0.121-0.71,0.351-0.617,0.701c0.113,0.412,0.548,0.255,0.854,0.152c0.313-0.104,0.572-0.139,0.771,0.165
			c0.133,0.199,0.105,0.392-0.021,0.584c-0.229,0.353-0.563,0.378-0.877,0.19c-0.517-0.301-0.93-0.278-1.304,0.218
			c-0.215,0.292-0.531,0.394-0.896,0.305c-0.562-0.136-0.901,0.123-1.046,0.631c-0.072,0.254-0.099,0.5-0.411,0.543
			c-1.389,0.192-2.508,0.877-3.62,1.709c-0.535,0.399-1.31,0.483-1.752,1.105c-1.061,1.477-2.309,2.726-3.993,3.528
			c-0.689,0.328-1.619,0.796-1.808,1.4c-0.564,1.764-1.94,2.814-3.018,4.137c-0.793,0.978-2.299,1.27-2.615,2.677
			c-0.326,1.457-1.206,2.529-2.229,3.544c-0.863,0.854-1.684,1.789-1.996,2.99c-0.455,1.755-1.009,3.432-2.398,4.701
			c-0.186,0.174-0.369,0.424-0.261,0.668c0.372,0.835-0.111,1.325-0.649,1.84c-0.266,0.254-0.459,0.58-0.502,0.986
			c-0.283,2.576,0.314,5.114,0.258,7.708c-0.068,2.872,1.358,5.546,3.31,7.705c2.578,2.872,5.615,5.238,8.838,7.373
			c0.674,0.444,1.502,0.071,2.091,0.662c0.722,0.727,1.662,1.112,2.571,1.54c1.845,0.856,3.749,1.516,5.701,2.082
			c2.25,0.652,4.411,1.57,6.79,1.757c0.604,0.046,1.278-0.147,1.832,0.156c2.047,1.126,4.244,0.033,6.359,0.467
			c1.821,0.37,3.543-0.581,5.338-0.792c1.979-0.24,3.791-1.216,5.746-1.654c0.551-0.123,1.239-0.202,1.734-0.601
			c1.448-1.169,3.378-1.238,4.945-2.256c1.464-0.955,3.59-0.907,4.326-2.965c0.05-0.124,0.258-0.208,0.41-0.275
			c2.076-0.895,3.646-2.397,4.981-4.176c0.179-0.237,0.401-0.258,0.665-0.23c0.367,0.035,0.684-0.142,0.884-0.405
			c1.226-1.62,2.516-3.202,3.611-4.909c0.394-0.614,1.205-1.019,1.167-1.86c-0.029-0.542,0.28-0.597,0.632-0.857
			c1.101-0.804,2.237-1.775,2.2-3.242c-0.021-0.718,0.217-0.949,0.671-1.237c1.067-0.67,1.9-1.435,1.469-2.902
			c-0.127-0.434,0.175-0.894,0.458-1.266C457.368,102.283,458.816,100.436,460.51,98.826z M405.758,93.949
			c1.184-0.838,2.023-2.199,2.92-3.402c1.312-1.756,2.86-3.233,4.765-4.326c0.523-0.301,0.867-0.779,1.226-1.237
			c1.269-1.613,2.967-2.467,4.938-2.858c0.229,0.672-0.052,1.129-0.364,1.588c-1.272,1.881-2.989,3.331-4.616,4.89
			c-1.687,1.621-3.505,3.077-5.273,4.587c-1.297,1.106-2.763,2.104-4.466,2.764C404.812,95.033,404.925,94.546,405.758,93.949z"/>
		<path d="M320.307,218.602c-0.254,0-0.531,0.012-0.831,0.027l-1.012,0.085c-2.46,0.197-4.998,0.392-7.52,0.814
			c-1.285,0.207-2.81,0.616-4.067,1.755c1.285-3.788,1.481-7.62,1.681-11.328l0.062-1.146c0.068-1.175-0.309-2.148-0.598-2.767
			c-0.309-0.685-0.621-1.369-0.887-2.084c-0.167-0.459-0.32-0.932-0.474-1.396c-0.196-0.594-0.399-1.211-0.628-1.8
			c-0.744-1.915-2.314-3.155-4.016-3.155c-0.603,0-1.204,0.159-1.76,0.482c-0.365,0.208-0.812,0.398-1.285,0.594
			c-1.207,0.511-2.716,1.141-3.87,2.604l-0.631,0.79c-1.976,2.454-4.017,4.976-5.088,8.28c-2.045,6.395-1.318,11.603,2.228,15.924
			c0.055,0.066,0.08,0.117,0.096,0.121c-0.01,0.033-0.026,0.111-0.08,0.263c-1.626,4.479-3.554,7.728-6.088,10.262
			c-0.297,0.302-0.592,0.631-0.813,0.933c-1.391,1.831-0.935,3.396-0.542,4.169c0.891,1.738,2.613,1.824,3.323,1.864
			c3.728,0.246,7.103-0.834,10.045-3.191c2.254-1.805,4.11-4.058,5.681-6.829c0.162-0.285,0.258-0.357,0.258-0.357
			c0.006-0.007,0.162-0.032,0.457-0.032c-0.01,0.025-0.01,0.054-0.014,0.076c-1.484,8.395-1.685,17.42-0.633,28.432
			c0.254,2.488,0.734,4.854,1.243,7.258c0.642,3.078,1.595,5.665,2.894,7.9c1.473,2.546,3.504,4.1,6.049,4.637
			c0.326,0.057,0.45,0.102,0.42,0.066c0.716,0.848,1.663,1.312,2.675,1.312c0.411,0,0.964-0.08,1.574-0.39
			c0.44,0.254,0.955,0.453,1.587,0.453c1.634,0,2.395-1.271,2.904-2.12c0.716-1.183,0.929-2.451,0.646-3.871
			c-0.461-2.437-0.944-5.046-1.327-7.634c-0.889-6.025-1.032-12.365-1.168-17.947c-0.159-7.407,0.569-14.098,2.214-20.439
			l0.414-1.552c0.446-1.652,0.9-3.359,1.248-5.088c0.261-1.256,0.468-3.074-0.688-4.488
			C323.183,219.103,321.945,218.602,320.307,218.602z"/>
		<path d="M289.201,280.535c-0.008-0.451-0.086-0.973-0.593-1.13c-0.525-0.159-0.841,0.263-1.115,0.625
			c-1.03,1.356-2.249,2.505-3.76,3.301c-1.66,0.86-2.376,0.675-3.593-0.704c-1.296-1.456-1.649-3.261-1.851-5.083
			c-0.616-5.72-0.567-11.422,0.388-17.125c0.826-4.97,1.729-9.936,1.138-15.021c-0.265-2.287-0.698-4.516-1.66-6.636
			c-0.919-1.988-2.326-3.147-4.571-3.225c-0.994-0.027-2.004-0.094-2.951-0.332c-2.625-0.664-5.234-0.981-7.935-0.458
			c-1.433,0.278-1.877-0.283-1.378-1.679c0.715-2.011,1.484-4.015,2.359-5.966c1.944-4.385,2.216-8.992,1.969-13.683
			c-0.024-0.613-0.071-1.219-0.419-1.758c-0.604-0.961-1.469-1.126-2.157-0.193c-0.591,0.811-1.293,0.919-2.158,0.971
			c-0.758,0.04-1.57,0.086-2.24,0.391c-1.376,0.632-2.768,0.801-4.232,0.514c-1.841-0.359-3.241,0.602-4.625,1.564
			c-0.662,0.457-0.853,1.065-0.264,1.746c0.44,0.5,0.648,1.048,0.297,1.673c-0.427,0.809-0.705,1.682-0.939,2.567
			c-0.077,0.304-0.24,0.592-0.61,0.588c-0.338,0-0.583-0.194-0.714-0.475c-0.295-0.613-0.553-1.233-1.029-2.288
			c-0.438,1.144-0.426,1.869-0.089,2.453c1.587,2.832,1.718,5.957,1.943,9.071c0.059,0.749,0.242,1.525,0.519,2.22
			c0.58,1.467,0.493,2.752-0.352,4.132c-1.123,1.819-2.17,3.681-3.187,5.56l-0.6-1.355c-3.319,0.311-14.487,12.328-17.829,15.067
			c-0.447,0.369-1.047,0.743-1.667,1.143c-0.401,0.261-0.8,0.514-1.2,0.784c-0.678,0.47-1.345,0.933-2.016,1.407
			c-2.086,1.473-4.064,2.854-6.123,3.901c-3.26,1.643-6.631,3.337-10.145,3.976c-0.396,0.08-0.643,0.091-0.777,0.087
			c-0.09-0.118-0.257-0.345-0.459-0.786l-0.17-0.32c-0.273-0.56-0.557-1.122-0.795-1.704c-0.359-0.89-0.814-1.654-1.209-2.281
			c0.341-0.456,0.699-0.977,1.009-1.571c1.111-2.16,1.935-4.335,2.726-6.429c0.393-1.027,0.774-2.046,1.204-3.063
			c2.187-5.289,3.296-10.294,3.388-15.3c0.087-4.459-1.264-8.438-3.994-11.826c-2.458-3.048-5.944-4.606-9.671-4.308
			c-1.919,0.155-3.761,0.559-5.511,1.224c-0.867-2.106-2.773-3.516-5.28-3.914c-2.751-0.422-5.202,0.164-7.257,1.729
			c-1.334,1.025-2.715,2.088-4.087,3.001c-1.815,1.21-3.506,2.571-5.085,4.097c-10.575,3.342-20.68,7.938-30.614,12.98
			c-4.53,2.293-9.114,4.489-14.387,7.084c0.21-2.617,0.249-4.544,0.521-6.438c1.242-8.774,2.355-17.589,3.896-26.314
			c1.431-8.133,3.287-16.199,5.052-24.269c1.781-8.17,3.657-16.322,5.508-24.479c0.26-1.129,0.563-2.301-0.724-2.96
			c-1.416-0.726-2.318,0.188-3.051,1.247c-3.004,4.351-6.299,8.505-8.531,13.391c-5.037,11.095-8.926,22.567-11.973,34.338
			c-3.301,12.774-5.021,25.815-5.725,38.995c-0.091,1.589-0.678,2.424-2.134,2.901c-2.511,0.806-5.039,1.637-7.514,2.585
			c-5.14,1.983-10.226,4.091-15.351,6.078c-7.41,2.876-14.844,5.708-22.276,8.517c-0.592,0.234-1.294,0.173-2.267,0.283
			c0.186-1.806,0.275-3.315,0.504-4.803c1.406-9.379,2.85-18.764,4.275-28.142c1.064-6.957,1.881-13.962,3.25-20.855
			c2.016-10.095,4.451-20.098,6.673-30.151c1.007-4.568,2.372-9.086,2.214-13.845c-0.095-2.218,0.268-4.274,1.934-5.809
			c-0.851-2.453-1.029-5.06-3.021-6.865c-0.139-0.128-0.164-0.375-0.211-0.574c-0.886-3.651-1.693-7.325-2.674-10.954
			c-0.592-2.141-1.213-4.334-2.266-6.263c-1.205-2.199-2.732-2.327-4.882-1.054c-1.217,0.721-2.46,1.446-3.776,1.978
			c-2.022,0.82-3.47,2.335-4.256,4.195c-0.812,1.925-1.268,4.082-1.504,6.175c-0.254,2.307-0.061,4.649-0.101,6.978
			c-0.161,8.018-1.962,15.768-3.788,23.514c-1.834,7.733-3.891,15.438-5.386,23.247c-1.876,9.808-3.427,19.689-4.871,29.581
			c-1.868,12.922-3.472,25.888-5.224,38.828c-0.408,3.031-0.454,3.231-3.496,3.658c-6.055,0.84-12.154,1.44-18.23,2.12
			c-2.041,0.229-3.955,0.148-5.917-0.892c-2.142-1.14-6.206,0.883-6.272,3.169c-0.062,2.791,0.27,5.658,0.963,8.348
			c0.408,1.558,1.855,2.843,2.861,4.228c2.688,3.708,6.556,5.542,10.895,6.035c4.24,0.48,8.546,0.326,12.832,0.475
			c1.17,0.041,2.331,0.138,3.715,0.213c-0.595,4.957-1.258,9.504-1.632,14.067c-0.456,5.425-1.679,10.905,0.487,16.265
			c0.188,0.462,0.204,1.002,0.212,1.516c0.062,4.555,1.349,8.831,3.019,13c0.26,0.65,1.026,1.1,1.552,1.636
			c0.589-0.607,1.515-1.127,1.684-1.833c0.487-1.871,0.681-3.815,0.919-5.742c1.664-13.284,3.66-26.47,9.413-38.789
			c0.989-2.142,2.167-3.375,4.521-3.962c8.445-2.082,16.592-5.042,24.285-9.144c9.001-4.787,17.934-9.716,26.898-14.557
			c1.003-0.549,2.078-0.946,3.49-1.575c0.145,4.138,0.112,7.703,0.392,11.244c1.063,13.108,2.202,26.201,3.386,39.304
			c0.085,0.95,0.39,2.332,1.053,2.696c2.448,1.345,2.867,3.626,3.177,5.943c0.412,3.142,2.224,5.587,3.698,8.215
			c0.068,0.1,0.391,0.066,0.887,0.145c0.232-0.657,0.643-1.366,0.711-2.111c0.26-2.632,0.506-5.287,0.562-7.932
			c0.143-6.114,0.162-12.217,0.255-18.337c0.114-7.131,0.329-14.263,0.324-21.396c-0.005-7.438-0.173-14.892-0.354-22.334
			c-0.049-1.951,0.521-3.235,2.338-4.17c3.255-1.696,6.404-3.588,9.569-5.437c3.967-2.315,7.935-4.616,11.828-7.034
			c3.02-1.879,5.787-4.21,8.936-5.839c0.634-0.331,1.264-0.673,1.893-1.016c-1.211,3.261-2.276,6.793-3.223,10.721
			c-1.304,5.385-1.876,10.397-1.729,15.341c0.174,5.946,1.976,10.643,5.504,14.332c3.244,3.404,7.116,5.157,11.495,5.199h0.195
			c4.729,0,8.318-2.122,10.92-3.982c4.582-3.285,8.487-7.14,11.643-10.577c1.552,1.42,3.029,2.654,4.519,3.785
			c6.057,4.618,13.091,5.079,20.029,1.296c3.07-1.684,6.04-3.89,9.06-6.743c1.643-1.537,3.188-3.149,4.682-4.708
			c2.395-2.491,4.659-4.85,7.196-6.86c0.555-0.451,1.104-0.907,1.782-1.472l2.988-3.716c0.712-0.526,0.906-0.995,1.175-1.46
			l0.628-0.781c0.241-0.212,0.561-0.429,1.015-0.656c1.083-0.561,1.302-1.832,1.847-2.902l1.246-1.549v-0.001
			c2.048-1.954,5.549-3.851,6.621-5.814c1.251-2.265,1.773-2.482,4.229-1.955c0.297,0.069,0.597,0.135,0.893,0.194
			c1.714,0.414,1.852,0.555,1.658,2.342c-0.292,2.583-0.691,5.146-0.971,7.719c-0.77,7.029-0.791,14.04,1.034,20.939
			c2.009,7.601,6.771,12.658,14.279,15.086c0.806,0.257,1.638,0.486,2.478,0.33c0.941-0.177,1.816,0.052,2.708,0.29
			c2.264,0.583,4.233-0.039,5.886-1.627c0.665-0.635,1.368-1.19,2.174-1.661c1.422-0.863,1.557-1.658,0.391-2.937
			C289.668,282.394,289.225,281.589,289.201,280.535z M197.447,237.596c-0.434,1.884-1.398,3.765-2.412,5.752
			c-0.363,0.69-0.717,1.385-1.062,2.094c-3.422,7.082-8.678,13.491-16.52,20.17c-1.615,1.364-3.252,2.214-5.016,2.6
			c-0.216,0.047-0.375,0.068-0.53,0.072c-0.055-0.116-0.126-0.29-0.201-0.539c-0.713-2.371-0.868-4.812-0.452-7.261
			c0.877-5.171,1.956-10.561,4.5-15.31l8.072-3.957c2.014-0.996,3.293-2.451,4.224-3.532c0.204-0.225,0.397-0.449,0.588-0.657
			c2.53-2.679,4.526-4.237,6.694-5.219c0.969-0.443,1.489-0.488,1.678-0.527c0,0,0.401,0.337,0.787,1.651
			c0.107,0.356,0.15,0.675,0.131,1.003C197.857,235.302,197.706,236.493,197.447,237.596z"/>
		<path d="M355.48,227.933c-0.365-1.247-0.811-2.255-1.192-3.072c-0.503-1.085-1.162-1.78-1.638-2.298
			c-0.142-0.152-0.295-0.299-0.428-0.475c-1.846-2.405-3.839-2.907-5.192-2.907c-1.048,0-2.075,0.295-3.033,0.865
			c-4.02,2.398-4.938,8.214-4.096,12.597c0.593,3.134,0.706,5.757,0.33,8.037c-0.678,4.171-1.086,8.116-1.248,12.067
			c-0.161,3.812-0.103,7.631-0.027,11.52c0.015,1.018,0.054,2.11,0.348,3.31c0.269,1.101,0.336,1.996,0.206,2.742
			c-0.167,0.975-0.092,1.954,0.234,3.086c0.355,1.205,0.687,2.373,0.856,3.49c0.204,1.416,0.483,2.912,1.41,4.349
			c0,0.013,0,0.029,0,0.044c-0.148,2.004,0.36,3.834,0.946,5.55c0.678,1.902,2.161,3.215,3.878,3.481
			c0.924,0.742,1.936,0.816,2.333,0.816c0.409,0,0.829-0.063,1.225-0.188c1.629-0.51,2.704-1.874,2.891-3.636
			c0.106-1.018,0.399-1.965,0.733-3.058c0.141-0.436,0.271-0.878,0.41-1.346c0.078-0.311,0.164-0.616,0.257-0.917
			c0.286-0.988,0.615-2.109,0.788-3.386c0.487-3.81,0.762-7.363,0.853-10.868c0.03-1.417,0.105-2.818,0.165-4.226
			c0.062-1.191,0.12-2.369,0.157-3.562l0.024-0.816c0.064-2.068,0.133-4.222,0.083-6.414c-0.118-4.806-0.188-9.125,0.21-13.277
			c0.146-1.476,0.244-3.065,0.025-4.782C356.727,232.613,356.338,230.225,355.48,227.933z"/>
		<path d="M485.769,185.882c7.123-1.798,13.752-5.085,20.825-7.066c4.466-1.246,9.009-2.423,13.215-4.417
			c3.348-1.586,7.232-1.752,10.263-4.136c1.021-0.787,2.822-0.311,3.196-2.354c0.137-0.671,2.19-0.085,3.521-1.143
			c-1.04-1.239-2.295-1.478-3.552-1.613c-2.073-0.224-4.167-0.283-6.266-0.14c-13.728,0.881-27.255,3.215-40.776,5.682
			c-2.731,0.506-2.778,0.522-2.819-2.174c-0.188-12.095-0.071-24.192,1.091-36.246c0.278-3.013,0.763-6.003,0.599-9.042
			c-0.05-0.946,0.013-1.926-0.982-2.428c-1.057-0.536-2.022-0.171-2.89,0.558c-2.266,1.885-3.974,4.183-5.231,6.867
			c-3.705,7.88-5.543,16.275-6.963,24.779c-0.945,5.744-1.628,11.522-2.019,17.336c-0.106,1.809-0.8,2.637-2.758,2.732
			c-3.011,0.118-6.03,0.412-9.027,0.91c-6.998,1.17-13.969,2.464-21.049,3.152c-9,0.878-17.92,2.914-27.063,1.75
			c-1.396-0.17-2.723,0.567-2.781,2.04c-0.077,2.018-1.083,3.725-1.389,5.667c-0.884,5.604,2.746,9.505,7.481,9.042
			c1.281-0.118,2.583-0.208,3.812-0.51c2.846-0.708,5.745-0.923,8.649-0.934c10.128-0.049,20.244-0.566,30.28-1.962
			c3.791-0.514,7.592-1.121,11.378-1.767c1.557-0.271,2.485,0,2.485,1.805c0.012,1.163,0.181,2.311,0.26,3.477
			c0.481,6.373,0.898,12.758,1.453,19.138c1.304,14.928,3.922,29.758,3.301,44.845c-0.108,2.81,1.064,5.356,2.606,7.752
			c1.442,2.234,2.736,4.536,3.051,7.302c0.213,1.829,0.849,3.61,1.349,5.408c0.147,0.584,0.521,1.106,1.227,0.931
			c0.482-0.115,0.747-0.556,0.806-1.037c0.251-2.549,0.609-5.091,0.703-7.646c0.406-10.915,0.732-21.851,1.639-32.745
			c0.724-8.808,1.751-17.59,1.784-26.439c0.014-8.143-0.28-16.281-0.862-24.406C484.216,187.515,483.991,186.336,485.769,185.882z"
			/>
		<path d="M628.936,185.786c-18.568,1.719-37.135,3.401-55.606,5.893c-3.565,0.479-3.913,0.189-3.945-3.6
			c-0.067-7.75,0.137-15.506,0.571-23.251c0.299-5.243,1.426-10.465-0.165-15.759c-1.357-4.462-3.753-5.243-7.566-3.502
			c-2.635,1.214-5.24,2.483-7.912,3.627c-1.679,0.727-3.446,1.157-5.287,0.495c-2.312-0.843-4.267-0.389-5.818,1.604
			c-0.514,0.668-1.177,1.231-1.859,1.721c-2.244,1.642-2.999,3.579-1.867,6.294c1.712,4.079,2.169,8.366,1.849,12.803
			c-0.421,5.555-0.524,11.133-0.861,16.691c-0.322,5.477-1.087,6.189-6.38,6.821c-4.326,0.524-8.636,1.256-12.966,1.723
			c-4.319,0.48-8.61,1.556-12.998,1.091c-3.041-0.328-6.03,0.051-9.042,0.142c-1.361,0.045-2.617,0.454-3.724,1.286
			c-2.06,1.55-2.855,5.72-1.517,7.952c1.339,2.192,3.378,2.714,6.325,1.438c1.81-0.782,3.679-1.255,5.617-1.399
			c10.02-0.736,20.044-1.428,30.081-2.112c3.538-0.235,4.352,0.407,4.313,4.042c-0.087,9.342,0.813,18.617,1.786,27.881
			c0.471,4.335,1.057,8.667,1.92,12.933c2.109,10.339,6.015,20.154,9.306,30.14c0.715,2.158,1.697,4.166,3.671,5.698
			c1.474,1.128,2.59,2.912,3.035,4.857c0.476,2.065,1.946,2.622,3.775,2.66c2.297,0.044,4.225-0.825,5.845-2.449
			c2.599-2.613,3.317-5.924,3.115-9.369c-0.745-13.062-0.798-26.142-1.92-39.179c-0.979-11.36-1.004-22.742-1.161-34.117
			c-0.034-2.205,0.955-3.397,2.823-4.107c0.789-0.305,1.603-0.591,2.438-0.671c5.892-0.652,11.781-1.503,17.687-1.792
			c9.076-0.453,18.085-1.65,27.111-2.469c8.888-0.808,17.745-2.143,26.541-3.84c4.474-0.858,9.125-1.064,13.606-1.869
			L628.936,185.786z"/>
		<path d="M446.547,258.918c-0.681-0.385-1.436-0.59-2.18-0.59c-1.663,0-2.981,0.844-4.236,2.766
			c-1.07,1.377-2.055,2.584-3.219,3.474c-1.155,0.879-2.073,1.791-2.796,2.781c-1.219,1.666-2.893,3.077-5.169,4.347
			c-0.545,0.288-1.563,0.834-2.276,2.024l-0.107,0.183l-0.15,0.144c-0.239,0.228-0.621,0.489-1.217,0.888l-0.257,0.163
			c-1.187,0.781-2.3,1.611-3.522,2.533c-2.36,1.797-4.853,3.432-7.408,4.847c-3.837,2.128-7.074,3.487-10.181,4.282
			c-1.088,0.285-2.114,0.43-3.061,0.43c-2.985,0-5.124-1.411-6.535-4.312c-0.969-1.984-2.024-6.186-1.874-8.237
			c0.252-3.927,0.954-7.067,1.695-10.385l0.125-0.589c0.445-2.044,0.903-4.159,1.286-6.578c0.639-3.905,2.204-7.503,4.792-11
			c0.771-1.033,1.466-1.779,2.193-2.346l0.519-0.406l0.653,0.096c1.462,0.215,2.766,0.317,3.981,0.317
			c1.245,0,2.383-0.113,3.411-0.343l0.361-0.075c0.935-0.173,3.122-0.578,4.453-2.599l0.116-0.174l0.154-0.139
			c0.787-0.685,1.294-1.566,1.47-2.57c0.14-0.772,0.174-2.305-1.239-3.942c-0.371-0.492-1.14-1.508-2.587-1.988l-0.238-0.078
			l-0.208-0.153c-0.098-0.076-0.507-0.411-0.507-0.411c-0.253-0.195-0.514-0.398-0.822-0.604c-1.359-0.938-2.821-1.428-4.227-1.428
			c-0.641,0-1.258,0.103-1.84,0.304l-0.578,0.202l-0.562-0.25c-0.127-0.058-0.253-0.13-0.372-0.206
			c-0.547-0.348-1.063-0.567-1.368-0.698l-0.33-0.146c-1.98-1.037-3.35-1.804-4.268-2.95c-0.15-0.183-0.237-0.318-0.294-0.409
			l-0.223-0.298l-0.022-0.474c-0.016-0.296,0.053-0.64,0.191-1.005c0.089-0.273,0.236-0.667,0.436-0.985
			c1.427-2.328,3.576-3.714,6.624-4.24c0.353-0.048,0.689-0.077,0.994-0.077c1.131,0,2.598,0.292,3.903,2.62
			c0.13,0.238,0.236,0.483,0.346,0.739l0.437,0.974c0.756,1.668,1.976,2.686,3.609,3.031l3.847,0.804l0.647-3.867
			c0.415-2.512,0.198-4.779-0.642-6.746c-0.946-2.238-2.438-4.188-4.311-5.627c-0.419-0.318-0.839-0.626-1.264-0.934l-0.307-0.22
			c-0.291-0.209-0.59-0.419-0.875-0.643c-2.681-2.08-5.729-3.09-9.314-3.09c-0.365,0-0.727,0.01-1.098,0.033
			c-2.682,0.147-4.995,1.021-6.71,1.762c-3.758,1.629-6.814,3.715-9.344,6.368c-5.714,6.022-6.171,13.845-1.166,19.927
			c1.247,1.501,2.621,2.856,4.087,4.021l1.288,1.02l-1.094,1.217c-3.991,4.436-6.842,8.886-8.714,13.602l-0.038,0.092l-0.047,0.084
			c-1.832,3.312-3.014,6.928-3.618,11.064c-0.659,4.463-0.619,9.11-0.527,13.11c0.21,8.727,5.576,16.879,15.104,22.963
			c2.681,1.708,5.725,2.722,9.059,3.018c0.878,0.083,1.806,0.126,2.751,0.126c4.128,0,8.36-0.803,12.932-2.453
			c3.57-1.289,6.89-2.99,9.87-5.053c4.324-2.97,8.465-6.014,11.541-10.59c0.432-0.652,0.912-1.281,1.394-1.905l0.162-0.214
			c1.305-1.708,2.783-3.647,3.76-6.126l0.093-0.226l0.155-0.188c0.783-0.941,1.398-1.971,1.797-2.985
			c0.226-0.564,0.488-1.102,0.756-1.633l0.098-0.209c0.458-0.942,0.976-2.019,1.338-3.236l0.075-0.258l0.159-0.214
			c0.586-0.799,1.043-1.722,1.407-2.816l0.055-0.167l0.093-0.152c0.479-0.782,1.071-2.009,0.67-3.574
			C448.229,260.379,447.536,259.478,446.547,258.918z"/>
		<path d="M631.396,294.18c-1.354-1.03-2.82-1.895-4.444-2.421c-1.434-0.474-2.989-0.481-4.287,0.236
			c-0.976,0.549-1.982,0.703-3.006,0.97c-1.334,0.347-2.719,0.597-3.714,1.708c-1.324,1.501-2.743,2.92-3.954,4.519
			c-1.519,1.995-2.558,4.21-3.083,6.655c-0.106,0.656-0.16,1.307-0.211,1.953c-0.07,0.917,0.112,1.677,0.948,2.187
			c0.273,0.158,0.425,0.457,0.557,0.734c0.225,0.459,0.575,0.805,0.941,1.154c1.335,1.258,3.028,1.841,4.706,2.354
			c2.637,0.799,5.103,0.377,7.271-1.403c0.363-0.292,0.746-0.535,1.161-0.726c3.977-1.843,6.559-5.02,8.475-8.83
			c0.145-0.269,0.208-0.589,0.263-0.886c0.154-0.902,0.332-1.811,0.419-2.737C633.632,297.505,633.235,295.556,631.396,294.18z"/>
		<g>
			<path d="M366.864,172.362c-1.445,0.698-2.851,1.517-4.187,2.324c-4.36,2.609-8.088,5.378-11.383,8.458
				c-1.85,1.729-3.532,3.514-5.002,5.302c-0.332,0.406-0.624,0.825-0.914,1.241c-0.395,0.557-0.794,1.131-1.284,1.714
				c0.054,0.221,0.101,0.432,0.14,0.636c0.023,0.112,0.038,0.227,0.075,0.331c0.568,1.005,1.278,2.245,1.447,3.827
				c0.511-0.431,1.053-0.787,1.641-1.069c0.092-0.042,0.223-0.128,0.427-0.338l0.335-0.347c1.042-1.086,2.083-2.177,3.111-3.277
				c2.354-2.53,4.034-4.568,5.447-6.601c0.33-0.478,0.622-0.902,0.666-1.183c0.206-1.443,1.017-2.52,1.701-3.292
				c0.768-0.857,1.542-1.67,2.333-2.476l0.866-0.858c1.043-1.049,2.094-2.093,3.177-3.113
				C365.907,173.212,366.366,172.777,366.864,172.362z"/>
			<path fill="#010101" d="M372.806,164.919c-0.127,0-0.258,0.003-0.417,0.021c-0.269,0.02-0.542,0.076-0.819,0.146
				c-1.56,0.413-3.167,0.938-5.214,1.713c-2.53,0.969-4.78,2.273-6.856,3.525c-4.712,2.819-8.753,5.821-12.345,9.18
				c-2.024,1.89-3.869,3.852-5.486,5.82c-0.409,0.502-0.783,1.026-1.152,1.553c-0.345,0.493-0.671,0.953-1.006,1.346
				c-1.479,1.707-1.366,3.368-1.021,4.421c0.03,0.107,0.052,0.211,0.075,0.322c0.09,0.451,0.21,1.076,0.604,1.759
				c0.529,0.935,0.852,1.533,0.864,2.156l-0.034,0.335l0.165,0.418c0.052,0.177,0.185,0.593,0.496,1.012
				c0.074,0.098,0.178,0.421,0.268,0.68l0.145,0.423c0.35,0.977,0.988,1.832,1.881,2.521c0.712,0.564,1.51,0.853,2.371,0.853
				c0.903,0,1.741-0.315,2.469-0.935c0.558-0.46,0.9-0.957,1.149-1.312l0.138-0.199c0.355-0.468,0.696-0.781,1.027-0.944
				c0.729-0.345,1.386-0.825,2.044-1.488l0.355-0.377c1.066-1.107,2.119-2.208,3.166-3.334c2.539-2.729,4.364-4.947,5.945-7.221
				c0.566-0.821,1.27-1.843,1.476-3.253c0.009-0.054,0.073-0.24,0.479-0.694c0.688-0.773,1.408-1.521,2.132-2.25l0.849-0.852
				c1.013-1.011,2.025-2.025,3.139-3.083c0.61-0.575,1.183-1.117,1.768-1.466c1.049-0.634,1.647-1.438,2.062-2.083
				c0.482-0.762,0.604-1.457,0.551-2.039c0.15-0.228,0.303-0.459,0.489-0.716c0.356-0.458,0.558-0.896,0.662-1.305
				c1.086-1.21,0.823-2.564,0.206-3.421C374.836,165.37,373.882,164.919,372.806,164.919z M361.416,177.612
				c-0.791,0.806-1.565,1.618-2.333,2.476c-0.685,0.772-1.495,1.85-1.701,3.292c-0.043,0.281-0.336,0.706-0.666,1.183
				c-1.413,2.032-3.093,4.07-5.447,6.601c-1.027,1.101-2.069,2.191-3.111,3.277l-0.335,0.347c-0.204,0.21-0.335,0.296-0.427,0.338
				c-0.588,0.282-1.129,0.639-1.641,1.069c-0.168-1.583-0.878-2.822-1.447-3.827c-0.038-0.104-0.052-0.219-0.075-0.331
				c-0.04-0.204-0.086-0.415-0.14-0.636c0.49-0.583,0.89-1.157,1.284-1.714c0.29-0.416,0.583-0.835,0.914-1.241
				c1.471-1.789,3.152-3.573,5.002-5.302c3.295-3.081,7.023-5.85,11.383-8.458c1.336-0.808,2.741-1.626,4.187-2.324
				c-0.498,0.415-0.957,0.85-1.405,1.278c-1.083,1.021-2.134,2.064-3.177,3.113L361.416,177.612z"/>
		</g>
	</g>
</g>
</svg>
