<?xml version="1.0" encoding="utf-8"?>
<!-- Generator: Adobe Illustrator 16.0.4, SVG Export Plug-In . SVG Version: 6.00 Build 0)  -->
<!DOCTYPE svg PUBLIC "-//W3C//DTD SVG 1.1//EN" "http://www.w3.org/Graphics/SVG/1.1/DTD/svg11.dtd">
<svg version="1.1" id="Layer_1" xmlns="http://www.w3.org/2000/svg" xmlns:xlink="http://www.w3.org/1999/xlink" x="0px" y="0px"
	 width="469px" height="101px" viewBox="0 0 469 101" enable-background="new 0 0 469 101" xml:space="preserve">
<g>
	<defs>
		<rect id="SVGID_1_" x="-1" y="1" width="470" height="100"/>
	</defs>
	<clipPath id="SVGID_2_">
		<use xlink:href="#SVGID_1_"  overflow="visible"/>
	</clipPath>
	<g clip-path="url(#SVGID_2_)">
		<path d="M421.771,80.172l1.745-9.519l1.746,9.519H421.771L421.771,80.172z M421.322,61.31l-6.696,29.964h5.461l1.166-6.189h4.528
			l1.187,6.189h5.459l-6.674-29.964H421.322L421.322,61.31z M455.269,35.013V10.216h-5.166V40.18h13.411v-5.167H455.269
			L455.269,35.013z M337.093,91.209l-6.814-17.814l5.922-12.021h-5.226l-5.385,11.462V61.374h-5.144v29.835h5.144v-8.976
			l1.674-3.162l4.351,12.138H337.093L337.093,91.209z M137.285,68.62c0-0.621,0.09-1.086,0.265-1.381
			c0.495-0.825,1.179-1.227,2.091-1.227c0.742,0,1.349,0.309,1.852,0.941c0.278,0.356,0.419,0.917,0.419,1.667v14.689
			c0,0.912-0.145,1.347-0.265,1.551c-0.482,0.811-1.152,1.205-2.049,1.205c-0.777,0-1.401-0.333-1.905-1.012
			c-0.271-0.373-0.408-0.96-0.408-1.744V68.62L137.285,68.62z M136.177,90.371c1.082,0.556,2.232,0.838,3.421,0.838
			c1.113,0,2.195-0.243,3.216-0.724c1.022-0.481,1.898-1.159,2.606-2.019c1.086-1.326,1.636-3.011,1.636-5.01V68.62
			c0-1.983-0.55-3.667-1.637-5.012c-0.707-0.857-1.583-1.536-2.605-2.016c-2.126-1.002-4.579-0.956-6.649,0.114
			c-1.076,0.557-1.973,1.343-2.662,2.331c-0.904,1.266-1.362,2.808-1.362,4.583v14.836c0,1.776,0.458,3.317,1.359,4.578
			C134.192,89.029,135.093,89.814,136.177,90.371L136.177,90.371z M232.414,66.012h1.617c0.686,0,1.24,0.209,1.697,0.643
			c0.5,0.466,0.743,1.005,0.743,1.649v15.018c0.025,0.974-0.179,1.69-0.607,2.13c-0.398,0.407-1.029,0.613-1.956,0.613h-1.494
			V66.012L232.414,66.012z M227.27,90.956h6.899l0.178,0.002c2.149,0,3.968-0.802,5.413-2.396c1.246-1.441,1.871-3.21,1.856-5.253
			V68.308c0.015-2.113-0.781-3.912-2.37-5.349c-1.385-1.22-3.047-1.838-4.94-1.838h-7.036V90.956L227.27,90.956z M46.706,78.514
			l-2.883-17.392h-5.414l6.098,29.835h4.384l6.208-29.835h-5.436L46.706,78.514L46.706,78.514z M389.586,29.079l1.746-9.52
			l1.745,9.52H389.586L389.586,29.079z M389.137,10.216l-6.695,29.964h5.461l1.165-6.189h4.529l1.186,6.189h5.459l-6.673-29.964
			H389.137L389.137,10.216z M76.603,29.079l1.745-9.52l1.746,9.52H76.603L76.603,29.079z M80.586,10.216h-4.432L69.459,40.18h5.461
			l1.165-6.189h4.528L81.8,40.18h5.459L80.586,10.216L80.586,10.216z M196.865,40.18h13.412v-5.167h-8.245v-7.529h7.249v-4.912
			h-7.249v-7.444h8.245v-4.912h-13.412V40.18L196.865,40.18z M142.118,40.18V15.128h4.938v-4.912h-14.958v4.912h4.853V40.18H142.118
			L142.118,40.18z M325.648,40.18h5.167V10.216h-5.167V40.18L325.648,40.18z M269.498,20.271c0,0.797-0.038,0.98-0.059,1.074
			c-0.042,0.306-0.215,0.638-0.502,0.969c-0.482,0.517-1.142,0.768-2.017,0.768h-2.323v-7.953h2.379
			c0.766,0.012,1.354,0.217,1.787,0.615c0.495,0.483,0.735,1.084,0.735,1.836V20.271L269.498,20.271z M274.41,20.271v-2.691
			c0-1.981-0.719-3.734-2.144-5.219c-1.423-1.423-3.123-2.144-5.112-2.144h-7.724V40.18h5.167V27.76h1.647l3.9,12.42h5.504
			l-4.508-13.587C273.425,25.066,274.525,22.934,274.41,20.271L274.41,20.271z M15.21,24.549l-5.12-14.333H5.372V40.18h5.167V25.256
			l3.2,9.668h2.8l3.288-9.729V40.18h5.167V10.216h-4.762L15.21,24.549L15.21,24.549z"/>
	</g>
</g>
</svg>
