<?xml version="1.0" encoding="UTF-8"?>
<svg xmlns="http://www.w3.org/2000/svg" xmlns:xlink="http://www.w3.org/1999/xlink" width="595pt" height="842pt" viewBox="0 0 595 842" version="1.1">
<defs>
<clipPath id="clip1">
  <path d="M 45 786.664062 L 97 786.664062 L 97 842 L 45 842 Z M 45 786.664062 "/>
</clipPath>
<clipPath id="clip2">
  <path d="M 231 786.664062 L 278 786.664062 L 278 842 L 231 842 Z M 231 786.664062 "/>
</clipPath>
<clipPath id="clip3">
  <path d="M 283 786.664062 L 334.664062 786.664062 L 334.664062 842 L 283 842 Z M 283 786.664062 "/>
</clipPath>
</defs>
<g id="surface1">
<g clip-path="url(#clip1)" clip-rule="nonzero">
<path style=" stroke:none;fill-rule:nonzero;fill:rgb(13.729858%,12.159729%,12.548828%);fill-opacity:1;" d="M 71.257812 840.628906 C 82.996094 840.628906 89.402344 827.441406 89.402344 813.644531 C 89.402344 797.257812 80.710938 788.03125 71.105469 788.03125 C 63.867188 788.03125 51.898438 793.828125 51.898438 814.714844 C 51.898438 830.566406 60.96875 840.628906 71.257812 840.628906 Z M 70.800781 786.664062 C 86.582031 786.664062 96.261719 797.5625 96.261719 813.339844 C 96.261719 827.285156 87.570312 842 70.574219 842 C 55.023438 842 45.039062 829.800781 45.039062 814.789062 C 45.039062 797.714844 55.859375 786.664062 70.800781 786.664062 "/>
</g>
<path style=" stroke:none;fill-rule:nonzero;fill:rgb(13.729858%,12.159729%,12.548828%);fill-opacity:1;" d="M 16.035156 813.480469 C 20.816406 813.328125 23.207031 813.023438 23.902344 812.558594 C 26.367188 811.09375 29.375 806.617188 29.375 800.914062 C 29.375 793.515625 25.085938 789.285156 15.601562 789.285156 C 14.523438 789.285156 11.476562 789.273438 11.476562 789.273438 C 11.476562 789.273438 11.488281 810.550781 11.488281 813.636719 Z M 16.808594 839.613281 L 16.808594 841.175781 L 0 841.175781 L 0 839.613281 L 5.167969 839.621094 L 5.167969 789.28125 L 0 789.28125 L 0 787.695312 C 1.925781 787.695312 13.492188 787.695312 13.492188 787.695312 C 13.492188 787.695312 18.96875 787.695312 19.890625 787.695312 C 28.371094 787.695312 35.234375 791.355469 35.234375 800.761719 C 35.234375 806.777344 31.378906 811.09375 26.289062 813.714844 C 26.058594 813.867188 25.828125 814.023438 25.828125 814.175781 C 25.828125 814.484375 37.53125 829.058594 42.839844 835.535156 C 46.203125 839.648438 47.242188 839.699219 48.632812 840.238281 L 48.632812 841.316406 C 48.632812 841.316406 45.007812 841.316406 43.773438 841.316406 C 39.378906 841.316406 37.949219 840.40625 29.335938 828.304688 C 27.90625 826.300781 19.816406 816.027344 19.199219 815.488281 C 18.734375 815.027344 18.195312 815.027344 16.34375 814.949219 C 15.34375 814.949219 11.488281 815.027344 11.488281 815.027344 L 11.476562 839.621094 L 16.808594 839.613281 "/>
<g clip-path="url(#clip2)" clip-rule="nonzero">
<path style=" stroke:none;fill-rule:nonzero;fill:rgb(13.729858%,12.159729%,12.548828%);fill-opacity:1;" d="M 277.574219 823.171875 L 277.574219 835.269531 C 271.457031 839.519531 264.144531 842 256.90625 842 C 241.8125 842 231.140625 830.566406 231.140625 814.101562 C 231.140625 797.101562 243.261719 786.664062 256.75 786.664062 C 266.203125 786.664062 273.519531 792.152344 274.4375 792.152344 C 275.121094 792.152344 275.351562 791.386719 275.503906 790.777344 L 277.5625 790.777344 L 277.5625 805.109375 L 276.1875 805.109375 C 273.0625 793.21875 264.527344 788.1875 257.136719 788.1875 C 247.605469 788.1875 238.152344 797.753906 238.152344 814.21875 C 238.152344 832.511719 249.359375 839.867188 258.886719 839.867188 C 269.101562 839.867188 274.140625 832.394531 276.199219 823.171875 L 277.574219 823.171875 "/>
</g>
<g clip-path="url(#clip3)" clip-rule="nonzero">
<path style=" stroke:none;fill-rule:nonzero;fill:rgb(13.729858%,12.159729%,12.548828%);fill-opacity:1;" d="M 309.664062 840.625 C 321.398438 840.625 327.804688 827.445312 327.804688 813.644531 C 327.804688 797.257812 319.113281 788.03125 309.511719 788.03125 C 302.269531 788.03125 290.300781 793.828125 290.300781 814.714844 C 290.300781 830.566406 299.371094 840.625 309.664062 840.625 Z M 309.207031 786.664062 C 324.984375 786.664062 334.664062 797.5625 334.664062 813.339844 C 334.664062 827.289062 325.976562 842 308.976562 842 C 293.425781 842 283.441406 829.800781 283.441406 814.789062 C 283.441406 797.714844 294.265625 786.664062 309.207031 786.664062 "/>
</g>
<path style=" stroke:none;fill-rule:nonzero;fill:rgb(13.729858%,12.159729%,12.548828%);fill-opacity:1;" d="M 198.03125 839.65625 C 193.636719 839.832031 190.25 836.539062 187.730469 833.480469 C 187.730469 828.445312 187.695312 793.285156 187.695312 789.28125 C 188.796875 789.28125 190.160156 789.230469 191.289062 789.230469 C 207.371094 789.230469 218.425781 797.613281 218.425781 814.53125 C 218.425781 829.261719 210.402344 838.777344 198.03125 839.65625 Z M 108.210938 818.15625 C 107.296875 818.15625 107.296875 817.988281 107.296875 817.722656 L 107.328125 798.339844 C 107.328125 798.339844 107.476562 798.054688 108.175781 798.757812 C 108.527344 799.109375 117.347656 808.707031 126.027344 818.15625 Z M 198.429688 787.695312 C 195.023438 787.695312 186.03125 787.695312 186.03125 787.695312 C 181.566406 787.691406 181.566406 787.695312 180.734375 787.695312 L 180.734375 789.28125 L 185.140625 789.273438 L 185.15625 830.335938 C 184.816406 829.90625 184.445312 829.445312 184.445312 829.445312 C 176.644531 820.550781 149.605469 791.632812 146.6875 787.695312 C 142.570312 787.695312 135.90625 787.695312 135.90625 787.695312 L 135.90625 789.226562 C 139.339844 789.53125 142.097656 791.488281 142.171875 793.320312 L 142.160156 826.828125 L 106.492188 787.136719 L 104.796875 787.136719 L 104.800781 839.601562 L 99.683594 839.601562 L 99.683594 841.175781 L 112.382812 841.175781 L 112.382812 839.601562 L 107.34375 839.601562 L 107.328125 819.691406 C 107.347656 819.691406 126.859375 819.691406 126.859375 819.691406 C 127.101562 819.691406 127.289062 819.699219 127.457031 819.714844 C 135.53125 828.507812 143.074219 836.730469 143.074219 836.730469 L 145.625 839.601562 L 140.421875 839.601562 L 140.421875 841.175781 C 142.40625 841.175781 155.320312 841.175781 157.074219 841.175781 L 157.074219 839.601562 C 155.398438 839.507812 153.84375 839.492188 152.503906 838.25 C 152.285156 838.050781 144.714844 829.660156 144.714844 829.660156 L 144.714844 795.640625 C 146.027344 797.207031 179.109375 833.269531 184.308594 839.550781 L 184.28125 839.601562 L 180.53125 839.601562 L 180.53125 841.175781 L 188.597656 841.234375 C 190.347656 841.234375 193.269531 841.128906 195.257812 841.128906 C 212.402344 841.128906 224.980469 831.988281 224.980469 813.921875 C 224.980469 797.613281 214.597656 787.695312 198.429688 787.695312 "/>
</g>
</svg>
