<?xml version="1.0" encoding="utf-8"?>
<!-- Generator: Adobe Illustrator 16.0.4, SVG Export Plug-In . SVG Version: 6.00 Build 0)  -->
<!DOCTYPE svg PUBLIC "-//W3C//DTD SVG 1.1//EN" "http://www.w3.org/Graphics/SVG/1.1/DTD/svg11.dtd">
<svg version="1.1" xmlns="http://www.w3.org/2000/svg" xmlns:xlink="http://www.w3.org/1999/xlink" x="0px" y="0px" width="99px"
	 height="18px" viewBox="0 0 99 18" enable-background="new 0 0 99 18" xml:space="preserve">
<g id="Layer_2">
</g>
<g id="Layer_1">
	<g>
		<path fill="#231F20" d="M21.875,16.56c3.377,0,5.217-3.792,5.217-7.76c0-4.71-2.498-7.361-5.26-7.361
			c-2.08,0-5.521,1.666-5.521,7.669C16.31,13.667,18.917,16.56,21.875,16.56L21.875,16.56z M21.746,1.044
			c4.536,0,7.318,3.134,7.318,7.672c0,4.007-2.497,8.239-7.385,8.239c-4.471,0-7.343-3.508-7.343-7.824
			C14.336,4.222,17.448,1.044,21.746,1.044L21.746,1.044z"/>
		<path fill="#231F20" d="M5.998,8.756C7.373,8.712,8.06,8.625,8.259,8.489C8.97,8.07,9.832,6.78,9.832,5.144
			c0-2.132-1.232-3.345-3.959-3.345c-0.312,0-1.186-0.004-1.186-0.004S4.691,7.914,4.691,8.8L5.998,8.756L5.998,8.756z
			 M6.219,16.269v0.451H1.385v-0.451l1.485,0.004V1.799H1.385V1.339c0.555,0,3.88,0,3.88,0s1.574,0,1.84,0
			c2.439,0,4.411,1.054,4.411,3.757c0,1.732-1.105,2.974-2.571,3.728C8.88,8.868,8.814,8.912,8.814,8.956
			c0,0.087,3.365,4.279,4.89,6.139c0.968,1.186,1.268,1.198,1.667,1.354v0.312c0,0-1.045,0-1.397,0c-1.263,0-1.675-0.264-4.151-3.74
			c-0.411-0.579-2.738-3.533-2.916-3.688C6.775,9.199,6.619,9.199,6.087,9.175c-0.289,0-1.396,0.024-1.396,0.024l-0.004,7.074
			L6.219,16.269L6.219,16.269z"/>
		<path fill="#231F20" d="M81.2,11.543v3.477c-1.759,1.221-3.86,1.936-5.944,1.936c-4.339,0-7.406-3.289-7.406-8.019
			c0-4.89,3.485-7.892,7.362-7.892c2.719,0,4.822,1.577,5.086,1.577c0.195,0,0.264-0.22,0.308-0.395h0.591v4.123H80.8
			c-0.898-3.421-3.354-4.866-5.477-4.866c-2.743,0-5.461,2.75-5.461,7.484c0,5.261,3.223,7.373,5.963,7.373
			c2.938,0,4.388-2.148,4.979-4.798H81.2L81.2,11.543z"/>
		<path fill="#231F20" d="M90.428,16.56c3.373,0,5.215-3.792,5.215-7.76c0-4.71-2.501-7.361-5.26-7.361
			c-2.083,0-5.523,1.666-5.523,7.669C84.86,13.667,87.466,16.56,90.428,16.56L90.428,16.56z M90.296,1.044
			c4.534,0,7.318,3.134,7.318,7.672c0,4.007-2.496,8.239-7.387,8.239c-4.471,0-7.34-3.508-7.34-7.824
			C82.888,4.222,86,1.044,90.296,1.044L90.296,1.044z"/>
		<path fill="#231F20" d="M58.327,16.281c-1.262,0.052-2.235-0.894-2.962-1.776c0-1.449-0.008-11.556-0.008-12.706
			c0.315,0,0.708-0.016,1.033-0.016c4.624,0,7.802,2.411,7.802,7.273C64.192,13.291,61.885,16.029,58.327,16.281L58.327,16.281z
			 M32.5,10.102c-0.263,0-0.261-0.052-0.261-0.127l0.008-5.573c0,0,0.041-0.08,0.245,0.12c0.1,0.104,2.634,2.862,5.131,5.581H32.5
			L32.5,10.102z M58.442,1.339c-0.979,0-3.563,0-3.563,0c-1.286,0-1.286,0-1.525,0v0.459l1.27-0.004l0.004,11.808
			c-0.1-0.124-0.204-0.255-0.204-0.255C52.179,10.788,44.404,2.474,43.566,1.339c-1.186,0-3.102,0-3.102,0v0.444
			c0.985,0.087,1.779,0.646,1.802,1.173l-0.002,9.636L32.007,1.18h-0.488l0.004,15.085H30.05v0.455h3.652v-0.455h-1.451
			l-0.004-5.724h5.615c0.07,0,0.125,0,0.172,0.007c2.322,2.527,4.49,4.89,4.49,4.89l0.733,0.826h-1.495v0.455
			c0.571,0,4.285,0,4.788,0v-0.455c-0.483-0.027-0.931-0.032-1.315-0.387c-0.062-0.056-2.239-2.471-2.239-2.471V3.627
			c0.378,0.446,9.89,10.817,11.386,12.625l-0.008,0.012h-1.077v0.455l2.319,0.016c0.502,0,1.341-0.032,1.912-0.032
			c4.934,0,8.548-2.627,8.548-7.824C66.077,4.194,63.093,1.339,58.442,1.339L58.442,1.339z"/>
	</g>
</g>
</svg>
