<?xml version="1.0" encoding="UTF-8"?>
<svg xmlns="http://www.w3.org/2000/svg" xmlns:xlink="http://www.w3.org/1999/xlink" width="595pt" height="842pt" viewBox="0 0 595 842" version="1.1">
<g id="surface1">
<path style=" stroke:none;fill-rule:nonzero;fill:rgb(13.729858%,12.159729%,12.548828%);fill-opacity:1;" d="M 90.042969 735.414062 L 90.042969 750.925781 L 94.09375 750.925781 L 94.09375 728.472656 L 89.925781 728.472656 L 82.285156 739.292969 L 74.617188 728.472656 L 70.445312 728.472656 L 70.445312 750.925781 L 74.527344 750.925781 L 74.527344 735.328125 L 82.285156 746.289062 Z M 119.992188 732.441406 L 119.992188 728.472656 L 105.9375 728.472656 L 105.9375 750.925781 L 119.992188 750.925781 L 119.992188 746.933594 L 109.988281 746.933594 L 109.988281 741.945312 L 118.652344 741.945312 L 118.652344 737.949219 L 109.988281 737.949219 L 109.988281 732.441406 Z M 145.621094 728.472656 L 130.019531 728.472656 L 130.019531 732.382812 L 139.03125 732.382812 L 130.019531 750.925781 L 145.621094 750.925781 L 145.621094 747.105469 L 136.578125 747.105469 Z M 170.363281 744.917969 C 168.933594 746.347656 167.039062 747.078125 165.171875 747.078125 C 163.277344 747.078125 161.382812 746.347656 159.953125 744.917969 C 157.09375 742.035156 157.09375 737.398438 159.953125 734.511719 C 161.382812 733.082031 163.277344 732.382812 165.171875 732.382812 C 167.039062 732.382812 168.902344 733.082031 170.363281 734.511719 L 173.25 731.621094 C 171.003906 729.40625 168.089844 728.269531 165.171875 728.269531 C 162.226562 728.269531 159.3125 729.40625 157.066406 731.621094 C 152.632812 736.085938 152.632812 743.347656 157.066406 747.808594 C 159.3125 750.023438 162.226562 751.132812 165.171875 751.132812 C 168.089844 751.132812 171.003906 750.023438 173.25 747.808594 Z M 188.113281 743.171875 L 191.761719 734.304688 L 195.464844 743.171875 Z M 193.773438 728.472656 L 189.777344 728.472656 L 180.5625 750.925781 L 184.996094 750.925781 L 186.511719 747.164062 L 197.097656 747.164062 L 198.671875 750.925781 L 203.046875 750.925781 Z M 212.46875 728.472656 L 212.46875 750.925781 L 226.554688 750.925781 L 226.554688 747.164062 L 216.550781 747.164062 L 216.550781 728.472656 L 212.46875 728.472656 "/>
<path style=" stroke:none;fill-rule:nonzero;fill:rgb(13.729858%,12.159729%,12.548828%);fill-opacity:1;" d="M 115.226562 689.566406 L 110.820312 689.566406 L 105.980469 697.847656 L 101.082031 689.566406 L 96.707031 689.566406 L 103.910156 702.511719 L 103.910156 712.019531 L 107.992188 712.019531 L 107.992188 702.6875 Z M 141.78125 692.714844 C 139.539062 690.496094 136.59375 689.359375 133.707031 689.359375 C 130.789062 689.359375 127.84375 690.496094 125.628906 692.714844 C 121.136719 697.175781 121.136719 704.4375 125.628906 708.898438 C 127.84375 711.113281 130.789062 712.222656 133.707031 712.222656 C 136.59375 712.222656 139.539062 711.113281 141.78125 708.898438 C 146.246094 704.4375 146.246094 697.175781 141.78125 692.714844 Z M 138.867188 705.980469 C 137.4375 707.410156 135.570312 708.109375 133.707031 708.109375 C 131.808594 708.109375 129.945312 707.410156 128.542969 705.980469 C 125.65625 703.125 125.6875 698.488281 128.542969 695.628906 C 129.945312 694.230469 131.808594 693.503906 133.707031 693.503906 C 135.570312 693.503906 137.4375 694.230469 138.867188 695.628906 C 141.726562 698.488281 141.726562 703.125 138.867188 705.980469 Z M 155.714844 689.566406 L 155.714844 712.019531 L 169.800781 712.019531 L 169.800781 708.257812 L 159.796875 708.257812 L 159.796875 689.566406 Z M 185.363281 704.261719 L 189.007812 695.398438 L 192.710938 704.261719 Z M 191.019531 689.566406 L 187.023438 689.566406 L 177.808594 712.019531 L 182.242188 712.019531 L 183.757812 708.257812 L 194.34375 708.257812 L 195.917969 712.019531 L 200.292969 712.019531 L 191.019531 689.566406 "/>
<path style=" stroke:none;fill-rule:nonzero;fill:rgb(13.729858%,12.159729%,12.548828%);fill-opacity:1;" d="M 127.910156 769.367188 L 127.910156 771.289062 L 130.085938 770.226562 L 130.085938 776.773438 L 127.910156 776.773438 L 127.910156 778.507812 L 134.253906 778.507812 L 134.253906 776.773438 L 132.066406 776.773438 L 132.066406 767.238281 Z M 139.21875 773.523438 C 139.859375 774.164062 140.6875 774.527344 141.535156 774.585938 L 139.507812 777.574219 L 141.039062 778.609375 L 144.917969 772.96875 C 145.894531 771.523438 145.734375 769.539062 144.464844 768.273438 C 143.738281 767.542969 142.789062 767.179688 141.839844 767.179688 C 140.878906 767.179688 139.929688 767.542969 139.21875 768.273438 C 137.757812 769.714844 137.757812 772.078125 139.21875 773.523438 Z M 141.839844 769.191406 C 142.773438 769.191406 143.546875 769.949219 143.546875 770.898438 C 143.546875 771.84375 142.773438 772.601562 141.839844 772.601562 C 140.894531 772.601562 140.136719 771.84375 140.136719 770.898438 C 140.136719 769.949219 140.894531 769.191406 141.839844 769.191406 Z M 149.433594 767.265625 L 149.433594 769.207031 L 154.140625 769.207031 L 150.03125 777.707031 L 151.765625 778.640625 L 157.246094 767.265625 Z M 160.746094 769.367188 L 160.746094 771.289062 L 162.917969 770.226562 L 162.917969 776.773438 L 160.746094 776.773438 L 160.746094 778.507812 L 167.089844 778.507812 L 167.089844 776.773438 L 164.902344 776.773438 L 164.902344 767.238281 L 160.746094 769.367188 "/>
</g>
</svg>
