<?xml version="1.0" encoding="utf-8"?>
<!-- Generator: Adobe Illustrator 16.0.4, SVG Export Plug-In . SVG Version: 6.00 Build 0)  -->
<!DOCTYPE svg PUBLIC "-//W3C//DTD SVG 1.1//EN" "http://www.w3.org/Graphics/SVG/1.1/DTD/svg11.dtd">
<svg version="1.1" xmlns="http://www.w3.org/2000/svg" xmlns:xlink="http://www.w3.org/1999/xlink" x="0px" y="0px" width="118px"
	 height="19px" viewBox="0 0 118 19" enable-background="new 0 0 118 19" xml:space="preserve">
<g id="Layer_2">
</g>
<g id="Layer_1">
	<g>
		<path fill="#010101" d="M9.292,13.634c0.018,1.146-0.28,2.125-0.892,2.939c-0.402,0.551-0.971,0.94-1.706,1.168
			c-0.394,0.122-0.853,0.184-1.378,0.184c-0.971,0-1.776-0.24-2.414-0.722c-0.534-0.394-0.956-0.929-1.267-1.607
			c-0.311-0.678-0.492-1.454-0.544-2.329l2.362-0.17c0.105,0.958,0.358,1.653,0.761,2.084c0.297,0.325,0.638,0.479,1.023,0.461
			c0.542-0.017,0.975-0.284,1.299-0.801c0.167-0.253,0.25-0.617,0.25-1.09c0-0.683-0.311-1.361-0.932-2.036
			c-0.49-0.464-1.225-1.16-2.205-2.088C2.828,8.83,2.247,8.116,1.905,7.485C1.538,6.776,1.354,6.006,1.354,5.174
			c0-1.497,0.503-2.631,1.509-3.401c0.621-0.464,1.391-0.696,2.309-0.696c0.884,0,1.641,0.197,2.271,0.591
			C7.932,1.973,8.329,2.402,8.63,2.953c0.302,0.551,0.483,1.186,0.544,1.903L6.8,5.289C6.729,4.615,6.537,4.09,6.222,3.714
			C5.995,3.443,5.667,3.307,5.238,3.307c-0.455,0-0.8,0.201-1.037,0.604C4.009,4.234,3.913,4.637,3.913,5.118
			c0,0.752,0.323,1.518,0.971,2.296c0.245,0.297,0.612,0.647,1.102,1.05c0.578,0.481,0.958,0.818,1.142,1.01
			c0.612,0.612,1.085,1.216,1.417,1.811c0.157,0.28,0.284,0.538,0.38,0.774C9.162,12.645,9.284,13.17,9.292,13.634L9.292,13.634z"/>
		<path fill="#010101" d="M17.771,4.96c0-0.394-0.138-0.729-0.414-1.004c-0.275-0.275-0.61-0.414-1.003-0.414
			c-0.394,0-0.731,0.138-1.011,0.414s-0.419,0.61-0.419,1.004v9.001c0,0.394,0.14,0.729,0.419,1.004s0.617,0.414,1.011,0.414
			c0.394,0,0.728-0.138,1.003-0.414c0.276-0.275,0.414-0.61,0.414-1.004V4.96L17.771,4.96z M16.419,1.076
			c1.093,0,2.023,0.385,2.789,1.155c0.765,0.77,1.148,1.697,1.148,2.782v8.975c0,1.094-0.385,2.023-1.155,2.789
			c-0.77,0.766-1.697,1.148-2.782,1.148c-1.094,0-2.021-0.385-2.782-1.155c-0.761-0.77-1.142-1.697-1.142-2.782V5.013
			c0-1.093,0.385-2.022,1.155-2.788C14.42,1.459,15.343,1.076,16.419,1.076L16.419,1.076z"/>
		<path fill="#010101" d="M29.122,5.249c0-0.428-0.129-0.774-0.387-1.037c-0.258-0.262-0.602-0.394-1.03-0.394h-1.496v5.262h1.496
			c0.394,0,0.729-0.14,1.004-0.42s0.413-0.617,0.413-1.01V5.249L29.122,5.249z M27.639,1.286c1.207,0,2.169,0.381,2.887,1.142
			c0.665,0.727,0.997,1.653,0.997,2.782v2.388c0,1.085-0.378,2.012-1.135,2.782c-0.757,0.77-1.673,1.155-2.749,1.155h-1.43v6.193
			h-2.48V1.286H27.639L27.639,1.286z"/>
		<polygon fill="#010101" points="37.167,10.76 37.167,17.728 34.687,17.728 34.687,1.286 37.167,1.286 37.167,8.267 40.158,8.267 
			40.158,1.286 42.638,1.286 42.638,17.728 40.158,17.728 40.158,10.76 37.167,10.76 		"/>
		<polygon fill="#010101" points="48.518,17.728 46.038,17.728 46.038,1.286 48.518,1.286 48.518,17.728 		"/>
		<polygon fill="#010101" points="51.917,17.728 51.917,1.273 58.977,1.273 58.977,3.766 54.397,3.766 54.397,8.254 57.744,8.254 
			57.744,10.747 54.397,10.747 54.397,15.234 58.977,15.234 58.977,17.728 51.917,17.728 		"/>
		<path fill="#010101" d="M70.755,15.274h1.037c0.84,0,1.422-0.433,1.745-1.299c0.114-0.297,0.171-0.638,0.171-1.023
			c0-0.918-0.175-1.587-0.525-2.007c-0.315-0.385-0.779-0.578-1.391-0.578h-1.037V15.274L70.755,15.274z M70.755,7.991h1.037
			c0.77,0,1.286-0.376,1.549-1.128c0.096-0.28,0.144-0.625,0.144-1.037c0-0.682-0.167-1.198-0.499-1.548
			c-0.307-0.323-0.704-0.485-1.194-0.485h-1.037V7.991L70.755,7.991z M68.078,17.728V1.273h3.713c0.979,0,1.863,0.258,2.651,0.774
			c0.673,0.438,1.154,1.115,1.443,2.034c0.157,0.49,0.236,1.072,0.236,1.745c0,1.103-0.293,1.986-0.879,2.651
			c-0.245,0.28-0.534,0.494-0.866,0.643c0.551,0.209,1.019,0.625,1.404,1.246c0.253,0.42,0.441,0.962,0.564,1.627
			c0.061,0.341,0.092,0.722,0.092,1.142c0,1.041-0.197,1.924-0.591,2.65c-0.306,0.568-0.739,1.023-1.299,1.365
			c-0.63,0.385-1.255,0.577-1.876,0.577H68.078L68.078,17.728z"/>
		<path fill="#010101" d="M83.668,17.911c-1.094,0-2.021-0.38-2.782-1.142c-0.761-0.761-1.142-1.684-1.142-2.769V1.286h2.428v12.688
			c0,0.394,0.14,0.729,0.419,1.004c0.28,0.275,0.617,0.414,1.011,0.414c0.394,0,0.728-0.138,1.003-0.414s0.413-0.61,0.413-1.004
			V1.286h2.585v12.715c0,1.102-0.385,2.03-1.154,2.782C85.68,17.535,84.752,17.911,83.668,17.911L83.668,17.911z"/>
		<polygon fill="#010101" points="93.471,10.76 93.471,17.728 90.991,17.728 90.991,1.286 93.471,1.286 93.471,8.267 96.462,8.267 
			96.462,1.286 98.942,1.286 98.942,17.728 96.462,17.728 96.462,10.76 93.471,10.76 		"/>
		<path fill="#010101" d="M106.686,5.052l-0.918,6.482h1.837L106.686,5.052L106.686,5.052z M105.383,13.949l-0.603,3.779h-2.583
			l2.795-16.441h3.411l2.755,16.441h-2.607l-0.58-3.779H105.383L105.383,13.949z"/>
		<polygon fill="#010101" points="116.908,17.728 114.428,17.728 114.428,1.286 116.908,1.286 116.908,17.728 		"/>
	</g>
</g>
</svg>
