<?xml version="1.0" encoding="utf-8"?>
<!-- Generator: Adobe Illustrator 16.0.4, SVG Export Plug-In . SVG Version: 6.00 Build 0)  -->
<!DOCTYPE svg PUBLIC "-//W3C//DTD SVG 1.1//EN" "http://www.w3.org/Graphics/SVG/1.1/DTD/svg11.dtd">
<svg version="1.1" id="Layer_1" xmlns="http://www.w3.org/2000/svg" xmlns:xlink="http://www.w3.org/1999/xlink" x="0px" y="0px"
	 width="87.849px" height="40.521px" viewBox="0 0 87.849 40.521" enable-background="new 0 0 87.849 40.521" xml:space="preserve">
<rect x="-545.951" y="187.386" fill="#231F20" width="242.667" height="55.334"/>
<g>
	<path d="M-393.286,102.44c-2.501-0.172-1.651-3.295-1.651-3.295c0.262-2.478,1.168-4.008-0.744-4.451
		c-1.916-0.443-3.99-0.061-4.432,0.482c-0.443,0.544-2.338,4.394-3.866,4.23c-1.128-0.119,1.248-3.142-0.644-3.805
		c-0.679-0.239-1.351,0.337-1.371,0.301c-0.08-0.142,0.283-1.408-1.109-1.431c-1.387-0.019-4.689,1.39-6.784,4.188
		c-0.805,1.076-1.089-0.121-1.108-0.945c-0.02-0.825,0.162-3.746,1.733-4.209c1.572-0.463,11.159,0.252,17.438-0.926
		c0.322-0.062,0.235-1.219-0.262-1.33c-0.906-0.201-2.316,0-2.316,0c-5.879,0.342-13.835,0.784-13.775,0.463
		c0.062-0.321,0.787-1.107-0.221-1.631c-1.006-0.523-2.234,1.691-2.515,1.672c-0.284-0.021-5.337-0.262-5.519-0.141
		c-0.25,0.165-1.23,1.55,0.06,1.55c1.288,0,3.222,0.02,3.101,0.161c-0.121,0.141-3.403,2.578-3.644,2.215
		c-0.241-0.363-4.069-3.242-4.773-4.147c-0.705-0.907,0.078-0.947,1.269-1.128c1.187-0.182,6.243-0.262,4.127-1.552
		c0,0-2.638-0.805-6.985,0.666c-4.351,1.468-3.585,2.962-1.271,4.169c2.318,1.206,4.29,3.564,4.229,3.985
		c-0.061,0.423-2.127,1.517-3.161,2.015c-3.966,1.913-9.103,7.109-1.991,7.572c9.064,0.592,9.582-5.054,9.543-4.633
		c-0.023,0.262,0.759-4.043-0.303-5.901c-0.08-0.14,3.004-2.192,3.021-2.255c0.192-0.574-2.436,8.458-0.24,8.721
		c2.56,0.305,2.538-1.047,2.717-1.289c0.182-0.241,3.586,1.107,6.122-0.523c2.024-1.301,1.53-0.482,2.034,0.082
		c0.504,0.562,2.156,0.356,2.961-0.304c1.006-0.825,2.879-2.638,4.348-4.329c0.768-0.881,0.908-0.04,0.908,0.424
		c0,0.462-1.188,6,2.355,6.504c3.545,0.502,4.734,0.564,4.713-0.402C-391.293,103.213-391.146,102.588-393.286,102.44z
		 M-428.689,105.153c-3.73-2.202,4.836-6.444,4.836-6.444C-421.064,103.219-424.958,107.354-428.689,105.153z M-409.647,100.292
		c-0.731,0.281-2.753,1.232-1.628-1.759c1.128-2.992,4.37-1.737,4.37-1.737C-406.007,97.745-408.916,100.011-409.647,100.292z
		 M-386.426,100.749c-2.283-2.014-3.679-1.904-1.96-3.543s0.144-1.515-0.081-1.423c0,0-5.559,1.691-3.946,3.999
		c1.609,2.31,5.53,0.914,4.294,5.156s1.961,1.214,2.497,0.51C-385.102,104.766-384.145,102.762-386.426,100.749z"/>
	<path d="M-438.626,79.151c-0.994-0.242-1.613,0.281-1.935,0.832c-0.321,0.551-0.239,3.974-0.148,4.739
		c0.095,0.765,1.828,0.511,2.471-0.229c0.644-0.737,0.578-1.933,0.578-1.933C-437.204,79.084-438.626,79.151-438.626,79.151z
		 M-433.164,74.303c0.538-0.939,0.243-1.825-0.724-1.476c0,0-2.833,1.544-2.146,2.12C-435.352,75.526-433.637,75.133-433.164,74.303
		z M-387.031,86.374c-2.561,0.537-6.366-0.377-5.963-1.974c0.031-0.124,5.732-4.993,5.732-4.993
		c2.617-2.646,3.953-5.692,0.912-6.404c-1.75-0.41-5.938,1.527-8.879,7.041c-0.372,0.691-0.387,1.174-1.443,3.014
		c-0.519,0.899-3.209,0.873-3.209,0.873c-0.047-0.014-0.49-0.143,0.242-1.463c1.125-2.035,3.061-4.257-0.16-4.537
		c-3.06-0.27-4.957,2.523-5.332,5.342c-0.114,0.861-2.289,1.203-2.311,0.27c-0.023-1.176-1.625-3.74-2.845-3.84
		c-1.933-0.162-2.849,0.781-3.505,0.927c-0.913,0.2-2.696,2.913-3.287,3.88c-0.424,0.689-0.948-0.965-0.887-1.84
		c0.08-1.168-0.015-3.357-3.451-2.564c-1.014,0.232,2.498-1.316,3.732-5.921c0.519-1.931-2.026-3.153-5.33,1.317
		c-3.372,4.564-3.515,7.238-4.469,7.894c-1.006,0.687-2.465,1.703-4.365,0.361c-1.149-0.812,0.346-2.145,1.302-2.39
		c2.894-0.737,2.995-1.488,2.875-2.189c-0.122-0.697-1.732-0.186-1.732-0.186c-1.038,0.3-8.702,3.096-6.163,6.256
		c0.88,1.094,4.442,0.588,5.893,0.039c0.958-0.36,1.971-0.835,1.72,0.229c-0.12,0.509,0.63,0.497,0.805,0.401
		c0.175-0.094,0.922-0.943,2.551-0.965c0.981-0.014,1.774-2.405,2.095-2.767c0.355-0.401,1.061-0.39,1.073,0.979
		s0.065,4.189,2.122,4.148c2.052-0.041,2.641-1.72,3.033-1.691c5.84,0.444,5.731-0.682,6.146-0.52
		c3.95,1.555,4.599-0.427,5.413-0.138c1.174,0.416,1.699,0.392,2.631,0.563c1.32,0.243,2.859-0.08,4.51-0.51
		c0.811-0.211,1.947,2.551,5.318,2.939c3.369,0.389,6.289-0.686,6.566-0.926C-385.505,86.868-385.4,86.031-387.031,86.374z
		 M-388.394,75.066c3.855-1.323-0.503,3.394-1.005,3.888c-0.505,0.495-3.587,3.336-3.578,2.453
		C-392.977,81.407-392.002,76.304-388.394,75.066z M-421.345,75.808c0,0,1.466-2.715,2.485-2.364c0,0,0.846,1.293-2.561,4.107
		C-423.512,79.278-421.654,76.342-421.345,75.808z M-412.637,83.954c-1.449,0.119-1.158-1.113-0.289-1.899
		c0.867-0.788,1.48,0.007,1.48,0.007C-410.782,82.731-411.188,83.833-412.637,83.954z M-401.943,82.959
		c-0.161,0.09-1.047-0.518-0.607-1.265c0,0,0.98-2.285,2.215-1.878C-399.803,79.995-401.782,82.87-401.943,82.959z M-444.819,74.776
		c-0.946-2.215-3.48-0.99-4.38-0.09c-0.667,0.665-1.335-0.037-2.357-0.705c-0.696-0.457-2.497,0.296-4.081,0.698
		c-1.584,0.403-3.248-1.207-4.914-1.717c-1.665-0.51-5.37,1.101-6.014,2.2c-0.645,1.102,0.377,0.833,0.377,0.833
		c0.308-0.094,2.628-1.235,4.132-0.134c2.469,1.809,0.702,7.049-0.107,8.068c-0.616,0.783-2.485,3.217-0.536,3.424
		c4.113,0.436,5.155-8.619,6.042-10.525c0.885-1.907,2.557-1.051,2.551,0.778c-0.018,4.97-1.948,5.204,0.437,5.437
		c2.341,0.229,3.019-6.203,3.374-6.564c2.217-2.257,1.599,4.209,3.814,10.204c1.496,4.051,5.236,1.427,4.619,0.724
		C-443.608,85.424-444.082,76.506-444.819,74.776z"/>
</g>
<g>
	<path fill="#535453" d="M-393.286,157.773c-2.501-0.172-1.651-3.295-1.651-3.295c0.262-2.478,1.168-4.008-0.744-4.451
		c-1.916-0.443-3.99-0.061-4.432,0.482c-0.443,0.544-2.338,4.394-3.866,4.23c-1.128-0.119,1.248-3.142-0.644-3.805
		c-0.679-0.239-1.351,0.337-1.371,0.301c-0.08-0.142,0.283-1.408-1.109-1.431c-1.387-0.019-4.689,1.39-6.784,4.188
		c-0.805,1.076-1.089-0.121-1.108-0.945c-0.02-0.825,0.162-3.746,1.733-4.209c1.572-0.463,11.159,0.252,17.438-0.926
		c0.322-0.062,0.235-1.219-0.262-1.33c-0.906-0.201-2.316,0-2.316,0c-5.879,0.342-13.835,0.784-13.775,0.463
		c0.062-0.321,0.787-1.107-0.221-1.631c-1.006-0.523-2.234,1.691-2.515,1.672c-0.284-0.021-5.337-0.262-5.519-0.141
		c-0.25,0.165-1.23,1.55,0.06,1.55c1.288,0,3.222,0.02,3.101,0.161c-0.121,0.141-3.403,2.578-3.644,2.215
		c-0.241-0.363-4.069-3.242-4.773-4.147c-0.705-0.907,0.078-0.947,1.269-1.128c1.187-0.182,6.243-0.262,4.127-1.552
		c0,0-2.638-0.805-6.985,0.666c-4.351,1.468-3.585,2.962-1.271,4.169c2.318,1.206,4.29,3.564,4.229,3.985
		c-0.061,0.423-2.127,1.517-3.161,2.015c-3.966,1.913-9.103,7.109-1.991,7.572c9.064,0.592,9.582-5.054,9.543-4.633
		c-0.023,0.262,0.759-4.043-0.303-5.901c-0.08-0.14,3.004-2.192,3.021-2.255c0.192-0.574-2.436,8.458-0.24,8.721
		c2.56,0.305,2.538-1.047,2.717-1.289c0.182-0.241,3.586,1.107,6.122-0.523c2.024-1.301,1.53-0.482,2.034,0.082
		c0.504,0.562,2.156,0.356,2.961-0.304c1.006-0.825,2.879-2.638,4.348-4.329c0.768-0.881,0.908-0.04,0.908,0.424
		c0,0.462-1.188,6,2.355,6.504c3.545,0.502,4.734,0.564,4.713-0.402C-391.293,158.547-391.146,157.922-393.286,157.773z
		 M-428.689,160.486c-3.73-2.202,4.836-6.444,4.836-6.444C-421.064,158.553-424.958,162.688-428.689,160.486z M-409.647,155.625
		c-0.731,0.281-2.753,1.232-1.628-1.759c1.128-2.992,4.37-1.737,4.37-1.737C-406.007,153.078-408.916,155.345-409.647,155.625z
		 M-386.426,156.082c-2.283-2.014-3.679-1.904-1.96-3.543s0.144-1.515-0.081-1.423c0,0-5.559,1.691-3.946,3.999
		c1.609,2.31,5.53,0.914,4.294,5.156s1.961,1.214,2.497,0.51C-385.102,160.1-384.145,158.096-386.426,156.082z"/>
	<path fill="#535453" d="M-438.626,134.484c-0.994-0.242-1.613,0.281-1.935,0.832c-0.321,0.551-0.239,3.974-0.148,4.739
		c0.095,0.765,1.828,0.511,2.471-0.229c0.644-0.737,0.578-1.933,0.578-1.933C-437.204,134.418-438.626,134.484-438.626,134.484z
		 M-433.164,129.637c0.538-0.939,0.243-1.825-0.724-1.476c0,0-2.833,1.544-2.146,2.12
		C-435.352,130.859-433.637,130.467-433.164,129.637z M-387.031,141.707c-2.561,0.537-6.366-0.377-5.963-1.974
		c0.031-0.124,5.732-4.993,5.732-4.993c2.617-2.646,3.953-5.692,0.912-6.404c-1.75-0.41-5.938,1.527-8.879,7.041
		c-0.372,0.691-0.387,1.174-1.443,3.014c-0.519,0.899-3.209,0.873-3.209,0.873c-0.047-0.014-0.49-0.143,0.242-1.463
		c1.125-2.035,3.061-4.257-0.16-4.537c-3.06-0.27-4.957,2.523-5.332,5.342c-0.114,0.861-2.289,1.203-2.311,0.27
		c-0.023-1.176-1.625-3.74-2.845-3.84c-1.933-0.162-2.849,0.781-3.505,0.927c-0.913,0.2-2.696,2.913-3.287,3.88
		c-0.424,0.689-0.948-0.965-0.887-1.84c0.08-1.168-0.015-3.357-3.451-2.564c-1.014,0.232,2.498-1.316,3.732-5.921
		c0.519-1.931-2.026-3.153-5.33,1.317c-3.372,4.564-3.515,7.238-4.469,7.894c-1.006,0.687-2.465,1.703-4.365,0.361
		c-1.149-0.812,0.346-2.145,1.302-2.39c2.894-0.737,2.995-1.488,2.875-2.189c-0.122-0.697-1.732-0.186-1.732-0.186
		c-1.038,0.3-8.702,3.096-6.163,6.256c0.88,1.094,4.442,0.588,5.893,0.039c0.958-0.36,1.971-0.835,1.72,0.229
		c-0.12,0.509,0.63,0.497,0.805,0.401c0.175-0.094,0.922-0.943,2.551-0.965c0.981-0.014,1.774-2.405,2.095-2.767
		c0.355-0.401,1.061-0.39,1.073,0.979s0.065,4.189,2.122,4.148c2.052-0.041,2.641-1.72,3.033-1.691
		c5.84,0.444,5.731-0.682,6.146-0.52c3.95,1.555,4.599-0.427,5.413-0.138c1.174,0.416,1.699,0.392,2.631,0.563
		c1.32,0.243,2.859-0.08,4.51-0.51c0.811-0.211,1.947,2.551,5.318,2.939c3.369,0.389,6.289-0.686,6.566-0.926
		C-385.505,142.201-385.4,141.364-387.031,141.707z M-388.394,130.399c3.855-1.323-0.503,3.394-1.005,3.888
		c-0.505,0.495-3.587,3.336-3.578,2.453C-392.977,136.74-392.002,131.638-388.394,130.399z M-421.345,131.142
		c0,0,1.466-2.715,2.485-2.364c0,0,0.846,1.293-2.561,4.107C-423.512,134.611-421.654,131.676-421.345,131.142z M-412.637,139.287
		c-1.449,0.119-1.158-1.113-0.289-1.899c0.867-0.788,1.48,0.007,1.48,0.007C-410.782,138.064-411.188,139.166-412.637,139.287z
		 M-401.943,138.293c-0.161,0.09-1.047-0.518-0.607-1.265c0,0,0.98-2.285,2.215-1.878
		C-399.803,135.328-401.782,138.203-401.943,138.293z M-444.819,130.109c-0.946-2.215-3.48-0.99-4.38-0.09
		c-0.667,0.665-1.335-0.037-2.357-0.705c-0.696-0.457-2.497,0.296-4.081,0.698c-1.584,0.403-3.248-1.207-4.914-1.717
		c-1.665-0.51-5.37,1.101-6.014,2.2c-0.645,1.102,0.377,0.833,0.377,0.833c0.308-0.094,2.628-1.235,4.132-0.134
		c2.469,1.809,0.702,7.049-0.107,8.068c-0.616,0.783-2.485,3.217-0.536,3.424c4.113,0.436,5.155-8.619,6.042-10.525
		c0.885-1.907,2.557-1.051,2.551,0.778c-0.018,4.97-1.948,5.204,0.437,5.437c2.341,0.229,3.019-6.203,3.374-6.564
		c2.217-2.257,1.599,4.209,3.814,10.204c1.496,4.051,5.236,1.427,4.619,0.724C-443.608,140.758-444.082,131.84-444.819,130.109z"/>
</g>
<g>
	<path fill="#FFFFFF" d="M-393.286,227.691c-2.501-0.172-1.651-3.295-1.651-3.295c0.262-2.479,1.168-4.008-0.744-4.451
		c-1.916-0.443-3.99-0.061-4.432,0.482c-0.443,0.543-2.338,4.393-3.866,4.23c-1.128-0.119,1.248-3.143-0.644-3.805
		c-0.679-0.24-1.351,0.336-1.371,0.301c-0.08-0.143,0.283-1.408-1.109-1.432c-1.387-0.018-4.689,1.391-6.784,4.189
		c-0.805,1.076-1.089-0.121-1.108-0.945c-0.02-0.826,0.162-3.746,1.733-4.209c1.572-0.463,11.159,0.252,17.438-0.926
		c0.322-0.062,0.235-1.219-0.262-1.33c-0.906-0.201-2.316,0-2.316,0c-5.879,0.342-13.835,0.783-13.775,0.463
		c0.062-0.322,0.787-1.107-0.221-1.631c-1.006-0.523-2.234,1.691-2.515,1.672c-0.284-0.021-5.337-0.262-5.519-0.141
		c-0.25,0.164-1.23,1.549,0.06,1.549c1.288,0,3.222,0.02,3.101,0.162c-0.121,0.141-3.403,2.578-3.644,2.215
		c-0.241-0.363-4.069-3.242-4.773-4.148c-0.705-0.906,0.078-0.947,1.269-1.127c1.187-0.182,6.243-0.262,4.127-1.553
		c0,0-2.638-0.805-6.985,0.666c-4.351,1.469-3.585,2.963-1.271,4.17c2.318,1.205,4.29,3.564,4.229,3.984
		c-0.061,0.424-2.127,1.518-3.161,2.016c-3.966,1.912-9.103,7.109-1.991,7.572c9.064,0.592,9.582-5.055,9.543-4.633
		c-0.023,0.262,0.759-4.043-0.303-5.902c-0.08-0.139,3.004-2.191,3.021-2.254c0.192-0.574-2.436,8.457-0.24,8.721
		c2.56,0.305,2.538-1.047,2.717-1.289c0.182-0.242,3.586,1.107,6.122-0.523c2.024-1.301,1.53-0.482,2.034,0.082
		c0.504,0.562,2.156,0.355,2.961-0.305c1.006-0.824,2.879-2.637,4.348-4.328c0.768-0.881,0.908-0.041,0.908,0.424
		c0,0.461-1.188,6,2.355,6.504c3.545,0.502,4.734,0.564,4.713-0.402C-391.293,228.465-391.146,227.84-393.286,227.691z
		 M-428.689,230.404c-3.73-2.203,4.836-6.445,4.836-6.445C-421.064,228.471-424.958,232.605-428.689,230.404z M-409.647,225.543
		c-0.731,0.281-2.753,1.232-1.628-1.76c1.128-2.992,4.37-1.736,4.37-1.736C-406.007,222.996-408.916,225.262-409.647,225.543z
		 M-386.426,226c-2.283-2.014-3.679-1.904-1.96-3.543s0.144-1.516-0.081-1.424c0,0-5.559,1.691-3.946,4
		c1.609,2.309,5.53,0.914,4.294,5.156s1.961,1.213,2.497,0.51C-385.102,230.018-384.145,228.014-386.426,226z"/>
	<path fill="#FFFFFF" d="M-438.626,204.402c-0.994-0.242-1.613,0.281-1.935,0.832c-0.321,0.551-0.239,3.973-0.148,4.738
		c0.095,0.766,1.828,0.512,2.471-0.229c0.644-0.736,0.578-1.932,0.578-1.932C-437.204,204.336-438.626,204.402-438.626,204.402z
		 M-433.164,199.555c0.538-0.939,0.243-1.826-0.724-1.477c0,0-2.833,1.545-2.146,2.121
		C-435.352,200.777-433.637,200.385-433.164,199.555z M-387.031,211.625c-2.561,0.537-6.366-0.377-5.963-1.975
		c0.031-0.123,5.732-4.992,5.732-4.992c2.617-2.646,3.953-5.693,0.912-6.404c-1.75-0.41-5.938,1.527-8.879,7.041
		c-0.372,0.691-0.387,1.174-1.443,3.014c-0.519,0.898-3.209,0.873-3.209,0.873c-0.047-0.014-0.49-0.143,0.242-1.463
		c1.125-2.035,3.061-4.258-0.16-4.537c-3.06-0.27-4.957,2.523-5.332,5.342c-0.114,0.861-2.289,1.203-2.311,0.27
		c-0.023-1.176-1.625-3.74-2.845-3.84c-1.933-0.162-2.849,0.781-3.505,0.926c-0.913,0.201-2.696,2.914-3.287,3.881
		c-0.424,0.689-0.948-0.965-0.887-1.84c0.08-1.168-0.015-3.357-3.451-2.564c-1.014,0.232,2.498-1.316,3.732-5.922
		c0.519-1.93-2.026-3.152-5.33,1.318c-3.372,4.564-3.515,7.238-4.469,7.893c-1.006,0.688-2.465,1.703-4.365,0.361
		c-1.149-0.811,0.346-2.145,1.302-2.389c2.894-0.738,2.995-1.488,2.875-2.189c-0.122-0.697-1.732-0.186-1.732-0.186
		c-1.038,0.299-8.702,3.096-6.163,6.256c0.88,1.094,4.442,0.588,5.893,0.039c0.958-0.361,1.971-0.836,1.72,0.229
		c-0.12,0.51,0.63,0.498,0.805,0.402c0.175-0.094,0.922-0.943,2.551-0.965c0.981-0.014,1.774-2.406,2.095-2.768
		c0.355-0.4,1.061-0.389,1.073,0.98s0.065,4.189,2.122,4.148c2.052-0.041,2.641-1.721,3.033-1.691
		c5.84,0.443,5.731-0.682,6.146-0.52c3.95,1.555,4.599-0.428,5.413-0.139c1.174,0.416,1.699,0.393,2.631,0.564
		c1.32,0.242,2.859-0.08,4.51-0.51c0.811-0.211,1.947,2.551,5.318,2.939c3.369,0.389,6.289-0.686,6.566-0.926
		C-385.505,212.119-385.4,211.281-387.031,211.625z M-388.394,200.316c3.855-1.322-0.503,3.395-1.005,3.889
		c-0.505,0.494-3.587,3.336-3.578,2.453C-392.977,206.658-392.002,201.555-388.394,200.316z M-421.345,201.059
		c0,0,1.466-2.715,2.485-2.363c0,0,0.846,1.293-2.561,4.107C-423.512,204.529-421.654,201.594-421.345,201.059z M-412.637,209.205
		c-1.449,0.119-1.158-1.113-0.289-1.9c0.867-0.787,1.48,0.008,1.48,0.008C-410.782,207.982-411.188,209.084-412.637,209.205z
		 M-401.943,208.211c-0.161,0.09-1.047-0.518-0.607-1.266c0,0,0.98-2.285,2.215-1.877
		C-399.803,205.246-401.782,208.121-401.943,208.211z M-444.819,200.027c-0.946-2.215-3.48-0.99-4.38-0.09
		c-0.667,0.664-1.335-0.037-2.357-0.705c-0.696-0.457-2.497,0.295-4.081,0.697c-1.584,0.404-3.248-1.207-4.914-1.717
		c-1.665-0.51-5.37,1.102-6.014,2.201c-0.645,1.102,0.377,0.832,0.377,0.832c0.308-0.094,2.628-1.234,4.132-0.133
		c2.469,1.809,0.702,7.049-0.107,8.068c-0.616,0.783-2.485,3.217-0.536,3.424c4.113,0.436,5.155-8.619,6.042-10.525
		c0.885-1.908,2.557-1.051,2.551,0.777c-0.018,4.971-1.948,5.205,0.437,5.438c2.341,0.229,3.019-6.203,3.374-6.564
		c2.217-2.258,1.599,4.209,3.814,10.203c1.496,4.051,5.236,1.428,4.619,0.725C-443.608,210.676-444.082,201.758-444.819,200.027z"/>
</g>
<g>
	<path d="M76.329,32.898c-2.501-0.172-1.651-3.295-1.651-3.295c0.262-2.478,1.168-4.008-0.744-4.451
		c-1.916-0.443-3.99-0.061-4.432,0.482c-0.443,0.544-2.338,4.394-3.866,4.23c-1.128-0.119,1.248-3.142-0.644-3.805
		c-0.679-0.239-1.351,0.337-1.371,0.301c-0.08-0.142,0.283-1.408-1.109-1.431c-1.387-0.019-4.689,1.39-6.784,4.188
		c-0.805,1.076-1.089-0.121-1.108-0.945c-0.02-0.825,0.162-3.746,1.733-4.209c1.572-0.463,11.159,0.252,17.438-0.926
		c0.322-0.062,0.235-1.219-0.262-1.33c-0.906-0.201-2.316,0-2.316,0c-5.879,0.342-13.835,0.784-13.775,0.463
		c0.062-0.321,0.787-1.107-0.221-1.631c-1.006-0.523-2.234,1.691-2.515,1.672c-0.284-0.021-5.337-0.262-5.519-0.141
		c-0.25,0.165-1.23,1.55,0.06,1.55c1.288,0,3.222,0.02,3.101,0.161c-0.121,0.141-3.403,2.578-3.644,2.215
		c-0.241-0.363-4.069-3.242-4.773-4.147c-0.705-0.907,0.078-0.947,1.269-1.128c1.187-0.182,6.243-0.262,4.127-1.552
		c0,0-2.638-0.805-6.985,0.666c-4.351,1.468-3.585,2.962-1.271,4.169c2.318,1.206,4.29,3.564,4.229,3.985
		c-0.061,0.423-2.127,1.517-3.161,2.015c-3.966,1.913-9.103,7.109-1.991,7.572c9.064,0.592,9.582-5.054,9.543-4.633
		c-0.023,0.262,0.759-4.043-0.303-5.901c-0.08-0.14,3.004-2.192,3.021-2.255c0.192-0.574-2.436,8.458-0.24,8.721
		c2.56,0.305,2.538-1.047,2.717-1.289c0.182-0.241,3.586,1.107,6.122-0.523c2.024-1.301,1.53-0.482,2.034,0.082
		c0.504,0.562,2.156,0.356,2.961-0.304c1.006-0.825,2.879-2.638,4.348-4.329c0.768-0.881,0.908-0.04,0.908,0.424
		c0,0.462-1.188,6,2.355,6.504c3.545,0.502,4.734,0.564,4.713-0.402C78.322,33.672,78.469,33.047,76.329,32.898z M40.926,35.611
		c-3.73-2.202,4.836-6.444,4.836-6.444C48.551,33.678,44.657,37.812,40.926,35.611z M59.968,30.75
		c-0.731,0.281-2.753,1.232-1.628-1.759c1.128-2.992,4.37-1.737,4.37-1.737C63.608,28.203,60.699,30.47,59.968,30.75z
		 M83.189,31.207c-2.283-2.014-3.679-1.904-1.96-3.543s0.144-1.515-0.081-1.423c0,0-5.559,1.691-3.946,3.999
		c1.609,2.31,5.53,0.914,4.294,5.156s1.961,1.214,2.497,0.51C84.514,35.225,85.471,33.221,83.189,31.207z"/>
	<path d="M30.988,9.609c-0.994-0.242-1.612,0.281-1.934,0.832s-0.24,3.974-0.148,4.739c0.095,0.765,1.828,0.511,2.471-0.229
		c0.644-0.737,0.578-1.933,0.578-1.933C32.411,9.543,30.988,9.609,30.988,9.609z M36.451,4.762c0.539-0.939,0.243-1.825-0.724-1.476
		c0,0-2.833,1.544-2.146,2.12C34.264,5.984,35.979,5.592,36.451,4.762z M82.584,16.832c-2.561,0.537-6.366-0.377-5.963-1.974
		c0.031-0.124,5.732-4.993,5.732-4.993c2.617-2.646,3.953-5.692,0.912-6.404c-1.75-0.41-5.938,1.527-8.879,7.041
		c-0.372,0.691-0.387,1.174-1.443,3.014c-0.519,0.899-3.209,0.873-3.209,0.873c-0.047-0.014-0.49-0.143,0.242-1.463
		c1.125-2.035,3.061-4.257-0.16-4.537c-3.06-0.27-4.957,2.523-5.332,5.342c-0.114,0.861-2.289,1.203-2.311,0.27
		c-0.023-1.176-1.625-3.74-2.845-3.84c-1.933-0.162-2.849,0.781-3.505,0.927c-0.913,0.2-2.696,2.913-3.287,3.88
		c-0.424,0.689-0.948-0.965-0.887-1.84c0.08-1.168-0.015-3.357-3.451-2.564c-1.014,0.232,2.498-1.316,3.732-5.921
		c0.519-1.931-2.026-3.153-5.33,1.317c-3.372,4.564-3.516,7.238-4.469,7.894c-1.006,0.687-2.465,1.703-4.365,0.361
		c-1.148-0.812,0.346-2.145,1.303-2.39c2.893-0.737,2.994-1.488,2.874-2.189c-0.122-0.697-1.731-0.186-1.731-0.186
		c-1.039,0.3-8.703,3.096-6.164,6.256c0.881,1.094,4.442,0.588,5.893,0.039c0.959-0.36,1.972-0.835,1.721,0.229
		c-0.12,0.509,0.631,0.497,0.805,0.401c0.176-0.094,0.922-0.943,2.551-0.965c0.981-0.014,1.774-2.405,2.096-2.767
		c0.355-0.401,1.061-0.39,1.073,0.979s0.065,4.189,2.122,4.148c2.052-0.041,2.641-1.72,3.033-1.691
		c5.84,0.444,5.731-0.682,6.146-0.52c3.95,1.555,4.599-0.427,5.413-0.138c1.174,0.416,1.699,0.392,2.631,0.563
		c1.32,0.243,2.859-0.08,4.51-0.51c0.811-0.211,1.947,2.551,5.318,2.939c3.369,0.389,6.289-0.686,6.566-0.926
		C84.11,17.326,84.215,16.489,82.584,16.832z M81.222,5.524c3.855-1.323-0.503,3.394-1.005,3.888
		c-0.505,0.495-3.587,3.336-3.578,2.453C76.639,11.865,77.613,6.763,81.222,5.524z M48.271,6.267c0,0,1.466-2.715,2.485-2.364
		c0,0,0.846,1.293-2.561,4.107C46.104,9.736,47.961,6.801,48.271,6.267z M56.979,14.412c-1.449,0.119-1.158-1.113-0.289-1.899
		c0.867-0.788,1.48,0.007,1.48,0.007C58.833,13.189,58.428,14.291,56.979,14.412z M67.672,13.418
		c-0.161,0.09-1.047-0.518-0.607-1.265c0,0,0.98-2.285,2.215-1.878C69.812,10.453,67.833,13.328,67.672,13.418z M24.796,5.234
		c-0.946-2.215-3.48-0.99-4.38-0.09c-0.667,0.665-1.336-0.037-2.357-0.705c-0.696-0.457-2.498,0.296-4.081,0.698
		c-1.584,0.403-3.247-1.207-4.913-1.717c-1.665-0.51-5.371,1.101-6.014,2.2C2.405,6.723,3.428,6.454,3.428,6.454
		C3.734,6.36,6.055,5.219,7.559,6.32c2.47,1.809,0.702,7.049-0.106,8.068c-0.616,0.783-2.485,3.217-0.536,3.424
		c4.113,0.436,5.156-8.619,6.042-10.525c0.886-1.907,2.558-1.051,2.552,0.778c-0.019,4.97-1.949,5.204,0.437,5.437
		c2.341,0.229,3.019-6.203,3.374-6.564c2.217-2.257,1.599,4.209,3.814,10.204c1.496,4.051,5.236,1.427,4.619,0.724
		C26.007,15.883,25.533,6.965,24.796,5.234z"/>
</g>
</svg>
