<?xml version="1.0" encoding="utf-8"?>
<!-- Generator: Adobe Illustrator 16.0.4, SVG Export Plug-In . SVG Version: 6.00 Build 0)  -->
<!DOCTYPE svg PUBLIC "-//W3C//DTD SVG 1.1//EN" "http://www.w3.org/Graphics/SVG/1.1/DTD/svg11.dtd">
<svg version="1.1" id="Layer_1" xmlns="http://www.w3.org/2000/svg" xmlns:xlink="http://www.w3.org/1999/xlink" x="0px" y="0px"
	 width="181.608px" height="127.838px" viewBox="0 0 181.608 127.838" enable-background="new 0 0 181.608 127.838"
	 xml:space="preserve">
<g>
	<defs>
		
			<rect id="SVGID_1_" x="90.761" y="-7.252" transform="matrix(-0.4618 -0.887 0.887 -0.4618 133.1552 174.9525)" width="57.796" height="108.657"/>
	</defs>
	<defs>
		<polyline id="SVGID_2_" points="25.093,123.62 12.857,100.115 1.868,76.001 78.204,36.264 156.515,0.575 168.751,24.081 
			179.74,48.193 103.404,87.932 25.093,123.62 		"/>
	</defs>
	<defs>
		<polyline id="SVGID_3_" points="157.777,0 181.608,52.292 23.831,124.195 0,71.903 157.777,0 		"/>
	</defs>
	<defs>
		<rect id="SVGID_4_" x="12.957" y="26.675" width="160.051" height="91.458"/>
	</defs>
	<clipPath id="SVGID_5_">
		<use xlink:href="#SVGID_1_"  overflow="visible"/>
	</clipPath>
	<clipPath id="SVGID_6_" clip-path="url(#SVGID_5_)">
		<use xlink:href="#SVGID_2_"  overflow="visible"/>
	</clipPath>
	<clipPath id="SVGID_7_" clip-path="url(#SVGID_6_)">
		<use xlink:href="#SVGID_3_"  overflow="visible"/>
	</clipPath>
	<clipPath id="SVGID_8_" clip-path="url(#SVGID_7_)">
		<use xlink:href="#SVGID_4_"  overflow="visible"/>
	</clipPath>
	<g clip-path="url(#SVGID_8_)">
		<path fill-rule="evenodd" clip-rule="evenodd" d="M61.217,52.647c0.815-0.161,1.631-0.321,2.447-0.481
			c0.095-0.019,0.191-0.028,0.284-0.053c0.807-0.209,1.606-0.451,2.42-0.624c0.76-0.161,1.535-0.247,2.303-0.371
			c0.135-0.021,0.265-0.068,0.398-0.099c0.331-0.076,0.663-0.152,0.995-0.224c0.254-0.055,0.509-0.11,0.766-0.153
			c0.225-0.038,0.454-0.061,0.681-0.085c0.067-0.007,0.14,0.021,0.205,0.008c0.627-0.13,1.25-0.281,1.88-0.396
			c0.787-0.144,1.579-0.26,2.368-0.387c0.095-0.016,0.191-0.023,0.286-0.038c0.9-0.141,1.802-0.274,2.7-0.426
			c0.644-0.109,1.28-0.264,1.925-0.361c0.627-0.095,1.262-0.143,1.893-0.211c0.068-0.007,0.138-0.005,0.205-0.016
			c1.088-0.168,2.174-0.364,3.267-0.5c0.984-0.124,1.979-0.168,2.965-0.278c0.622-0.069,1.236-0.206,1.855-0.291
			c0.444-0.061,0.891-0.093,1.338-0.125c0.579-0.042,1.161-0.051,1.738-0.109c0.567-0.057,1.127-0.178,1.694-0.233
			c0.524-0.051,1.053-0.054,1.58-0.075c0.068-0.003,0.138,0.025,0.204,0.017c0.553-0.074,1.102-0.173,1.656-0.225
			c0.552-0.052,1.11-0.057,1.665-0.084c0.381-0.02,0.762-0.035,1.141-0.069c0.544-0.048,1.086-0.123,1.631-0.165
			c0.448-0.035,0.898-0.043,1.348-0.056c0.583-0.016,1.165-0.032,1.748-0.035c0.499-0.002,0.999,0.031,1.498,0.019
			c0.487-0.012,0.974-0.066,1.462-0.094c0.598-0.033,1.196-0.056,1.794-0.089c0.393-0.022,0.786-0.046,1.178-0.086
			c0.542-0.055,1.082-0.132,1.624-0.189c0.674-0.07,1.35-0.124,2.025-0.196c0.175-0.019,0.348-0.073,0.52-0.119
			c0.318-0.083,0.559,0.01,0.649,0.332c0.137,0.485,0.225,0.983,0.371,1.464c0.048,0.16,0.21,0.286,0.326,0.423
			c0.133,0.157,0.272,0.308,0.408,0.462c0.074,0.084,0.148,0.168,0.223,0.253c0.096-0.087,0.199-0.167,0.284-0.264
			c0.03-0.033,0.03-0.108,0.021-0.159c-0.125-0.654-0.222-1.317-0.394-1.959c-0.102-0.378-0.047-0.646,0.314-0.763
			c0.371-0.12,0.766-0.167,1.151-0.24c0.066-0.013,0.14,0.01,0.205-0.003c0.642-0.127,1.28-0.267,1.922-0.388
			c0.736-0.139,1.475-0.265,2.212-0.394c0.067-0.012,0.14,0.001,0.206-0.014c0.756-0.176,1.509-0.363,2.267-0.532
			c0.892-0.198,1.787-0.382,2.681-0.572c0.013-0.002,0.027-0.001,0.041-0.005c0.944-0.272,1.888-0.545,2.833-0.817
			c0.263-0.075,0.526-0.148,0.792-0.214c0.279-0.069,0.562-0.122,0.842-0.193c0.581-0.149,1.158-0.304,1.738-0.458
			c0.066-0.018,0.133-0.034,0.198-0.057c1.15-0.407,2.301-0.81,3.447-1.227c0.349-0.126,0.587-0.059,0.725,0.299
			c0.468,1.218,0.943,2.434,1.405,3.654c0.073,0.193,0.163,0.364,0.369,0.238c0.101-0.062,0.184-0.302,0.144-0.416
			c-0.14-0.401-0.36-0.774-0.506-1.173c-0.296-0.811-0.567-1.63-0.841-2.449c-0.078-0.231-0.042-0.44,0.215-0.548
			c0.33-0.139,0.661-0.272,0.989-0.414c0.314-0.135,0.535-0.052,0.661,0.266c0.046,0.115,0.098,0.23,0.118,0.351
			c0.134,0.782,0.25,1.568,0.399,2.347c0.028,0.145,0.18,0.266,0.275,0.398c0.09-0.152,0.185-0.302,0.269-0.458
			c0.015-0.029-0.008-0.081-0.018-0.12c-0.187-0.772-0.369-1.545-0.564-2.315c-0.104-0.41,0.053-0.92,0.372-0.981
			c0.638-0.121,0.874-0.171,1.098,0.438c0.265,0.716,0.598,1.392,0.675,2.19c0.08,0.818,0.423,1.608,0.599,2.421
			c0.167,0.771,0.268,1.555,0.396,2.334c0.009,0.054-0.002,0.111,0.01,0.165c0.135,0.638,0.295,1.272,0.402,1.915
			c0.116,0.695,0.184,1.398,0.278,2.096c0.023,0.176,0.078,0.348,0.105,0.524c0.039,0.254,0.067,0.51,0.098,0.765
			c0.009,0.082-0.001,0.167,0.015,0.247c0.122,0.642,0.27,1.28,0.368,1.926c0.099,0.642,0.146,1.292,0.224,1.938
			c0.023,0.19,0.079,0.376,0.103,0.566c0.027,0.225,0.038,0.453,0.055,0.68c0.009,0.122,0.009,0.245,0.025,0.365
			c0.067,0.485,0.203,0.972,0.187,1.454c-0.009,0.274-0.199,0.618-0.417,0.792c-0.415,0.332-0.901,0.58-1.372,0.835
			c-0.364,0.199-0.601,0.077-0.687-0.34c-0.058-0.282-0.052-0.578-0.123-0.855c-0.032-0.125-0.181-0.219-0.277-0.328
			c-0.088,0.146-0.254,0.297-0.246,0.438c0.013,0.224,0.145,0.439,0.223,0.66c0.241,0.681,0.115,0.944-0.541,1.224
			c-1.667,0.708-3.387,1.257-5.119,1.777c-0.224,0.067-0.436,0.17-0.66,0.235c-1.232,0.359-2.467,0.71-3.699,1.068
			c-0.302,0.088-0.597,0.208-0.9,0.289c-0.953,0.252-1.908,0.492-2.862,0.739c-0.331,0.086-0.659,0.184-0.991,0.271
			c-0.211,0.055-0.423,0.104-0.637,0.147c-0.241,0.048-0.487,0.08-0.728,0.132c-0.692,0.15-1.376,0.345-2.075,0.448
			c-0.504,0.074-1.026,0.012-1.538,0.045c-0.516,0.034-1.029,0.121-1.544,0.166c-1.069,0.093-2.141,0.16-3.209,0.263
			c-0.594,0.058-1.182,0.172-1.774,0.251c-0.417,0.056-0.835,0.103-1.253,0.142c-0.595,0.056-1.192,0.094-1.787,0.153
			c-0.543,0.054-1.085,0.127-1.628,0.188c-0.743,0.084-1.486,0.16-2.227,0.25c-0.43,0.052-0.858,0.125-1.288,0.191
			c-0.608,0.092-1.215,0.193-1.825,0.276c-0.646,0.089-1.295,0.164-1.943,0.243c-0.109,0.014-0.22,0.012-0.327,0.033
			c-0.655,0.129-1.307,0.288-1.966,0.389c-0.614,0.093-1.238,0.127-1.857,0.187c-0.054,0.005-0.11,0.004-0.164,0.015
			c-0.681,0.14-1.358,0.3-2.043,0.418c-0.667,0.116-1.343,0.186-2.013,0.284c-0.204,0.029-0.401,0.095-0.605,0.125
			c-0.294,0.044-0.59,0.073-0.885,0.106c-0.054,0.006-0.112-0.007-0.164,0.005c-0.705,0.161-1.406,0.336-2.113,0.483
			c-0.638,0.133-1.284,0.229-1.924,0.351c-0.869,0.165-1.735,0.343-2.605,0.505c-0.711,0.132-1.425,0.25-2.138,0.373
			c-0.081,0.014-0.167,0.002-0.246,0.021c-0.795,0.194-1.586,0.413-2.387,0.582c-0.759,0.161-1.528,0.27-2.293,0.401
			c-0.027,0.004-0.056-0.002-0.082,0.004c-0.809,0.205-1.618,0.409-2.426,0.617c-0.092,0.024-0.177,0.08-0.271,0.099
			c-0.813,0.161-1.628,0.316-2.441,0.478c-0.175,0.035-0.345,0.095-0.519,0.133c-0.396,0.086-0.794,0.166-1.191,0.248
			c-0.081,0.017-0.165,0.023-0.243,0.046c-1.023,0.304-2.045,0.609-3.068,0.914c0.356,0.684,0.712,1.367,1.068,2.05
			c0.423-0.116,0.842-0.253,1.27-0.347c0.783-0.169,1.571-0.313,2.357-0.467c0.054-0.011,0.109-0.014,0.163-0.027
			c0.848-0.208,1.692-0.441,2.546-0.621c0.744-0.156,1.5-0.253,2.25-0.376c0.041-0.006,0.083-0.006,0.123-0.017
			c0.807-0.209,1.607-0.448,2.421-0.623c0.755-0.162,1.525-0.255,2.289-0.378c0.054-0.009,0.111-0.001,0.164-0.014
			c0.782-0.189,1.559-0.398,2.345-0.567c0.729-0.156,1.466-0.268,2.199-0.404c0.229-0.042,0.453-0.11,0.682-0.15
			c0.266-0.047,0.536-0.078,0.804-0.113c0.067-0.008,0.14,0.009,0.205-0.006c0.718-0.167,1.435-0.344,2.154-0.506
			c0.237-0.053,0.482-0.076,0.724-0.107c0.095-0.012,0.194,0.002,0.287-0.017c0.561-0.112,1.12-0.234,1.68-0.347
			c0.441-0.089,0.885-0.163,1.326-0.255c0.706-0.149,1.407-0.324,2.115-0.459c0.776-0.147,1.559-0.261,2.338-0.389
			c0.041-0.007,0.084,0,0.124-0.009c0.677-0.145,1.352-0.303,2.032-0.435c0.801-0.156,1.608-0.289,2.412-0.432
			c0.027-0.005,0.055-0.002,0.082-0.007c0.716-0.148,1.429-0.321,2.15-0.439c0.644-0.104,1.296-0.15,1.945-0.218
			c0.5-0.052,1.002-0.102,1.503-0.149c0.671-0.065,1.342-0.127,2.013-0.189c0.068-0.007,0.138-0.002,0.206-0.013
			c0.604-0.096,1.204-0.214,1.81-0.286c0.603-0.071,1.213-0.077,1.815-0.144c0.581-0.065,1.154-0.182,1.734-0.259
			c0.648-0.087,1.299-0.156,1.949-0.23c0.067-0.008,0.139,0.006,0.205-0.006c0.654-0.126,1.305-0.271,1.961-0.379
			c0.657-0.108,1.319-0.182,1.979-0.269c0.041-0.005,0.084,0.002,0.124-0.006c0.722-0.144,1.441-0.295,2.165-0.432
			c0.748-0.141,1.498-0.269,2.247-0.401c0.027-0.005,0.056,0,0.082-0.007c0.844-0.211,1.687-0.429,2.532-0.632
			c0.97-0.234,1.941-0.456,2.913-0.681c0.08-0.019,0.167-0.016,0.243-0.045c1.865-0.732,3.826-1.223,5.578-2.239
			c0.88-0.511,1.805-0.953,2.646-1.52c0.486-0.327,0.85-0.838,1.261-1.273c0.175-0.185,0.328-0.39,0.494-0.583
			c0.349-0.403,0.43-0.892,0.384-1.39c-0.056-0.595-0.177-1.184-0.26-1.777c-0.034-0.241-0.043-0.485-0.062-0.727
			c-0.003-0.055,0.013-0.112,0.003-0.165c-0.114-0.613-0.206-1.231-0.354-1.835c-0.173-0.702,0.022-0.966,0.735-0.981
			c0.514-0.011,1.025-0.096,1.539-0.132c0.554-0.04,1.109-0.062,1.664-0.091c0.055-0.003,0.111,0.002,0.165-0.007
			c0.641-0.119,1.28-0.25,1.924-0.357c0.698-0.116,1.4-0.208,2.102-0.311c0.041-0.006,0.083-0.004,0.122-0.015
			c0.781-0.193,1.565-0.374,2.343-0.583c1.096-0.297,2.194-0.588,3.274-0.936c0.665-0.213,1.318-0.487,1.94-0.805
			c1.176-0.6,2.366-1.187,3.471-1.903c0.708-0.459,1.287-1.126,1.896-1.729c0.317-0.313,0.61-0.666,0.848-1.042
			c0.355-0.562,0.656-1.159,0.969-1.747c0.094-0.177,0.151-0.373,0.251-0.626c-0.333-0.013-0.623-0.041-0.913-0.031
			c-0.814,0.026-1.629,0.089-2.443,0.094c-0.443,0.003-0.887-0.095-1.332-0.126c-0.622-0.043-1.248-0.039-1.867-0.108
			c-0.608-0.069-1.211-0.191-1.812-0.315c-0.493-0.102-0.999-0.191-1.463-0.376c-0.694-0.277-1.369-0.611-2.026-0.968
			c-0.288-0.157-0.412-0.416-0.23-0.802c0.564-1.197,1.09-2.412,1.613-3.626c0.377-0.875,0.78-1.744,1.08-2.646
			c0.452-1.36,0.834-2.744,1.228-4.123c0.219-0.767,0.219-1.538-0.106-2.283c-0.075-0.172-0.181-0.339-0.306-0.48
			c-0.133-0.15-0.253-0.132-0.395,0.052c-0.179,0.232-0.39,0.473-0.641,0.611c-0.998,0.548-2.006,1.082-3.033,1.573
			c-0.651,0.312-1.307,0.661-2.069,0.634c-0.053-0.002-0.107,0.021-0.16,0.037c-0.854,0.238-1.7,0.514-2.565,0.703
			c-0.673,0.147-1.37,0.18-2.055,0.278c-0.605,0.086-1.206,0.212-1.812,0.283c-0.604,0.071-1.216,0.098-1.823,0.139
			c-0.394,0.027-0.788,0.043-1.182,0.073c-0.516,0.039-1.029,0.1-1.545,0.125c-0.512,0.025-1.026,0.022-1.539,0.024
			c-0.736,0.004-1.471,0.007-2.207,0.001c-0.515-0.004-1.031-0.021-1.547-0.033c-0.353-0.008-0.706-0.019-1.059-0.025
			c-0.722-0.014-1.444-0.007-2.165-0.044c-0.73-0.038-1.457-0.136-2.187-0.173c-0.731-0.038-1.465-0.036-2.197-0.05
			c-0.512-0.009-1.024-0.016-1.537-0.024c-0.041-0.001-0.083-0.013-0.123-0.006c-0.589,0.104-1.179,0.205-1.766,0.317
			c-0.788,0.151-1.581,0.282-2.357,0.48c-0.515,0.131-1.005,0.36-1.504,0.552c-1.141,0.439-2.096,1.183-2.867,2.086
			c-0.549,0.644-1.034,1.403-1.197,2.288c-0.106,0.574-0.221,1.147-0.301,1.724c-0.027,0.193-0.013,0.434,0.081,0.593
			c0.326,0.55,0.696,1.074,1.05,1.608c0.038,0.057,0.095,0.105,0.118,0.167c0.237,0.658,0.489,1.311,0.683,1.981
			c0.039,0.135-0.111,0.421-0.249,0.491c-0.285,0.145-0.617,0.203-0.935,0.277c-0.316,0.074-0.635,0.136-0.957,0.183
			c-0.647,0.095-1.297,0.176-1.946,0.259c-0.108,0.014-0.221-0.007-0.327,0.014c-0.657,0.126-1.308,0.286-1.969,0.382
			c-0.546,0.08-1.103,0.087-1.655,0.128c-0.11,0.008-0.219,0.021-0.328,0.03c-0.743,0.069-1.485,0.133-2.227,0.207
			c-0.513,0.05-1.023,0.126-1.537,0.166c-0.554,0.042-1.11,0.053-1.666,0.082c-0.541,0.028-1.081,0.066-1.621,0.093
			c-0.408,0.02-0.815,0.042-1.223,0.041c-0.487-0.002-0.974-0.035-1.461-0.04c-0.325-0.003-0.652,0.005-0.976,0.033
			c-0.503,0.044-1.004,0.125-1.508,0.162c-0.541,0.04-1.083,0.042-1.625,0.069c-0.487,0.024-0.974,0.057-1.459,0.094
			c-0.703,0.054-1.405,0.108-2.107,0.176c-0.547,0.053-1.093,0.139-1.64,0.188c-0.582,0.053-1.166,0.075-1.748,0.119
			c-0.418,0.032-0.836,0.071-1.253,0.121c-0.595,0.073-1.188,0.168-1.783,0.236c-0.566,0.065-1.135,0.109-1.703,0.16
			c-0.082,0.007-0.167-0.015-0.247-0.002c-0.601,0.099-1.199,0.224-1.803,0.298c-0.591,0.073-1.188,0.096-1.783,0.14
			c-0.082,0.006-0.165,0.003-0.246,0.013c-0.809,0.105-1.619,0.2-2.425,0.323c-0.632,0.097-1.257,0.238-1.888,0.344
			c-0.574,0.097-1.152,0.172-1.728,0.259c-0.362,0.055-0.723,0.12-1.084,0.176c-0.47,0.073-0.94,0.147-1.411,0.21
			c-0.687,0.092-1.376,0.169-2.063,0.264c-0.175,0.024-0.343,0.101-0.518,0.131c-0.281,0.049-0.565,0.08-0.848,0.116
			c-0.054,0.007-0.112-0.009-0.165,0.002c-0.678,0.146-1.355,0.301-2.034,0.441c-0.239,0.049-0.484,0.067-0.727,0.099
			c-0.149,0.02-0.299,0.031-0.447,0.06c-0.375,0.072-0.748,0.15-1.12,0.23c-0.746,0.16-1.49,0.323-2.236,0.484
			c-0.294,0.063-0.588,0.127-0.884,0.185c-0.094,0.019-0.195,0.004-0.287,0.027c-0.781,0.188-1.56,0.386-2.341,0.572
			c-0.797,0.19-1.596,0.37-2.394,0.554C60.938,52.11,61.077,52.378,61.217,52.647z M165.35,48.713
			c-1.951,1.003-4.035,1.618-6.102,2.277c-0.077,0.025-0.162,0.024-0.243,0.038c-0.309,0.051-0.62,0.088-0.924,0.159
			c-0.731,0.17-1.457,0.371-2.191,0.528c-0.479,0.103-0.968,0.167-1.456,0.215c-0.257,0.025-0.533,0.024-0.776-0.048
			c-0.127-0.038-0.283-0.254-0.285-0.391c-0.007-0.515,0.06-1.03,0.062-1.546c0.001-0.12-0.142-0.241-0.219-0.361
			c-0.059,0.12-0.158,0.237-0.167,0.36c-0.042,0.567-0.062,1.137-0.08,1.706c-0.009,0.294-0.129,0.461-0.438,0.484
			c-0.538,0.041-1.075,0.104-1.614,0.138c-0.236,0.015-0.353-0.116-0.31-0.368c0.022-0.133,0.043-0.273,0.026-0.405
			c-0.131-1.03-0.273-2.059-0.409-3.088c-0.055-0.418-0.114-0.835-0.155-1.255c-0.103-1.067-0.194-2.135-0.293-3.202
			c-0.009-0.095-0.011-0.204-0.058-0.279c-0.044-0.068-0.145-0.101-0.22-0.149c-0.045,0.075-0.128,0.149-0.128,0.224
			c-0.001,0.232,0.027,0.463,0.047,0.695c0.042,0.519,0.076,1.039,0.13,1.556c0.078,0.745,0.168,1.49,0.259,2.233
			c0.069,0.568,0.156,1.135,0.223,1.704c0.071,0.611,0.168,1.223,0.18,1.836c0.013,0.597-0.268,0.781-0.85,0.672
			c-0.146-0.027-0.304-0.057-0.446-0.031c-0.325,0.057-0.509-0.073-0.574-0.378c-0.164-0.771-0.319-1.543-0.477-2.315
			c-0.006-0.026,0-0.055-0.003-0.083c-0.067-0.606-0.091-1.221-0.21-1.816c-0.195-0.971-0.535-1.914-0.499-2.924
			c0.003-0.077-0.055-0.154-0.074-0.233c-0.085-0.331-0.173-0.662-0.248-0.995c-0.173-0.769-0.318-1.545-0.515-2.308
			c-0.132-0.516-0.343-1.011-0.501-1.52c-0.1-0.322-0.13-0.672-0.261-0.979c-0.2-0.467-0.494-0.894-0.686-1.363
			c-0.25-0.608-0.793-0.936-1.274-1.247c-0.853-0.551-1.884-0.637-2.877-0.609c-0.81,0.023-1.625,0.158-2.417,0.338
			c-0.863,0.196-1.734,0.427-2.543,0.776c-1.883,0.812-3.708,1.742-5.379,2.95c-0.174,0.126-0.383,0.209-0.585,0.29
			c-0.343,0.136-0.696,0.248-1.04,0.381c-0.771,0.299-1.468,0.75-2.363,0.767c-0.694,0.013-1.359,0.074-2.043-0.139
			c-0.762-0.237-1.258-0.802-1.803-1.308c-0.123-0.114-0.167-0.386-0.145-0.572c0.079-0.645,0.151-1.298,0.326-1.919
			c0.135-0.477,0.353-0.965,0.658-1.35c0.393-0.496,0.938-0.869,1.368-1.341c0.997-1.095,2.452-1.166,3.703-1.688
			c0.281-0.117,0.619-0.095,0.93-0.143c0.589-0.091,1.177-0.188,1.767-0.277c0.052-0.008,0.108,0.017,0.163,0.018
			c0.459,0.004,0.918,0.018,1.377,0.007c0.469-0.011,0.938-0.079,1.405-0.063c0.865,0.028,1.728,0.103,2.593,0.149
			c0.868,0.046,1.737,0.081,2.604,0.123c0.379,0.019,0.757,0.049,1.137,0.06c0.487,0.015,0.976,0.022,1.463,0.021
			c0.459-0.001,0.918-0.021,1.377-0.027c0.556-0.007,1.113-0.004,1.668-0.013c0.448-0.006,0.896-0.021,1.344-0.035
			c0.517-0.016,1.035-0.018,1.55-0.057c0.58-0.044,1.156-0.124,1.735-0.185c0.71-0.075,1.422-0.135,2.13-0.226
			c0.525-0.067,1.044-0.187,1.568-0.259c0.696-0.096,1.403-0.124,2.09-0.263c0.706-0.144,1.397-0.371,2.086-0.59
			c0.574-0.183,1.134-0.414,1.705-0.609c0.45-0.155,0.927-0.247,1.357-0.442c0.626-0.283,1.216-0.644,1.833-0.948
			c0.126-0.062,0.336-0.068,0.452-0.002c0.091,0.051,0.155,0.266,0.13,0.387c-0.137,0.654-0.29,1.306-0.465,1.95
			c-0.147,0.541-0.312,1.079-0.507,1.604c-0.203,0.545-0.46,1.071-0.679,1.611c-0.219,0.542-0.408,1.096-0.631,1.637
			c-0.239,0.581-0.491,1.156-0.759,1.724c-0.358,0.764-0.751,1.513-1.102,2.281c-0.129,0.285-0.328,0.614-0.058,0.919
			c0.707,0.798,1.558,1.414,2.566,1.762c1.792,0.618,3.643,0.94,5.541,0.981c0.363,0.008,0.726,0.064,1.089,0.073
			c0.512,0.014,1.025,0.027,1.535-0.005c0.237-0.015,0.472-0.113,0.615,0.156c0.153,0.285,0.13,0.552-0.118,0.787
			c-0.129,0.122-0.24,0.263-0.359,0.396c-0.435,0.489-0.806,1.062-1.317,1.45C167.337,47.483,166.327,48.075,165.35,48.713z"/>
	</g>
</g>
<g>
	<defs>
		
			<rect id="SVGID_9_" x="13.789" y="54.532" transform="matrix(-0.4618 -0.887 0.887 -0.4618 -14.9012 165.2493)" width="57.796" height="65.227"/>
	</defs>
	<defs>
		<polyline id="SVGID_10_" points="25.093,123.62 12.857,100.115 1.868,76.001 78.204,36.264 156.515,0.575 168.751,24.081 
			179.74,48.193 103.404,87.932 25.093,123.62 		"/>
	</defs>
	<defs>
		<polyline id="SVGID_11_" points="157.777,0 181.608,52.292 23.831,124.195 0,71.903 157.777,0 		"/>
	</defs>
	<defs>
		<rect id="SVGID_12_" x="12.957" y="26.675" width="160.051" height="91.458"/>
	</defs>
	<clipPath id="SVGID_13_">
		<use xlink:href="#SVGID_9_"  overflow="visible"/>
	</clipPath>
	<clipPath id="SVGID_14_" clip-path="url(#SVGID_13_)">
		<use xlink:href="#SVGID_10_"  overflow="visible"/>
	</clipPath>
	<clipPath id="SVGID_15_" clip-path="url(#SVGID_14_)">
		<use xlink:href="#SVGID_11_"  overflow="visible"/>
	</clipPath>
	<clipPath id="SVGID_16_" clip-path="url(#SVGID_15_)">
		<use xlink:href="#SVGID_12_"  overflow="visible"/>
	</clipPath>
	<g clip-path="url(#SVGID_16_)">
		<path fill-rule="evenodd" clip-rule="evenodd" d="M73.334,75.567c-0.594,0.152-1.187,0.313-1.783,0.456
			c-0.861,0.206-1.727,0.396-2.588,0.599c-0.227,0.054-0.444,0.145-0.671,0.201c-0.487,0.122-0.979,0.228-1.466,0.349
			c-0.172,0.042-0.341,0.104-0.509,0.162c-0.311,0.108-0.617,0.23-0.931,0.328c-0.602,0.188-1.207,0.365-1.813,0.539
			c-1.064,0.306-2.131,0.604-3.196,0.907c-0.264,0.075-0.534,0.137-0.789,0.237c-1.317,0.518-2.659,0.984-3.939,1.581
			c-3.116,1.455-6.2,2.984-9.129,4.79c-1.032,0.636-1.951,1.462-2.891,2.24c-0.618,0.511-1.208,1.064-1.759,1.646
			c-0.359,0.379-0.657,0.827-0.931,1.275c-0.318,0.521-0.626,1.058-0.855,1.622c-0.416,1.024-0.659,2.084-0.382,3.203
			c0.033,0.134-0.062,0.298-0.097,0.449c-0.151-0.064-0.339-0.091-0.448-0.197c-0.67-0.659-1.322-1.336-1.98-2.008
			c-0.02-0.02-0.042-0.037-0.059-0.058c-0.59-0.752-1.18-1.505-1.77-2.257c-0.254-0.324-0.507-0.647-0.765-0.968
			c-0.095-0.117-0.216-0.215-0.301-0.339c-0.882-1.276-1.759-2.555-2.638-3.833c-0.156-0.227-0.311-0.454-0.472-0.677
			c-0.353-0.487-0.736-0.955-1.061-1.46c-1.033-1.606-2.05-3.224-3.061-4.845c-0.291-0.466-0.496-0.989-0.813-1.435
			c-0.477-0.668-0.52-1.406-0.413-2.156c0.172-1.217,0.333-2.441,0.817-3.59c0.112-0.265,0.193-0.542,0.304-0.807
			c0.158-0.381,0.54-0.437,0.821-0.129c0.156,0.17,0.26,0.5,0.558,0.293c0.061-0.042-0.089-0.396-0.151-0.603
			c-0.019-0.064-0.069-0.118-0.104-0.177c-0.385-0.644-0.324-1.048,0.16-1.623c0.365-0.433,0.669-0.917,1.017-1.365
			c0.25-0.323,0.509-0.642,0.795-0.932c0.477-0.483,0.957-0.967,1.475-1.406c0.667-0.564,1.358-1.102,2.064-1.615
			c0.487-0.354,0.733-0.3,1.064,0.184c0.59,0.861,1.149,1.745,1.745,2.602c0.209,0.301,0.489,0.553,0.736,0.827
			c0.041-0.026,0.081-0.052,0.122-0.078c-0.001-0.085,0.03-0.188-0.007-0.252c-0.259-0.453-0.511-0.911-0.804-1.342
			c-0.494-0.726-1.037-1.419-1.521-2.151c-0.338-0.511-0.268-0.71,0.257-1.028c2.816-1.706,5.729-3.228,8.743-4.55
			c1.166-0.511,2.371-0.934,3.553-1.407c0.376-0.15,0.601-0.012,0.77,0.317c0.503,0.979,1.011,1.955,1.517,2.933
			c0.032,0.061,0.042,0.143,0.09,0.184c0.093,0.081,0.206,0.139,0.311,0.207c0.021-0.132,0.1-0.292,0.053-0.393
			c-0.188-0.397-0.42-0.772-0.625-1.162c-0.276-0.523-0.55-1.047-0.807-1.58c-0.082-0.169-0.106-0.366-0.157-0.551
			c0.054-0.027,0.108-0.055,0.162-0.083c0.16,0.2,0.333,0.39,0.475,0.602c0.121,0.182,0.181,0.408,0.317,0.576
			c0.078,0.098,0.252,0.118,0.383,0.173c0.011-0.143,0.075-0.312,0.021-0.423c-0.139-0.281-0.331-0.536-0.5-0.802
			c-0.173-0.271-0.134-0.52,0.146-0.666c0.327-0.17,0.67-0.343,1.026-0.409c0.159-0.029,0.43,0.157,0.541,0.32
			c0.377,0.557,0.707,1.147,1.054,1.725c0.029,0.047,0.044,0.119,0.086,0.139c0.168,0.081,0.344,0.146,0.517,0.218
			c-0.017-0.163,0.017-0.359-0.061-0.484c-0.297-0.479-0.625-0.938-0.951-1.399c-0.361-0.512-0.305-0.733,0.292-0.938
			c1.141-0.392,2.283-0.781,3.433-1.147c0.65-0.207,1.316-0.368,1.977-0.542c0.472-0.125,0.818,0.09,0.996,0.558
			c0.263,0.693,0.541,1.382,0.839,2.061c0.047,0.107,0.234,0.154,0.356,0.229c0.029-0.156,0.125-0.338,0.075-0.463
			c-0.28-0.715-0.598-1.416-0.896-2.125c-0.159-0.379-0.085-0.568,0.324-0.682c0.553-0.153,1.121-0.255,1.679-0.393
			c0.157-0.039,0.302-0.129,0.453-0.196c-0.127-0.244-0.254-0.488-0.381-0.732c-0.321,0.051-0.644,0.09-0.961,0.155
			c-0.414,0.085-0.827,0.175-1.233,0.291c-1.04,0.296-2.075,0.607-3.111,0.915c-0.144,0.043-0.286,0.149-0.426,0.145
			c-0.646-0.023-1.193,0.27-1.773,0.484c-0.949,0.351-1.902,0.704-2.879,0.959c-2.359,0.617-4.571,1.607-6.83,2.499
			c-1.913,0.755-3.755,1.622-5.571,2.564c-1.148,0.595-2.3,1.183-3.284,2.048c-0.244,0.215-0.569,0.335-0.836,0.526
			c-0.979,0.703-1.978,1.384-2.915,2.14c-0.545,0.44-0.987,1.01-1.475,1.521c-0.066,0.069-0.119,0.157-0.196,0.211
			c-0.607,0.426-0.977,1.053-1.393,1.639c-0.393,0.553-0.775,1.112-1.156,1.673c-0.516,0.758-0.917,1.581-1.202,2.445
			c-0.3,0.909-0.57,1.835-0.745,2.774c-0.127,0.685-0.05,1.405-0.114,2.105c-0.111,1.222,0.751,2.009,1.281,2.94
			c0.258,0.453,0.237,0.688-0.185,0.995c-0.983,0.717-2.049,1.331-2.849,2.282c-0.595,0.708-1.278,1.35-1.804,2.104
			c-0.495,0.708-0.882,1.504-1.229,2.3c-0.4,0.921-0.752,1.871-1.034,2.834c-0.225,0.769-0.335,1.574-0.456,2.369
			c-0.106,0.697-0.179,1.401-0.224,2.104c-0.03,0.472,0.012,0.949,0.024,1.423c0.013,0.5,0.026,0.998,0.046,1.498
			c0.007,0.162,0.034,0.325,0.06,0.557c0.31-0.33,0.549-0.579,0.782-0.834c0.467-0.512,0.93-1.028,1.394-1.542
			c0.037-0.041,0.067-0.089,0.109-0.123c1.097-0.909,2.141-1.891,3.478-2.462c0.341-0.146,0.664-0.338,1.011-0.469
			c0.837-0.317,1.687-0.318,2.512,0.032c0.397,0.168,0.778,0.393,1.131,0.641c0.118,0.083,0.205,0.332,0.179,0.481
			c-0.154,0.88-0.37,1.75-0.52,2.63c-0.15,0.884-0.272,1.776-0.357,2.668c-0.045,0.469,0.014,0.948,0.026,1.423
			c0.014,0.555,0.015,1.111,0.047,1.666c0.026,0.462,0.07,0.925,0.138,1.382c0.07,0.473,0.158,0.946,0.274,1.41
			c0.184,0.741,0.341,1.496,0.609,2.208c0.466,1.231,0.974,2.45,1.532,3.642c0.287,0.613,0.716,1.16,1.092,1.73
			c0.042,0.063,0.157,0.078,0.238,0.115c0.032-0.083,0.09-0.165,0.091-0.247c0.019-1.253,0.159-2.488,0.381-3.725
			c0.177-0.98,0.573-1.855,1.017-2.71c0.229-0.441,0.645-0.787,0.982-1.171c1.299-1.48,3.106-2.148,4.817-2.942
			c1.04-0.482,2.162-0.804,3.27-1.123c1.126-0.324,2.274-0.575,3.421-0.822c0.705-0.151,1.426-0.227,2.138-0.351
			c0.686-0.119,1.366-0.27,2.052-0.383c0.682-0.113,1.369-0.188,2.052-0.296c0.698-0.11,1.393-0.245,2.091-0.358
			c0.726-0.119,1.454-0.225,2.181-0.335c0.067-0.011,0.141,0.007,0.205-0.011c0.843-0.236,1.684-0.48,2.529-0.713
			c0.38-0.104,0.767-0.186,1.15-0.28c0.16-0.039,0.332-0.055,0.475-0.127c1.557-0.787,3.118-1.568,4.658-2.389
			c0.294-0.157,0.514-0.468,0.746-0.726c0.308-0.343,0.576-0.722,0.893-1.055c0.444-0.466,0.569-1.063,0.663-1.647
			c0.187-1.164-0.154-2.183-0.739-3.23c-0.771-1.382-1.285-2.907-1.917-4.367c-0.36-0.833-0.732-1.66-1.105-2.488
			c-0.339-0.751-0.254-0.941,0.529-1.204c0.365-0.122,0.717-0.283,1.085-0.396c0.439-0.135,0.89-0.234,1.333-0.355
			c0.199-0.054,0.391-0.131,0.589-0.185c0.475-0.129,0.951-0.251,1.428-0.375c0.04-0.01,0.083-0.006,0.123-0.017
			c0.792-0.21,1.583-0.429,2.377-0.629c0.395-0.099,0.798-0.161,1.197-0.244c0.134-0.028,0.267-0.062,0.399-0.1
			c0.367-0.104,0.733-0.212,1.1-0.319C74.045,76.934,73.69,76.25,73.334,75.567z M64.015,89.765
			c-0.051,0.027-0.103,0.054-0.153,0.081c0.058,0.179,0.088,0.374,0.178,0.535c0.524,0.937,1.059,1.866,1.596,2.795
			c0.135,0.233,0.152,0.459-0.069,0.629c-0.609,0.465-1.185,1.005-1.859,1.345c-0.976,0.491-2.026,0.837-3.047,1.235
			c-0.598,0.233-1.167,0.56-1.845,0.534c-0.168-0.006-0.337,0.108-0.51,0.152c-0.356,0.091-0.713,0.179-1.074,0.254
			c-0.722,0.149-1.446,0.292-2.17,0.433c-0.656,0.129-1.31,0.274-1.97,0.374c-0.631,0.094-1.271,0.127-1.904,0.208
			c-0.512,0.065-1.023,0.141-1.528,0.246c-0.708,0.147-1.41,0.326-2.114,0.49c-0.04,0.009-0.083,0.005-0.123,0.012
			c-0.346,0.051-0.693,0.097-1.038,0.156c-0.189,0.033-0.373,0.094-0.561,0.134c-0.866,0.188-1.754,0.306-2.595,0.574
			c-1.157,0.369-2.39,0.518-3.463,1.145c-0.104,0.062-0.237,0.07-0.352,0.115c-0.727,0.286-1.465,0.548-2.176,0.87
			c-0.657,0.297-0.637,0.319-1.135-0.235c-0.069-0.077-0.271-0.093-0.38-0.053c-0.059,0.021-0.111,0.249-0.068,0.335
			c0.273,0.557,0.248,0.549-0.167,1.004c-0.58,0.636-1.473,0.9-1.906,1.719c-0.303,0.575-0.829,1.042-1.079,1.633
			c-0.375,0.887-0.594,1.84-0.889,2.762c-0.037,0.116-0.111,0.26-0.208,0.304c-0.071,0.032-0.231-0.056-0.308-0.133
			c-0.093-0.094-0.16-0.226-0.204-0.354c-0.382-1.116-0.757-2.233-1.131-3.352c-0.021-0.063-0.017-0.136-0.026-0.204
			c-0.092-0.647-0.181-1.295-0.277-1.941c-0.088-0.592-0.237-1.181-0.264-1.775c-0.037-0.812,0.012-1.628,0.036-2.442
			c0.008-0.285,0.047-0.57,0.075-0.854c0.066-0.676,0.091-1.36,0.213-2.025c0.133-0.722,0.375-1.422,0.531-2.141
			c0.053-0.243,0.07-0.554-0.039-0.759c-0.466-0.876-1.229-1.445-2.17-1.694c-1.188-0.314-2.353-0.083-3.49,0.331
			c-1.391,0.505-2.387,1.605-3.603,2.374c-0.076,0.048-0.113,0.155-0.18,0.223c-0.228,0.231-0.444,0.479-0.7,0.675
			c-0.103,0.079-0.341,0.103-0.436,0.036c-0.091-0.064-0.089-0.278-0.102-0.427c-0.008-0.091,0.045-0.186,0.053-0.279
			c0.057-0.649,0.051-1.31,0.174-1.946c0.195-1,0.474-1.984,0.719-2.974c0.352-1.417,0.973-2.711,1.78-3.921
			c0.21-0.315,0.432-0.624,0.656-0.929c0.444-0.604,0.867-1.228,1.508-1.652c0.125-0.083,0.258-0.172,0.348-0.289
			c0.56-0.726,1.389-1.061,2.146-1.499c0.304-0.176,0.543-0.11,0.722,0.207c0.624,1.115,1.278,2.198,2.068,3.219
			c1.079,1.396,1.968,2.939,2.966,4.399c0.471,0.688,1,1.337,1.51,1.998c0.617,0.799,1.241,1.592,1.864,2.386
			c0.042,0.053,0.101,0.094,0.146,0.146c0.27,0.31,0.531,0.627,0.81,0.93c0.479,0.521,0.965,1.036,1.456,1.545
			c0.294,0.305,0.581,0.624,0.911,0.886c0.5,0.397,1.021,0.772,1.56,1.117c0.801,0.512,0.934,0.484,1.677-0.099
			c0.313-0.246,0.632-0.491,0.973-0.695c1.497-0.896,3.003-1.767,4.435-2.779c1.759-1.242,3.659-2.284,5.471-3.452
			c0.618-0.398,1.12-0.979,1.74-1.371c1.496-0.946,2.943-2,4.683-2.484c0.694-0.194,1.405-0.324,2.109-0.479
			c0.051-0.011,0.109,0.005,0.164,0.01c0.406,0.036,0.812,0.096,1.219,0.103c0.794,0.013,1.476,0.347,2.143,0.718
			c0.27,0.151,0.51,0.356,0.759,0.544c0.608,0.458,0.724,1.175,0.942,1.832c0.065,0.197,0.086,0.435,0.044,0.636
			c-0.106,0.505-0.24,1.005-0.403,1.494c-0.056,0.167-0.229,0.402-0.358,0.408c-0.17,0.008-0.415-0.136-0.514-0.288
			c-0.485-0.75-0.927-1.528-1.397-2.289C64.308,90.065,64.15,89.922,64.015,89.765z"/>
	</g>
</g>
<text transform="matrix(0.9613 -0.2756 0.2756 0.9613 47.7227 77.6294)" font-family="'Helvetica-Bold'" font-size="15.8781" letter-spacing="1">PO</text>
<text transform="matrix(0.9613 -0.2756 0.2756 0.9613 73.4448 70.2612)" font-family="'Helvetica-Bold'" font-size="15.8781">P </text>
<text transform="matrix(1 0 0 1 81.4951 92.624)" font-family="'Helvetica-Bold'" font-size="17.1483" letter-spacing="3">JOHNS</text>
<text transform="matrix(0.9848 -0.1736 0.1736 0.9848 85.5054 67.3774)" font-family="'Helvetica-Bold'" font-size="15.8781" letter-spacing="1">-U</text>
<text transform="matrix(0.9848 -0.1736 0.1736 0.9848 105.7578 63.8062)" font-family="'Helvetica-Bold'" font-size="15.8781">P</text>
</svg>
