<?xml version="1.0" encoding="utf-8"?>
<!-- Generator: Adobe Illustrator 16.0.4, SVG Export Plug-In . SVG Version: 6.00 Build 0)  -->
<!DOCTYPE svg PUBLIC "-//W3C//DTD SVG 1.1//EN" "http://www.w3.org/Graphics/SVG/1.1/DTD/svg11.dtd">
<svg version="1.1" xmlns="http://www.w3.org/2000/svg" xmlns:xlink="http://www.w3.org/1999/xlink" x="0px" y="0px" width="82px"
	 height="48px" viewBox="0 0 82 48" enable-background="new 0 0 82 48" xml:space="preserve">
<g id="Layer_2">
</g>
<g id="Layer_1">
	<g>
		<path d="M11.194,24.722v7.909h2.067V21.183h-2.127L7.24,26.698l-3.91-5.515H1.204V32.63h2.081v-7.953l3.955,5.589L11.194,24.722
			L11.194,24.722z M26.465,23.204v-2.021h-7.166V32.63h7.166v-2.037h-5.1v-2.542h4.416v-2.037h-4.416v-2.81H26.465L26.465,23.204z
			 M39.531,21.183h-7.954v1.992h4.594l-4.594,9.455h7.954v-1.948h-4.609L39.531,21.183L39.531,21.183z M52.147,29.567
			c-0.729,0.729-1.695,1.101-2.647,1.101c-0.966,0-1.933-0.371-2.661-1.101c-1.457-1.47-1.457-3.834,0-5.307
			c0.729-0.728,1.695-1.084,2.661-1.084c0.952,0,1.903,0.356,2.647,1.084l1.471-1.471c-1.145-1.131-2.632-1.709-4.118-1.709
			c-1.502,0-2.987,0.579-4.132,1.709c-2.261,2.275-2.261,5.977,0,8.25c1.145,1.13,2.63,1.696,4.132,1.696
			c1.486,0,2.974-0.565,4.118-1.696L52.147,29.567L52.147,29.567z M61.198,28.676l1.857-4.52l1.889,4.52H61.198L61.198,28.676z
			 M64.082,21.183h-2.037L57.348,32.63h2.26l0.773-1.917h5.396l0.805,1.917h2.229L64.082,21.183L64.082,21.183z M73.614,21.183
			V32.63h7.182v-1.917h-5.099v-9.53H73.614L73.614,21.183z"/>
		<path d="M24.034,1.344h-2.245l-2.468,4.223l-2.498-4.223h-2.23l3.673,6.602v4.847h2.082V8.035L24.034,1.344L24.034,1.344z
			 M37.575,2.951c-1.145-1.13-2.646-1.709-4.118-1.709c-1.485,0-2.987,0.579-4.118,1.709c-2.29,2.274-2.29,5.977,0,8.251
			c1.131,1.13,2.633,1.695,4.118,1.695c1.472,0,2.974-0.565,4.118-1.695C39.851,8.927,39.851,5.225,37.575,2.951L37.575,2.951z
			 M36.089,9.715c-0.729,0.728-1.68,1.085-2.632,1.085c-0.967,0-1.918-0.358-2.631-1.085c-1.472-1.458-1.457-3.821,0-5.278
			c0.713-0.713,1.664-1.085,2.631-1.085c0.952,0,1.903,0.372,2.632,1.085C37.546,5.895,37.546,8.257,36.089,9.715L36.089,9.715z
			 M44.679,1.344v11.448h7.182v-1.917h-5.1V1.344H44.679L44.679,1.344z M59.795,8.838l1.858-4.52l1.889,4.52H59.795L59.795,8.838z
			 M62.68,1.344h-2.037l-4.699,11.448h2.26l0.773-1.917h5.397l0.803,1.917h2.23L62.68,1.344L62.68,1.344z"/>
		<path d="M30.503,42.032v0.981l1.108-0.543v3.338h-1.108v0.884h3.233v-0.884h-1.114v-4.862L30.503,42.032L30.503,42.032z
			 M36.268,44.151c0.326,0.327,0.75,0.513,1.182,0.542l-1.033,1.525l0.779,0.528l1.979-2.878c0.498-0.735,0.416-1.747-0.23-2.394
			c-0.371-0.371-0.855-0.557-1.338-0.557c-0.491,0-0.975,0.186-1.338,0.557C35.524,42.21,35.524,43.416,36.268,44.151L36.268,44.151
			z M37.605,41.943c0.476,0,0.87,0.386,0.87,0.87c0,0.483-0.395,0.869-0.87,0.869c-0.484,0-0.87-0.386-0.87-0.869
			C36.735,42.329,37.121,41.943,37.605,41.943L37.605,41.943z M41.476,40.961v0.989h2.402l-2.098,4.334l0.885,0.474l2.795-5.797
			H41.476L41.476,40.961z M47.244,42.032v0.981l1.107-0.543v3.338h-1.107v0.884h3.232v-0.884h-1.113v-4.862L47.244,42.032
			L47.244,42.032z"/>
	</g>
</g>
</svg>
